<svg width="46" height="31" viewBox="0 0 46 31" fill="none" xmlns="http://www.w3.org/2000/svg">
<path d="M22.7128 14.7532C23.5431 13.7222 24.1582 12.6601 24.5571 11.5653C24.9566 10.4697 25.156 9.19855 25.156 7.74917C25.156 6.2998 24.9566 5.02849 24.5571 3.93367C24.1582 2.83809 23.5431 1.77535 22.7128 0.745115C25.1404 0.197327 27.2725 0.56778 29.1099 1.85558C30.9464 3.14363 31.865 5.10875 31.865 7.74917C31.865 10.3904 30.9464 12.3544 29.1099 13.6422C27.2725 14.9302 25.1404 15.3008 22.7128 14.7532ZM33.0629 30.5V25.9592C33.0629 24.3169 32.6475 22.7881 31.8172 21.3709C30.9861 19.9539 29.5493 18.7619 27.5039 17.7965C33.0308 18.5048 36.8077 19.5353 38.8365 20.888C40.8647 22.2403 41.8796 23.9307 41.8796 25.9592V30.5H33.0629ZM38.3333 16.5401V11.71H33.5419V8.81141H38.3333V3.98128H41.2086V8.81141H46V11.71H41.2086V16.5401H38.3333ZM15.0936 14.9944C12.9856 14.9944 11.2609 14.3184 9.91859 12.9657C8.5768 11.6134 7.90623 9.87474 7.90623 7.74917C7.90623 5.62361 8.5768 3.88437 9.91859 2.53199C11.2601 1.17936 12.9856 0.503363 15.0936 0.503363C17.2021 0.503363 18.9271 1.17936 20.2687 2.53199C21.6104 3.88437 22.2819 5.62361 22.2819 7.74917C22.2819 9.87474 21.6112 11.6134 20.2687 12.9657C18.9271 14.3184 17.2021 14.9944 15.0936 14.9944ZM0 30.5V25.9592C0 24.8323 0.295451 23.8099 0.886579 22.8919C1.47771 21.9743 2.26809 21.2905 3.25866 20.8397C5.55811 19.8087 7.61061 19.0679 9.41565 18.6176C11.2202 18.1668 13.1132 17.9412 15.0936 17.9412C17.0748 17.9412 18.9593 18.1668 20.748 18.6176C22.5369 19.0679 24.5812 19.8087 26.8814 20.8397C27.8719 21.2905 28.6703 21.9743 29.2771 22.8919C29.8845 23.8099 30.1879 24.8323 30.1879 25.9592V30.5H0ZM15.0936 12.0964C16.3399 12.0964 17.3703 11.6861 18.1842 10.8648C18.9989 10.0435 19.4063 9.00557 19.4063 7.74917C19.4063 6.49278 18.9989 5.45463 18.1842 4.63358C17.3703 3.81228 16.3399 3.40132 15.0936 3.40132C13.8481 3.40132 12.8177 3.81228 12.003 4.63358C11.1883 5.45463 10.7816 6.49278 10.7816 7.74917C10.7816 9.00557 11.1883 10.0435 12.003 10.8648C12.8177 11.6861 13.8481 12.0964 15.0936 12.0964ZM2.87471 27.602H27.3122V25.9592C27.3122 25.4446 27.1847 24.9614 26.9292 24.5106C26.6734 24.059 26.2747 23.7055 25.7313 23.4477C23.5274 22.4175 21.6588 21.7249 20.1248 21.3709C18.5916 21.0171 16.9145 20.8397 15.0936 20.8397C13.2735 20.8397 11.604 21.0171 10.0866 21.3709C8.569 21.7249 6.67635 22.4175 4.40806 23.4477C3.92948 23.6731 3.5541 24.0189 3.28228 24.4865C3.01095 24.9529 2.87471 25.4446 2.87471 25.9592V27.602Z" fill="white"/>
</svg>
