<svg width="30" height="31" viewBox="0 0 30 31" fill="none" xmlns="http://www.w3.org/2000/svg">
<path d="M2.49962 30.4996C1.83325 30.4996 1.24979 30.2496 0.749804 29.7496C0.249983 29.2498 0 28.6665 0 28V20.8333L2.49962 20.8329V28H9.66666V30.5L2.49962 30.4996ZM20.3329 30.4996V27.9996L27.5 28V20.8333L29.9998 20.8329V28C29.9998 28.6665 29.7498 29.2498 29.2498 29.7496C28.7498 30.2496 28.1665 30.4996 27.5 30.4996H20.3329ZM0 10.1667V2.99962C0 2.33308 0.249983 1.74983 0.749804 1.25001C1.24979 0.750019 1.83325 0.5 2.49962 0.5H9.66666V3.00003L2.49962 2.99962V10.1662L0 10.1667ZM27.5 10.1667V2.99962H20.3329V0.5H27.5C28.1665 0.5 28.7498 0.750019 29.2498 1.25001C29.7498 1.74983 29.9998 2.33308 29.9998 2.99962V10.1662L27.5 10.1667Z" fill="white"/>
</svg>
