<svg width="22" height="31" viewBox="0 0 22 31" fill="none" xmlns="http://www.w3.org/2000/svg">
<path d="M10.9998 30.5C10.1686 30.5 9.46599 30.2119 8.89132 29.6367C8.31702 29.0616 8.02975 28.3583 8.02975 27.5254H13.97C13.97 28.3583 13.6821 29.0616 13.108 29.6367C12.5337 30.2119 11.8309 30.5 10.9998 30.5ZM5.06016 25.2487V23.0459H16.9398V25.2487H5.06016ZM5.24321 20.8059C3.6301 19.7533 2.35281 18.4379 1.41204 16.8588C0.470547 15.2798 0 13.4987 0 11.5156C0 8.52919 1.08793 5.94696 3.26304 3.76778C5.43905 1.58951 8.01757 0.5 10.9998 0.5C13.9823 0.5 16.5609 1.58951 18.7365 3.76778C20.912 5.94696 22 8.52919 22 11.5156C22 13.4987 21.5355 15.2798 20.6065 16.8588C19.6773 18.4379 18.3944 19.7533 16.7561 20.8059H5.24321ZM6.05024 18.603H15.9864C17.1596 17.8196 18.0883 16.8039 18.7727 15.5551C19.4572 14.3068 19.7999 12.96 19.7999 11.5156C19.7999 9.09255 18.938 7.01755 17.2145 5.29177C15.4913 3.566 13.4198 2.70329 10.9998 2.70329C8.58012 2.70329 6.50798 3.566 4.78526 5.29177C3.06145 7.01755 2.20009 9.09255 2.20009 11.5156C2.20009 12.96 2.54215 14.3068 3.2266 15.5551C3.91124 16.8039 4.8519 17.8196 6.05024 18.603Z" fill="white"/>
</svg>
