<svg width="64" height="25" viewBox="0 0 64 25" fill="none" xmlns="http://www.w3.org/2000/svg">
<path fill-rule="evenodd" clip-rule="evenodd" d="M56.7623 0.920654C60.7593 0.920654 64 4.20168 64 8.24938C64 12.2973 60.7593 15.5781 56.7623 15.5781C52.7653 15.5781 49.5246 12.2973 49.5246 8.24938C49.5246 4.20168 52.7653 0.920654 56.7623 0.920654ZM57.0077 11.7601L56.6686 11.4499C56.0834 10.9082 55.6005 10.4396 55.2197 10.0451C54.8388 9.65109 54.535 9.29915 54.3088 8.98864C54.0824 8.67872 53.924 8.39758 53.833 8.14599C53.7419 7.89458 53.6961 7.64032 53.6961 7.38275C53.6961 6.87956 53.8633 6.45919 54.1972 6.12135C54.5313 5.78313 54.9434 5.61378 55.4347 5.61378C55.7495 5.61378 56.0408 5.6892 56.308 5.84031C56.5758 5.99104 56.8089 6.20914 57.0077 6.49404C57.2394 6.19239 57.4852 5.97007 57.7448 5.82762C58.0041 5.68459 58.2826 5.61378 58.5812 5.61378C59.072 5.61378 59.4844 5.78313 59.8185 6.12135C60.1525 6.45919 60.3197 6.87956 60.3197 7.38275C60.3197 7.64032 60.2738 7.89458 60.1828 8.14599C60.0917 8.39758 59.9333 8.67872 59.7069 8.98864C59.4808 9.29915 59.1769 9.65109 58.7961 10.0451C58.4152 10.4396 57.9324 10.9082 57.3472 11.4499L57.0077 11.7601ZM10.022 4.61885H48.2928C45.6596 8.75068 46.8684 14.668 51.5017 17.2169C53.8938 18.533 56.6539 18.5877 59.0357 17.6056C57.8165 21.8198 53.9558 24.9207 49.4141 24.9207H10.022C4.51008 24.9207 0 20.353 0 14.7698C0 9.18706 4.51008 4.61885 10.022 4.61885ZM5.09558 12.4932C6.28897 12.4932 7.2565 13.4723 7.2565 14.6805C7.2565 15.8892 6.28897 16.8686 5.09558 16.8686C3.90238 16.8686 2.93513 15.8892 2.93513 14.6805C2.93513 13.4723 3.90238 12.4932 5.09558 12.4932Z" fill="#DC0000"/>
<path d="M14.8374 16.9061H13.1871V11.7429H14.8897C15.3892 11.7429 15.8182 11.8462 16.1766 12.053C16.535 12.258 16.8097 12.553 17.0005 12.9379C17.193 13.3211 17.2892 13.7808 17.2892 14.3169C17.2892 14.8547 17.1922 15.3169 16.998 15.7035C16.8055 16.0901 16.5267 16.3876 16.1617 16.596C15.7966 16.8027 15.3552 16.9061 14.8374 16.9061ZM13.9563 16.2254H14.7951C15.1834 16.2254 15.5062 16.1514 15.7634 16.0035C16.0206 15.8539 16.2131 15.638 16.3409 15.3556C16.4687 15.0716 16.5325 14.7253 16.5325 14.3169C16.5325 13.9118 16.4687 13.5681 16.3409 13.2858C16.2148 13.0034 16.0264 12.7891 15.7758 12.6429C15.5253 12.4967 15.2141 12.4236 14.8424 12.4236H13.9563V16.2254Z" fill="white"/>
<path d="M22.6739 14.3245C22.6739 14.8757 22.5743 15.3497 22.3752 15.7464C22.1761 16.1413 21.9031 16.4456 21.5563 16.659C21.2111 16.8708 20.8187 16.9767 20.3789 16.9767C19.9375 16.9767 19.5434 16.8708 19.1966 16.659C18.8514 16.4456 18.5792 16.1405 18.3801 15.7438C18.181 15.3472 18.0814 14.8741 18.0814 14.3245C18.0814 13.7732 18.181 13.3001 18.3801 12.9051C18.5792 12.5084 18.8514 12.2042 19.1966 11.9924C19.5434 11.779 19.9375 11.6723 20.3789 11.6723C20.8187 11.6723 21.2111 11.779 21.5563 11.9924C21.9031 12.2042 22.1761 12.5084 22.3752 12.9051C22.5743 13.3001 22.6739 13.7732 22.6739 14.3245ZM21.9122 14.3245C21.9122 13.9043 21.845 13.5505 21.7106 13.2631C21.5778 12.974 21.3953 12.7555 21.163 12.6076C20.9323 12.458 20.671 12.3832 20.3789 12.3832C20.0852 12.3832 19.823 12.458 19.5923 12.6076C19.3617 12.7555 19.1791 12.974 19.0447 13.2631C18.912 13.5505 18.8456 13.9043 18.8456 14.3245C18.8456 14.7447 18.912 15.0993 19.0447 15.3884C19.1791 15.6758 19.3617 15.8943 19.5923 16.0439C19.823 16.1918 20.0852 16.2657 20.3789 16.2657C20.671 16.2657 20.9323 16.1918 21.163 16.0439C21.3953 15.8943 21.5778 15.6758 21.7106 15.3884C21.845 15.0993 21.9122 14.7447 21.9122 14.3245Z" fill="white"/>
<path d="M27.7474 11.7429V16.9061H27.0405L24.4493 13.1194H24.402V16.9061H23.6328V11.7429H24.3447L26.9384 15.5346H26.9857V11.7429H27.7474Z" fill="white"/>
<path d="M29.3 16.9061H28.4836L30.3181 11.7429H31.2067L33.0412 16.9061H32.2248L30.7836 12.6807H30.7437L29.3 16.9061ZM29.4369 14.8842H32.0854V15.5396H29.4369V14.8842Z" fill="white"/>
<path d="M32.9236 12.4135V11.7429H36.8689V12.4135H35.2784V16.9061H34.5117V12.4135H32.9236Z" fill="white"/>
<path d="M37.7407 16.9061V11.7429H40.9368V12.4135H38.5099V13.9866H40.77V14.6547H38.5099V16.2355H40.9667V16.9061H37.7407Z" fill="white"/>
</svg>
