<svg width="30" height="30" viewBox="0 0 30 30" fill="none" xmlns="http://www.w3.org/2000/svg">
<path d="M9.37512 30C6.76384 30 4.5488 29.0904 2.72901 27.2708C0.909375 25.4512 0 23.236 0 20.6247C0 19.3749 0.236361 18.1805 0.708124 17.0419C1.18035 15.9028 1.861 14.8884 2.74982 13.9998L13.9998 2.75001C14.8886 1.86135 15.9024 1.18054 17.0415 0.708313C18.1803 0.236395 19.3748 0 20.6247 0C23.236 0 25.451 0.909565 27.2706 2.7292C29.0902 4.54883 29.9996 6.76403 29.9996 9.37531C29.9996 10.6252 29.7633 11.8197 29.2915 12.9585C28.8191 14.0976 28.1388 15.1114 27.25 16.0002L15.9998 27.25C15.1112 28.1388 14.0974 28.8195 12.9581 29.2917C11.8195 29.7635 10.625 30 9.37512 30ZM20.7499 18.9583L25.4998 14.2503C26.1385 13.6111 26.6314 12.8683 26.9789 12.0209C27.3259 11.1738 27.4999 10.2917 27.4999 9.37531C27.4999 7.45865 26.8331 5.83344 25.4998 4.49998C24.1665 3.16668 22.5413 2.49991 20.6247 2.49991C19.7083 2.49991 18.8261 2.67392 17.9791 3.02092C17.1317 3.36839 16.3887 3.8613 15.7496 4.49998L11.0415 9.25007L20.7499 18.9583ZM9.37512 27.5001C10.2638 27.5001 11.1388 27.3261 11.9999 26.9791C12.861 26.6315 13.6109 26.1389 14.2501 25.5L18.9583 20.7499L9.24988 11.0417L4.49998 15.7497C3.86115 16.389 3.3682 17.1317 3.02073 17.9791C2.67358 18.8261 2.50018 19.7083 2.49972 20.6247C2.49972 22.5415 3.16668 24.1667 4.49998 25.5C5.83328 26.8333 7.45831 27.5001 9.37512 27.5001Z" fill="white"/>
</svg>
