<svg width="30" height="30" viewBox="0 0 30 30" fill="none" xmlns="http://www.w3.org/2000/svg">
<path d="M0.10681 13.203C1.33075 2.60128 12.4311 -3.23899 21.2843 1.88306C22.9652 2.8546 24.4229 4.15389 25.6167 5.74536C31.9201 14.1446 28.0312 26.645 18.1033 29.4653C8.32902 32.2463 -1.11379 23.7852 0.10681 13.203ZM7.28395 5.59872C2.31619 9.67591 1.44951 17.1784 5.34884 22.3753C9.24816 27.5712 16.4239 28.4758 21.394 24.3987C26.3508 20.3314 27.2189 12.806 23.3287 7.62157C19.4389 2.43867 12.2417 1.531 7.28395 5.59872Z" fill="white"/>
<path d="M17.2137 6.56824C17.891 5.87699 19.0744 4.75429 19.5447 4.30194C19.3959 4.29346 19.2395 4.29645 19.0768 4.3164C18.8188 4.54681 17.6506 5.7199 17.1217 6.43111C17.1651 6.46103 17.1975 6.51887 17.2137 6.56824Z" fill="black"/>
<path d="M16.388 6.53285C17.0954 5.77826 16.9008 5.9857 17.3033 5.55479C16.5507 6.61511 16.5192 6.65903 16.5192 6.65903L16.5006 6.68444C16.595 6.61362 16.71 6.53179 16.8116 6.47494C17.1793 5.91236 18.1609 4.8915 18.6503 4.40672C18.1419 4.56083 17.8309 4.7897 16.8478 5.66499C16.7166 5.91535 16.5516 6.22064 16.388 6.53285Z" fill="black"/>
<path d="M15.2212 10.9806C15.7674 10.5846 16.2234 10.1991 16.6841 9.76764C16.3798 10.1237 16.0907 10.442 15.7201 10.8025C16.242 10.5228 16.5286 10.2046 16.7638 9.90486C16.4585 10.4126 16.1108 10.7911 15.5618 11.1148C15.816 11.0754 16.0202 11.0639 16.1423 11.0739C16.8086 10.4479 17.4969 9.66888 18.074 8.95069C17.6133 9.11179 16.7747 9.44395 15.9906 9.96414C15.774 10.3192 15.4945 10.6754 15.2212 10.9806Z" fill="black"/>
<path d="M15.8336 12.5501C15.8469 12.9047 15.8321 13.2344 15.7348 13.6384C15.7797 13.596 15.824 13.5521 15.8703 13.5087C15.9037 13.1621 15.8784 12.8554 15.8336 12.5501Z" fill="black"/>
<path d="M5.1764 17.8826L5.18976 17.7115C5.18308 17.7679 5.17498 17.8248 5.16687 17.8811L5.1764 17.8826Z" fill="black"/>
<path d="M13.1227 16.6143C13.0941 16.6298 13.0292 16.6722 12.94 16.7161C13.0917 16.8662 13.3875 16.7784 13.4523 16.5171C13.3593 16.5764 13.2267 16.6497 13.1227 16.6143Z" fill="black"/>
<path d="M12.7759 18.0621C12.9218 18.3419 14.0251 20.4332 14.1806 20.7284L12.8894 17.9998C12.7568 18.0721 12.7869 18.0567 12.7759 18.0621Z" fill="black"/>
<path d="M5.33341 17.535L5.28905 17.8951L5.29811 17.8966C5.31051 17.7739 5.32292 17.6537 5.33341 17.535Z" fill="black"/>
<path d="M29.8569 19.527L28.6115 19.6003C28.571 19.5749 28.5237 19.5534 28.467 19.5395C28.2113 19.4771 24.8176 18.1201 24.3998 17.9375C24.2514 17.8727 24.208 17.7824 24.0878 17.761C24.0969 17.5321 23.8603 17.2777 23.6361 17.0682C23.4682 16.9141 21.9757 15.4069 20.6788 14.1007C20.84 14.0698 21.0008 14.0359 21.1615 14.0005C21.328 13.2947 21.3185 12.6234 21.1835 11.9292C21.3862 12.584 21.4725 13.2583 21.3957 13.9466C21.8498 13.8394 22.3368 13.7062 22.7799 13.5436C22.8138 12.9032 22.7179 12.3167 22.519 11.7187C22.7761 12.2713 22.9345 12.8045 22.9884 13.4648C23.8307 13.1252 24.2552 12.7476 24.2538 12.3367C24.2538 12.0549 24.135 11.792 23.9037 11.5561C23.1653 10.804 21.3008 10.3701 19.0375 10.4235C18.3397 10.4404 17.6586 10.4774 17.0094 10.5297C18.5873 8.85147 21.5617 4.93291 20.5667 4.34739C19.9867 4.00675 18.6645 3.81023 17.5827 4.73041C17.5584 4.75036 17.5341 4.77126 17.5083 4.79121C17.5627 4.4406 17.5746 3.99376 17.257 3.8611C16.646 3.60375 15.3557 3.57132 14.5 4.57379C12.687 6.59668 10.7967 9.55871 9.48788 11.7821C9.36625 11.9192 9.24701 12.0723 9.12824 12.2404C8.44425 13.213 8.14136 14.1616 8.07077 14.2917C7.76407 14.8683 7.7655 14.8742 7.77361 14.963C7.77885 15.0214 7.79937 15.0807 7.83419 15.1426C7.82465 15.1925 7.47311 15.9047 7.7655 16.2029C7.78697 16.3431 7.82894 16.4702 7.89524 16.575C7.86138 16.578 7.82894 16.5819 7.79508 16.5874C7.53274 16.3969 5.81846 15.1625 5.81417 15.1596C5.48839 14.9137 5.31286 14.979 5.22224 15.4553C5.20984 15.5176 5.21651 15.5895 5.2518 15.6573C5.21794 15.8852 5.17072 16.2129 5.10872 16.6543C5.07342 16.6413 5.0529 16.6343 5.0529 16.6358C5.05433 16.6398 4.95989 17.0019 4.96514 17.0059C4.96514 17.0074 5.00044 17.0144 5.0572 17.0258C5.0219 17.2732 4.98279 17.5505 4.93938 17.8572L4.87594 17.8488C4.87594 17.8488 4.87738 17.9729 4.88549 18.0806L4.83826 17.9605L3.96586 17.9829C3.98494 18.2118 3.99162 18.2956 3.99162 18.2956C3.99305 18.3166 3.99591 18.3365 3.99734 18.3565L4.89216 18.1585C4.89359 18.1654 4.89359 18.1724 4.89502 18.1794C4.39991 21.724 4.3608 21.7394 4.45667 21.9753C4.30261 22.2611 2.6098 24.0565 2.58309 24.0959L1.97589 24.2954C1.92152 24.3139 1.88909 24.3703 1.89863 24.4281C1.90674 24.4805 1.94727 24.5204 1.99736 24.5259L1.99068 24.6391L2.14618 24.5373C2.14188 24.5822 2.12996 24.6231 2.11661 24.65C2.16908 24.6376 2.22726 24.6037 2.2721 24.5668C2.26924 24.5892 2.26495 24.6091 2.26113 24.6221C2.31122 24.6061 2.36511 24.5712 2.40709 24.5358C2.40041 24.5882 2.39087 24.6361 2.38276 24.67C2.42855 24.6416 2.4896 24.5952 2.54637 24.5413C2.5435 24.5682 2.53968 24.5892 2.53682 24.6036C2.57212 24.5822 2.6222 24.5468 2.66799 24.5044C3.20746 24.3857 4.52155 22.7967 4.76386 22.4601C4.83541 22.3583 4.8788 22.2541 4.8893 22.1608C5.03812 22.1324 5.18837 21.9883 5.19219 21.6232C5.19362 21.4821 5.29521 20.3524 5.41827 19.0462C5.64389 19.8477 6.36604 20.32 6.90121 20.0257C6.85828 21.1923 6.67274 26.1757 6.65413 26.5642C6.68752 26.1812 7.2909 21.3818 7.434 19.9988C7.58806 20.0188 7.73974 19.9988 7.8857 19.931C7.93865 19.924 7.99111 19.914 8.04405 19.903C8.29542 24.5214 8.25202 24.5343 8.41324 24.7633C8.29113 25.1448 6.81869 27.5103 6.79198 27.5781L6.15616 27.9642C6.0498 28.029 6.10656 28.2031 6.22962 28.1831L6.24012 28.3203L6.39704 28.1522C6.40133 28.2085 6.39418 28.2609 6.38369 28.2978C6.42805 28.2739 6.4891 28.223 6.54061 28.1507C6.54157 28.1801 6.54061 28.2101 6.53775 28.2285C6.58115 28.2001 6.63649 28.1462 6.68514 28.0759C6.68752 28.1407 6.68657 28.2031 6.68227 28.247C6.7295 28.1986 6.78769 28.1253 6.83777 28.0445C6.84063 28.0784 6.84063 28.1123 6.8392 28.1322C6.88499 28.0884 6.9284 28.0305 6.96369 27.9766C7.5666 27.6474 8.65364 25.5932 8.82965 25.2071C8.8888 25.076 8.91312 24.9498 8.9012 24.844C8.99325 24.8086 9.21218 24.67 9.12299 24.1952C9.07958 23.9688 8.82536 21.4566 8.6441 19.6442C9.1311 19.326 9.46498 18.8058 9.52556 18.2278C9.75976 18.2956 10.003 18.3674 10.241 18.4382C10.3331 18.7519 10.5196 18.9924 10.8334 18.9515C11.4607 18.8692 11.6591 18.4921 11.5146 18.0043C11.7812 18.4667 12.3002 18.332 12.5639 18.1245C13.2236 19.5016 13.8942 20.911 13.9458 21.0606C14.0578 21.3828 14.2839 21.4566 14.4595 21.4172C14.5014 21.4975 14.584 21.5738 14.6989 21.6347C14.8883 21.7334 17.008 22.7174 17.7449 22.6242C17.8074 22.6411 17.8656 22.6496 17.9071 22.6526C17.899 22.6411 17.8856 22.6242 17.8723 22.6017C17.9548 22.6301 18.0397 22.6481 18.1103 22.6541C18.0869 22.6271 18.0573 22.5888 18.0316 22.5479C18.1074 22.5733 18.1833 22.5778 18.2386 22.5693C18.2319 22.5623 18.2209 22.5494 18.209 22.5294C18.2858 22.5524 18.364 22.5538 18.4184 22.5424C18.3955 22.5239 18.3683 22.4945 18.3469 22.4616L18.5658 22.487L18.5195 22.4067C18.6388 22.3573 18.5982 22.1718 18.4709 22.1788L17.68 22.2272C17.6409 22.2042 15.0733 21.2517 14.8692 21.096C14.8935 20.9125 14.78 20.6916 14.665 20.505C14.5701 20.3484 13.6782 18.7365 12.9207 17.3764C12.9236 17.2732 12.9088 17.1645 12.8735 17.0682C13.2479 17.136 13.5589 16.763 13.6524 16.364C13.9214 16.152 14.2267 15.9107 14.5501 15.6573C15.5331 17.7016 16.7714 20.293 16.8525 20.5279C16.9918 20.9294 17.2718 21.0182 17.4883 20.9674C17.4935 20.9659 17.5002 20.9644 17.5069 20.9634C17.5546 21.0706 17.66 21.1708 17.8155 21.2531C18.0788 21.3928 20.8009 22.6471 21.7296 22.5394C21.8136 22.5748 21.9013 22.5987 21.9676 22.6087C21.9419 22.5803 21.9109 22.5409 21.8823 22.5C22.001 22.5563 22.1298 22.5932 22.2314 22.6102C22.188 22.5678 22.1336 22.5055 22.0893 22.4421L22.1122 22.4346C22.2109 22.4845 22.3177 22.504 22.3988 22.5015C22.3745 22.4776 22.3449 22.4431 22.3192 22.4052C22.4298 22.4591 22.5476 22.4746 22.6325 22.4646C22.5882 22.4347 22.5352 22.3853 22.4961 22.3289L22.5085 22.3259L22.8248 22.3922L22.7327 22.2636C22.8763 22.2227 22.8357 22.0207 22.7031 22.0292L21.6647 22.0915C21.6309 22.0701 21.5903 22.0531 21.5417 22.0416C21.328 21.9883 18.4833 20.8502 18.1332 20.6975C18.0602 20.6661 18.0278 20.6337 17.9844 20.6028C18.0263 20.3709 17.8761 20.0796 17.7273 19.8362C17.588 19.6088 16.1685 17.0413 15.1382 15.1935C15.5074 14.9037 15.8804 14.6099 16.2348 14.3341C16.4685 14.378 16.7146 14.4159 16.9674 14.4413C17.0623 14.1306 17.1067 13.8857 17.1392 13.6274C17.1773 13.5975 17.215 13.568 17.2517 13.5396C17.2517 13.8164 17.2365 14.1077 17.1706 14.4598C17.2097 14.4628 17.2489 14.4658 17.288 14.4668C17.8828 15.7097 18.4361 16.8772 18.4833 17.0134C18.5939 17.3355 18.82 17.4089 18.997 17.3695C19.039 17.4503 19.1215 17.5265 19.2364 17.5869C19.4258 17.6861 21.5455 18.6702 22.2824 18.5769C22.3382 18.5924 22.4003 18.6023 22.4437 18.6048C22.4355 18.5939 22.4232 18.5769 22.4098 18.5554C22.4923 18.5839 22.5758 18.6008 22.6464 18.6063C22.6235 18.5794 22.5949 18.543 22.5677 18.5006C22.6435 18.526 22.7208 18.53 22.7761 18.5215C22.7694 18.5145 22.7585 18.5016 22.7465 18.4836C22.8233 18.5046 22.902 18.5061 22.9559 18.4946C22.933 18.4761 22.9059 18.4467 22.883 18.4158L23.1033 18.4398L23.0575 18.3589C23.1763 18.3096 23.1358 18.1246 23.0089 18.133L22.2161 18.1794C22.2161 18.1794 20.2639 17.4413 19.5026 17.1091C19.462 17.0922 19.4377 17.0727 19.4134 17.0543C19.412 17.0528 19.4096 17.0512 19.4067 17.0482C19.431 16.8662 19.3161 16.6443 19.2026 16.4578C19.1267 16.3346 18.5129 15.2289 18.0912 14.4668C18.2777 14.4543 18.5658 14.4244 18.7523 14.402C18.8224 14.0883 18.8701 13.7107 18.8768 13.2937C18.9188 13.3401 18.9607 13.3885 19.0037 13.4364C19.0132 13.7516 19.0146 14.0174 18.9727 14.375C19.2135 14.3456 19.4702 14.3087 19.7377 14.2678C21.1644 15.8822 22.7327 17.6692 22.8586 17.8502C23.0561 18.1355 23.3399 18.2502 23.6185 18.1585C23.6294 18.154 23.6428 18.15 23.6576 18.147C23.6872 18.2966 23.8212 18.4437 24.0392 18.5584C24.3525 18.724 27.576 20.2113 28.6845 20.0896C28.7875 20.1404 28.8929 20.1759 28.9793 20.1943C28.943 20.1589 28.8967 20.105 28.8538 20.0472L28.8805 20.0402C29.0198 20.115 29.1701 20.1689 29.2931 20.1968C29.2321 20.1419 29.1591 20.0627 29.0956 19.9794L29.1495 19.9649C29.2621 20.0302 29.3933 20.0641 29.493 20.0656C29.4472 20.0272 29.3957 19.9709 29.3566 19.907C29.4877 19.9893 29.6241 20.0257 29.7715 20.0232C29.7081 19.9848 29.6351 19.92 29.5826 19.8447L29.6232 19.8337L30 19.9369L29.865 19.7659L29.8936 19.7584C30.0234 19.722 29.9919 19.5185 29.8569 19.527ZM2.83589 24.1653C3.1278 23.8685 4.40135 22.4322 4.55971 22.2426C4.61217 22.1788 4.63126 22.1324 4.65272 22.0915C4.65701 22.0915 4.66225 22.0925 4.66368 22.0925C4.73285 22.282 3.34674 23.8191 2.83589 24.1653ZM4.96657 21.6207C4.96371 21.8017 4.91649 21.9215 4.84351 21.9289C4.83826 21.9289 4.83397 21.9299 4.82872 21.9299C4.78246 21.8781 4.72331 21.8566 4.65558 21.8551C4.60979 21.6856 4.63269 21.6985 5.11778 18.2193C5.12732 18.2193 5.13542 18.2178 5.14496 18.2178L4.90456 21.0422L5.25038 18.2108C5.2561 18.2093 5.26278 18.2093 5.26945 18.2093C5.12588 19.7275 4.968 21.4327 4.96657 21.6207ZM5.17501 17.8827L5.16548 17.8812C5.17359 17.8248 5.18169 17.7679 5.18837 17.7116L5.17501 17.8827ZM16.1403 11.0739C16.0182 11.0639 15.8141 11.0754 15.5599 11.1148C16.1089 10.7911 16.4566 10.4126 16.7619 9.90486C16.5267 10.2046 16.24 10.5228 15.7182 10.8026C16.0888 10.442 16.3779 10.1237 16.6822 9.76764C16.2214 10.1991 15.7654 10.5846 15.2193 10.9806C15.4926 10.6754 15.7721 10.3192 15.9887 9.96414C16.7728 9.44395 17.6114 9.11179 18.0721 8.9507C17.495 9.66888 16.8067 10.4479 16.1403 11.0739ZM14.0202 12.6743C13.0438 13.3132 11.6715 14.0783 10.5411 14.6648C11.7106 13.9481 12.656 13.3077 13.6782 12.5766C12.3922 13.401 11.2198 14.0967 9.74736 14.8698C11.1607 13.8109 13.2169 12.2674 13.2169 12.2674C14.1065 11.6364 15.3071 11.3566 15.8804 11.3113C15.3328 11.7935 14.6283 12.2813 14.0202 12.6743ZM15.8336 12.5501C15.8784 12.8554 15.9037 13.1621 15.8703 13.5087C15.824 13.5521 15.7797 13.596 15.7348 13.6384C15.8321 13.2344 15.8469 12.9047 15.8336 12.5501ZM15.2546 14.0982C15.0867 14.2593 14.9288 14.4119 14.78 14.5531C14.5854 14.2069 14.4432 13.9551 14.3474 13.79C14.531 13.8618 14.8487 13.9805 15.2546 14.0982ZM12.6479 8.99164C12.6398 8.90386 12.6178 8.81909 12.5735 8.74279C12.645 8.37671 13.9324 6.6306 14.292 6.46103C14.4146 6.65754 14.1676 7.36975 14.0903 7.5483C13.9806 7.83557 13.8427 8.14873 13.6915 8.44698C13.6524 8.48837 13.6143 8.52929 13.5766 8.57019C13.2899 8.70185 12.9465 9.09036 12.6384 9.5073C13.0142 8.60109 13.4092 7.88195 13.8499 7.18072C13.3982 7.77173 13.0209 8.32732 12.6479 8.99164ZM14.9407 7.48041C14.915 7.67941 14.8907 7.99468 14.9178 8.1842C14.8153 8.3019 14.6732 8.46997 14.5921 8.60413C14.1757 8.40763 12.9031 9.69834 12.4881 10.1098C13.2737 9.22354 14.1079 8.32428 14.9407 7.48041ZM15.1449 7.69388C15.1587 7.54825 15.1854 7.33033 15.2288 7.19168C15.6004 6.82162 15.9753 6.46104 16.3483 6.11591C16.147 6.49495 15.8818 6.99665 15.7373 7.34328C15.5994 7.47195 15.4707 7.59916 15.3409 7.73033C15.4979 7.35877 15.6739 7.09594 15.879 6.84108C15.6195 7.06601 15.3815 7.31334 15.1449 7.69388ZM16.9975 6.64459C17.0137 6.69546 17.0189 6.81313 16.9202 7.063C16.915 7.06748 16.9135 7.07045 16.9135 7.07045C16.801 7.34925 16.593 7.70242 16.5687 7.73733C16.3688 8.0655 16.1132 8.43154 15.898 8.71432C15.6018 8.76669 15.2112 9.08637 14.9813 9.28836C15.1249 9.1133 16.1861 7.81661 16.3092 7.66549C16.1294 7.84803 14.895 9.10032 14.7352 9.26142C14.78 9.1088 14.8058 8.94072 14.7499 8.7921C14.8921 8.42154 16.593 6.77476 16.9975 6.64459ZM13.0576 11.7726C13.2951 11.5023 13.5413 11.204 13.7616 10.9143C14.1108 10.4873 15.433 8.98014 15.9643 8.94324C16.074 8.93625 16.0912 8.97869 16.0969 8.99415C16.2052 9.26297 15.6505 10.2978 14.5148 11.3721C13.4335 11.7327 13.0533 12.0988 12.1256 12.796C13.0128 11.9871 13.6724 11.2903 14.1771 10.7417C13.9877 10.9227 13.6009 11.2943 13.0576 11.7726ZM14.1308 8.97718C14.4242 8.78367 14.4948 8.81754 14.4986 8.81904C14.5324 8.84896 14.5501 8.89239 14.5539 8.95473C14.584 9.4001 13.8632 10.4295 13.5899 10.7616C12.6393 12.014 12.1814 12.386 9.58376 14.5152C9.85707 14.2354 11.6472 12.3945 11.9324 12.1018C9.00661 14.7665 9.04572 14.768 8.89022 14.7895C8.94555 14.5845 9.02569 14.3625 9.08102 14.2324C9.12013 14.1331 9.10916 14.1561 9.21457 14.0204C9.73544 13.391 12.853 9.82154 14.1308 8.97718ZM9.12443 15.4777C9.02951 15.6164 8.73329 15.6024 8.67796 15.3236C8.67129 15.2897 8.6794 15.2443 8.69132 15.2164C8.77384 15.3745 8.92839 15.4777 9.12443 15.4777ZM12.3731 13.8773C11.8404 14.3441 10.8482 15.1895 10.2367 15.5286C9.54989 15.9091 8.85493 16.0802 8.12658 15.8129C9.65149 16.165 10.7237 14.9984 12.3731 13.8773ZM18.3373 8.61707C18.1427 8.67492 17.1892 8.96871 16.2052 9.55273C16.2143 9.53179 16.2238 9.50884 16.2319 9.4879L18.1532 8.44302L16.3254 9.16416C16.3335 9.10581 16.335 9.05394 16.3292 9.00556C17.5827 7.95372 18.7833 7.3882 19.4067 7.13933C19.0728 7.64156 18.6994 8.15025 18.3373 8.61707ZM19.6218 6.80714C19.1864 6.95976 17.899 7.47047 16.4971 8.57019C17.3175 7.66398 18.2658 7.09444 19.2527 6.70692C18.2696 7.01364 17.3409 7.48989 16.5348 8.21555C16.6011 8.1163 16.6688 8.01307 16.7337 7.90734C17.162 7.2116 18.2763 6.42263 18.9779 6.01865C19.8665 5.50795 20.272 5.14881 20.5314 4.89745C20.4709 5.30143 20.1465 5.97874 19.6218 6.80714ZM20.5033 4.59921C19.4272 5.66801 18.8038 5.70441 17.5856 6.68842C18.0545 6.1822 18.4723 5.82062 18.9822 5.44158C18.6645 5.6311 18.3979 5.80067 18.0464 6.065C18.593 5.53185 19.8284 4.35034 19.8408 4.33886C19.9829 4.3643 20.426 4.4815 20.5033 4.59921ZM19.0768 4.3164C19.2395 4.29645 19.3959 4.29346 19.5447 4.30194C19.0744 4.75429 17.891 5.87699 17.2137 6.56824C17.1975 6.51887 17.1651 6.46103 17.1217 6.43111C17.6506 5.7199 18.8188 4.54681 19.0768 4.3164ZM18.6483 4.40675C18.1589 4.89152 17.1773 5.91238 16.8095 6.47496C16.708 6.53182 16.593 6.61365 16.4986 6.68447C16.5 6.68447 16.5172 6.65905 16.5172 6.65905C16.5186 6.65755 16.5486 6.61513 17.3013 5.55482C16.8988 5.98573 17.0934 5.77828 16.386 6.53287C16.5496 6.22066 16.7146 5.91538 16.8458 5.66501C17.8289 4.78972 18.1399 4.56086 18.6483 4.40675ZM17.2341 5.0202C16.4337 5.69749 15.6076 6.47952 14.7962 7.29944C15.1749 6.82714 15.4735 6.5119 15.7306 6.24757C15.422 6.50192 14.945 6.90339 14.3407 7.55225C14.6732 6.87397 15.4602 6.10439 16.0521 5.63807C16.7933 5.05405 17.1124 4.66804 17.3109 4.39822C17.319 4.55932 17.2923 4.76884 17.2341 5.0202ZM17.2298 4.11992C16.4022 5.26652 15.7898 5.37927 14.8058 6.49345C15.2002 5.85856 15.5737 5.36927 16.0035 4.86754C15.9143 4.95083 15.7306 5.12192 15.4788 5.38625C15.7292 5.0501 16.551 3.95588 16.5577 3.9474C16.7499 3.95987 17.1449 4.02666 17.2298 4.11992ZM15.8317 4.01224C15.982 3.97533 16.1294 3.95435 16.271 3.94588C15.9481 4.37729 15.2179 5.33983 14.6975 6.065L15.4287 4.889L14.5286 5.95777C14.9436 5.22662 15.6481 4.24016 15.8317 4.01224ZM13.7607 6.23311C13.8375 5.98723 13.9162 5.74287 13.9768 5.54188C14.7108 4.64165 14.9598 4.36585 15.4449 4.1464C15.0504 4.68953 14.3312 5.74986 14.0889 6.31842C13.9997 6.38625 13.8942 6.48793 13.7807 6.60913C13.9834 6.07348 14.2119 5.64511 14.5081 5.18877C14.2324 5.51394 14.0078 5.81367 13.7607 6.23311ZM12.7314 7.17471C13.0128 6.7847 13.298 6.40167 13.5847 6.0341C13.4483 6.471 13.3033 6.94034 13.2317 7.26801C13.1072 7.4306 13.0075 7.5707 12.9102 7.71085L13.2103 6.63059L12.7409 7.62006C12.7247 7.45498 12.7194 7.28493 12.7314 7.17471ZM11.5337 8.91934C11.8485 8.44155 12.1733 7.96221 12.5043 7.49289C12.5153 7.66097 12.5367 7.84202 12.5668 7.98915L12.5611 7.99912L12.5692 8.00216C12.5816 8.06401 12.5964 8.12083 12.6112 8.16472C12.5353 8.28741 12.4409 8.45147 12.387 8.58564C12.0812 8.49836 11.6052 9.07494 11.3553 9.37618L12.2811 7.98519L11.5337 8.91934ZM7.99779 14.9306L8.00447 14.9236C8.42231 14.0344 11.5241 9.03105 12.2935 8.81759C12.3879 8.79066 12.5096 8.98564 12.3421 9.56118C12.3259 9.59111 12.3178 9.60654 12.3178 9.60654L12.3274 9.61057C12.2706 9.79161 12.1933 9.99111 12.1041 10.1961C11.0133 11.4345 9.92051 12.7476 8.99325 13.9282C8.95414 13.979 8.91885 14.0259 8.88641 14.0698L9.33382 13.0304L8.36698 14.7695C8.26824 14.8683 8.15472 14.9576 8.0288 15.0199C8.00066 14.9745 7.99541 14.9436 7.99779 14.9306ZM7.8628 15.5092C7.88856 15.5456 7.96535 15.5964 8.00733 15.5939C8.04262 15.6064 8.13039 15.584 8.1695 15.554C8.21434 15.7111 7.91956 15.8284 7.8504 15.5939C7.84229 15.5655 7.8504 15.5286 7.8628 15.5092ZM5.53705 15.2628C5.60048 15.2857 7.30569 16.5211 7.34098 16.5465L5.81703 15.7181L6.27255 16.0293C6.02929 15.8862 5.81273 15.7605 5.6725 15.6802C5.6062 15.5455 5.55756 15.3875 5.53705 15.2628ZM5.70876 15.971C6.04694 16.1665 6.62694 16.5071 7.15973 16.8238C6.98516 16.9271 6.82442 17.0582 6.67942 17.2238L5.99399 16.8872L5.88333 17.1799C5.88476 17.1759 5.91958 16.9425 5.91958 16.9425C5.91958 16.9425 5.78746 16.8942 5.62624 16.8363C5.65629 16.5266 5.68443 16.2358 5.70876 15.971ZM5.33341 17.535C5.32292 17.6537 5.31051 17.7739 5.29811 17.8966L5.28905 17.8951L5.33341 17.535ZM5.57758 18.7649C5.27756 18.4692 5.59237 17.8966 5.98588 18.0153C5.71448 18.2008 5.59142 18.4183 5.57758 18.7649ZM5.54515 17.925L5.52369 17.922C5.54802 17.6537 5.57376 17.3864 5.59809 17.1291C5.75597 17.159 5.8819 17.1814 5.88333 17.1799L5.86187 17.2363L6.51056 17.4119C6.44999 17.4727 6.39704 17.5435 6.35268 17.6223C6.02643 17.5405 5.72784 17.6637 5.54515 17.925ZM6.89072 23.4695C7.00806 21.3434 6.99852 20.8995 7.10441 19.8956C7.14209 19.9155 7.1812 19.9325 7.22031 19.9464C7.08533 20.9294 7.08008 21.3489 6.89072 23.4695ZM6.55778 18.332C6.22962 17.8742 6.79866 17.2253 7.26372 17.5405C6.83634 17.5799 6.56589 17.8517 6.55778 18.332ZM8.62407 25.1069C8.48861 25.4066 7.55181 27.1782 7.00138 27.6659C7.00567 27.6575 7.01235 27.6475 7.01903 27.6375C7.11251 27.5218 8.5549 25.08 8.61023 24.8989C8.63456 24.9049 8.6565 24.9089 8.67654 24.9104C8.67511 24.9568 8.66175 25.0236 8.62407 25.1069ZM8.9012 24.2401C8.93888 24.4465 8.90787 24.5952 8.81724 24.6246C8.72661 24.656 8.51055 24.878 8.49147 24.0142C8.48622 23.7708 8.34122 21.2217 8.25346 19.5749C8.40371 21.2132 8.60212 23.0102 8.76478 24.2939C8.63742 22.9778 8.46714 20.9135 8.36173 19.0941C8.39655 19.4407 8.84157 23.9249 8.9012 24.2401ZM7.85327 17.5106C7.70874 17.3749 7.54609 17.2762 7.38153 17.2208C7.53417 17.0583 7.70301 16.9735 7.90478 16.9241C7.59235 16.8986 7.31379 16.9949 7.09868 17.1715C7.08818 17.1715 7.07865 17.1715 7.06768 17.1715C7.38392 16.9156 7.77218 16.7784 8.1614 16.8039C8.24821 16.8423 8.34265 16.8563 8.44282 16.8533C8.69848 16.9286 8.92409 17.0797 9.08626 17.3141C9.03904 17.2962 8.99325 17.2777 8.94841 17.2592C8.83489 17.0822 8.63456 16.9381 8.38033 16.9186C8.51293 16.9834 8.60356 17.0712 8.6441 17.1375C8.19526 16.958 7.85327 16.7645 7.85327 17.5106ZM8.61739 19.3784C8.55109 18.7095 8.49671 18.1669 8.47238 17.9206C8.5239 17.9365 8.58067 17.952 8.64172 17.9689C8.636 18.0846 8.60117 18.1978 8.55777 18.2796C8.63074 18.2432 8.71708 18.1779 8.79006 18.0906C8.76716 18.2797 8.69943 18.4298 8.58877 18.5794C8.73759 18.4837 8.86304 18.3589 8.95128 18.1964C8.92266 18.4991 8.80103 18.7395 8.61167 18.9485C8.82011 18.8098 8.99325 18.6303 9.11488 18.3465C9.05097 18.6826 8.91169 18.926 8.69848 19.152C8.94699 18.9784 9.11727 18.7704 9.21887 18.5669C9.10916 18.8766 8.90501 19.1634 8.61739 19.3784ZM8.6565 17.6039C8.98371 17.7201 9.69632 18.0043 10.0502 18.1355C9.65816 18.0198 8.76716 17.758 8.37508 17.6493C8.20337 17.4358 8.13993 17.2393 8.12085 17.2098C8.18572 17.1984 8.17094 17.1939 10.5573 18.1554C9.91765 17.9899 9.19168 17.7485 8.6565 17.6039ZM11.3228 18.3874C11.3429 18.7081 10.9293 18.9131 10.7357 18.6587C11.0376 18.6572 11.2131 18.4607 11.2117 18.157C11.289 18.2193 11.3157 18.2871 11.3228 18.3874ZM11.4053 17.7315C11.382 17.6846 11.3567 17.6368 11.3281 17.5869C11.3405 17.5744 11.3538 17.5605 11.3672 17.5475C11.3753 17.6039 11.3877 17.6662 11.4053 17.7315ZM10.2205 17.747C11.2022 17.2478 11.6443 16.8986 12.3746 15.9954C11.9892 16.9719 11.1497 17.6069 10.2205 17.747ZM12.4762 17.9405C12.3135 18.0861 12.0378 18.0762 11.9214 17.8697C12.2162 17.9181 12.4447 17.8093 12.584 17.5051C12.6531 17.6592 12.6045 17.8233 12.4762 17.9405ZM14.1806 20.7284C14.0251 20.4332 12.9218 18.3419 12.7759 18.0621C12.7869 18.0567 12.7568 18.0721 12.8894 17.9998L14.1806 20.7284ZM12.9384 16.7161C13.0276 16.6722 13.0924 16.6298 13.1211 16.6143C13.225 16.6498 13.3576 16.5764 13.4506 16.5171C13.3858 16.7784 13.09 16.8662 12.9384 16.7161ZM12.7275 16.561C12.9546 16.0249 13.6548 14.371 13.8795 13.8409C13.8752 13.8493 12.3922 16.7276 12.3908 16.7321C12.4814 16.5002 12.9007 15.4523 12.9937 15.2204C13.6214 13.6529 13.682 13.4563 13.7607 13.3995C13.8227 13.4349 13.9591 13.6075 14.0039 13.6683C14.0092 13.7571 14.0039 13.8688 13.9849 13.9835C13.9849 13.9835 13.982 13.9875 13.9834 13.9905C13.9539 14.1645 14.0769 13.8519 12.7275 16.561ZM13.6052 15.6857C13.578 15.6149 13.5441 15.5555 13.5088 15.5062C13.7011 15.1256 13.8766 14.7765 14.0054 14.5261C14.085 14.6917 14.1699 14.8698 14.2596 15.0538C13.9982 15.3067 13.7807 15.5161 13.6052 15.6857ZM18.0454 20.9165C18.3197 21.0352 21.2426 22.2102 21.4902 22.2711C21.5145 22.2765 21.5498 22.2905 21.566 22.309C20.9793 22.2935 19.8284 21.8706 18.966 21.513C18.9698 21.513 20.3802 21.899 20.3841 21.9005C18.6684 21.2531 18.2414 21.123 17.8408 20.8372C17.8518 20.8287 17.8613 20.8187 17.8708 20.8093C17.91 20.8387 17.9615 20.8796 18.0454 20.9165ZM17.5369 19.9639C17.7344 20.2876 17.7759 20.4596 17.7611 20.5534C17.7559 20.5813 17.7463 20.6043 17.733 20.6197C17.6572 20.7075 17.5961 20.7145 17.5207 20.723C17.4935 20.7269 17.464 20.73 17.4382 20.7354C17.277 20.7738 17.142 20.6691 17.0647 20.4472C16.9732 20.1798 15.5708 17.2522 14.7337 15.5116C14.0431 14.0768 13.9267 13.8618 14.7123 15.3815C15.6467 17.1884 16.3335 18.5669 17.3175 20.4272C16.1795 18.1285 15.1816 15.9615 14.22 14.0259C14.976 15.3506 17.3476 19.6557 17.5369 19.9639ZM18.789 16.9156L17.5651 14.4783C17.6099 14.4798 17.6543 14.4797 17.6991 14.4797L18.789 16.9156ZM18.198 12.1571C18.21 12.2629 18.2858 12.4993 17.9896 12.6873C17.7735 12.8254 15.2245 14.8304 15.0233 14.9885C15.0204 14.983 15.018 14.9775 15.0137 14.9715C15.5966 14.4528 17.349 12.8908 17.9343 12.3691C17.6261 12.6165 15.2408 14.5236 14.9112 14.7865C14.9054 14.7795 14.9016 14.771 14.8973 14.7625C17.661 12.1062 18.0058 11.7272 18.1031 11.8235C18.168 11.8868 18.1871 12.0549 18.198 12.1571ZM18.7375 11.9731C18.789 12.1387 18.789 12.1387 18.8143 12.2334C18.8038 12.2235 18.7943 12.2135 18.7847 12.205C18.7728 12.1357 18.7728 12.1357 18.7375 11.9731ZM23.8484 17.7879C23.763 17.9081 23.6628 17.8951 23.5493 17.932C23.463 17.9619 23.2397 17.9974 23.0413 17.7116C22.8543 17.4428 19.8503 14.0459 19.6395 13.807C21.0547 15.3166 21.9404 16.2029 23.256 17.6692C21.7229 15.8298 20.8682 14.9521 18.8348 12.5796C20.0449 13.7825 23.2316 17.0104 23.4859 17.2463C23.9037 17.6338 23.8684 17.7579 23.8484 17.7879ZM24.4756 18.5091C25.6342 18.9754 26.6673 19.3824 27.4906 19.6133C26.4174 19.2298 24.9922 18.5076 23.9538 18.0153C24.116 17.9545 24.0578 18.0452 24.312 18.1554C24.7475 18.3465 28.1426 19.7035 28.4155 19.7699C28.4913 19.7883 28.5156 19.8153 28.5443 19.8607C27.6041 19.8646 25.3814 18.929 24.4756 18.5091Z" fill="#E6E6E6"/>
<path d="M6.65413 26.5642C6.6527 26.5757 6.65156 26.5871 6.65156 26.5871C6.65156 26.5871 6.6527 26.5842 6.65413 26.5642Z" fill="black"/>
<path d="M2.28323 16.9664L3.23671 16.746C3.23385 16.8083 3.23003 16.8547 3.23003 16.8547C3.23003 16.8547 3.84105 16.8153 3.95982 16.8053L3.95457 16.8592L4.98103 16.941L4.99439 16.7076L3.99225 16.4702L3.97079 16.6851C3.96697 16.6258 3.96124 16.5679 3.96124 16.5679C3.92881 16.5634 3.24863 16.5056 3.24863 16.5056C3.24863 16.5056 3.24339 16.5934 3.24052 16.6782L3.20809 16.6158L2.24554 16.8308C2.19689 16.8462 2.1926 16.9649 2.28323 16.9664Z" fill="#E6E6E6"/>
<path d="M3.92552 18.0662L3.01831 18.1963L3.09844 18.5699L3.99325 18.2956L3.92552 18.0662Z" fill="#CCCCCC"/>
<path d="M1.48025 19.2457C1.48025 19.2457 2.01018 18.9245 2.1113 18.8606L2.13037 18.9105L3.08339 18.5061L2.99562 18.2911L1.99778 18.5444L2.07076 18.7479C2.04118 18.6971 2.01161 18.6472 2.01161 18.6472C1.98156 18.6587 1.34765 18.9245 1.34765 18.9245C1.34765 18.9245 1.38151 19.0053 1.41395 19.0831L1.35814 19.0417L0.590206 19.6836C0.551094 19.7205 0.599741 19.8292 0.680828 19.7883L1.44066 19.1449C1.46403 19.2018 1.48025 19.2457 1.48025 19.2457Z" fill="#CCCCCC"/>
<path d="M11.6749 28.5168L8.92607 27.5258L17.2833 2.20275L20.0321 3.19374L11.6749 28.5168Z" fill="white"/>
<path d="M20.6149 4.23414C20.0358 3.8935 18.7122 3.69699 17.6304 4.61716C14.7914 6.93031 11.2975 10.9452 9.04232 13.8154C8.6054 14.374 8.60684 14.3765 8.60159 14.4782C8.59587 14.573 8.62735 14.6733 8.69603 14.785L8.64213 14.8543C8.69221 14.8912 8.74468 14.9152 8.79906 14.9276C8.85677 14.997 8.92737 15.0707 9.01132 15.1486C9.22453 15.3451 9.51024 15.3391 9.68052 15.2713C10.4346 14.9421 14.0516 13.0434 15.8231 11.593C17.7983 9.97713 21.7272 4.88899 20.6149 4.23414ZM19.6666 6.69542C19.2287 6.84953 17.9523 7.35723 16.561 8.44598C17.3575 7.58466 18.1904 7.02907 19.3003 6.59367C18.25 6.92184 17.41 7.37123 16.5772 8.11235C16.6693 7.9752 16.7384 7.86594 16.8033 7.75871C17.2602 7.07294 18.2862 6.33233 19.0275 5.90541C19.9318 5.38522 20.3363 5.02169 20.5958 4.76883C20.5404 5.17181 20.1875 5.87549 19.6666 6.69542ZM18.385 8.50534C17.7821 8.67641 16.9626 9.02257 16.2528 9.44101C16.2624 9.41857 16.2719 9.39712 16.281 9.37617L18.2028 8.32978L16.3731 9.05099C16.3812 8.99314 16.3826 8.94077 16.3788 8.89239C17.6266 7.84504 18.8257 7.27797 19.4491 7.0276C19.1343 7.5029 18.7704 8.0061 18.385 8.50534ZM16.1894 10.9606C16.0678 10.9512 15.8608 10.9636 15.6022 11.0035C16.2161 10.6499 16.5572 10.213 16.81 9.79161C16.4909 10.1991 16.157 10.4858 15.7659 10.6908C16.1174 10.3487 16.4179 10.0205 16.7303 9.65448C16.2691 10.0874 15.8336 10.4574 15.2698 10.8649C15.5851 10.5143 15.846 10.1661 16.0363 9.85242C16.6745 9.42849 17.4887 9.054 18.124 8.83456C17.4954 9.61907 16.8195 10.3726 16.1894 10.9606ZM10.5877 14.5516C11.733 13.8518 12.6927 13.203 13.7258 12.4638C12.4656 13.2708 11.2989 13.9665 9.80072 14.754C10.6593 14.1107 12.3559 12.8399 13.1768 12.2189C14.073 11.5432 15.3375 11.2449 15.9285 11.1985C14.5801 12.383 12.1694 13.7316 10.5877 14.5516ZM8.83245 14.4683L8.84199 14.4613C8.9288 14.3381 9.05424 14.17 9.21403 13.9635C9.48877 13.6144 12.0883 10.626 13.6013 9.31529C14.3922 8.63252 14.541 8.70337 14.5467 8.70587C14.8629 8.98018 13.8842 10.3502 13.6395 10.6484C12.7637 11.806 12.3101 12.2065 9.6438 14.392C10.0197 14.0105 10.6984 13.3077 11.9801 11.9885C9.01132 14.6947 9.06903 14.6847 8.90018 14.6792C8.86917 14.6323 8.8043 14.5137 8.83245 14.4683ZM14.9889 7.37721C14.9564 7.62858 14.944 7.90987 14.9655 8.06996C14.8262 8.23106 14.7141 8.37665 14.6454 8.49385C14.602 8.4729 14.5519 8.46397 14.4952 8.46995C14.1532 8.50387 13.3957 9.15125 12.5496 9.98415C13.3204 9.12183 14.1503 8.22507 14.9889 7.37721ZM16.3936 6.01012C16.1675 6.43555 15.9242 6.90039 15.7864 7.22706C15.6523 7.35275 15.5202 7.48142 15.3929 7.60909C15.5226 7.30087 15.6876 7.02512 15.9271 6.72837C15.6104 7.00218 15.3819 7.27643 15.194 7.58215C15.2092 7.39962 15.2374 7.21012 15.2741 7.08993C15.6485 6.71538 16.023 6.35326 16.3936 6.01012ZM18.696 4.2935C18.1808 4.80421 17.2183 5.81213 16.8572 6.36324C16.7718 6.41161 16.664 6.48648 16.5424 6.57974L17.3509 5.44157L16.4355 6.42016C16.5963 6.11294 16.7637 5.80368 16.8925 5.55481C17.8603 4.69099 18.1675 4.45459 18.696 4.2935ZM19.5936 4.18924C19.1248 4.63861 17.9404 5.76226 17.2617 6.45501C17.2455 6.40564 17.213 6.34784 17.1696 6.31841C17.6981 5.60871 18.8662 4.43366 19.1262 4.20324C19.2884 4.18329 19.4453 4.18076 19.5936 4.18924ZM20.5538 4.48604C19.4682 5.56182 18.8648 5.58427 17.6399 6.56978C18.1985 5.96181 18.6688 5.59723 19.0313 5.32841C18.6769 5.53937 18.3754 5.74134 18.104 5.94483C18.8286 5.23662 19.6614 4.44913 19.8898 4.22569C20.124 4.26809 20.478 4.38579 20.5538 4.48604ZM14.5629 11.2594C13.4864 11.6185 13.0862 11.997 12.167 12.6883C12.9292 11.993 13.5674 11.3442 14.2247 10.6285C13.8527 10.9851 13.4892 11.3227 13.1081 11.6579C13.3175 11.419 13.5674 11.1207 13.8112 10.8025C14.2519 10.2654 15.5011 8.86596 16.0134 8.83205C16.1231 8.82307 16.1393 8.86597 16.146 8.88144C16.2529 9.14826 15.7038 10.1806 14.5629 11.2594ZM15.9457 8.6026C15.6986 8.64649 15.3657 8.87993 15.0294 9.17519L16.3583 7.55225L14.7752 9.1567C14.8291 8.97166 14.8415 8.80908 14.7966 8.6819C14.8992 8.36221 16.6154 6.67003 17.0451 6.53188C17.0747 6.62514 17.0423 6.77173 16.9736 6.94579C16.9693 6.95028 16.9655 6.9528 16.9612 6.95728L16.9669 6.96276C16.7451 7.50589 16.1732 8.30435 15.9457 8.6026Z" fill="#E6E6E6"/>
<path d="M7.06326 27.9102L7.38618 28.1052C7.38618 28.1052 7.6199 27.8723 7.74868 27.7267C7.87699 27.581 8.71124 26.4315 9.00601 25.5721L8.72745 25.4135C8.72745 25.4135 7.7649 27.3152 7.06326 27.9102Z" fill="black" fill-opacity="0.4"/>
<path d="M3.07534 24.2729L3.3496 24.623C3.3496 24.623 3.73119 24.3502 4.04886 24.0026C4.3651 23.6549 5.18312 22.6425 5.34529 22.3752L5.09011 22.0221C5.09011 22.0221 4.9928 22.1438 4.88691 22.1607C4.88691 22.1607 4.51821 22.9128 3.07534 24.2729Z" fill="black" fill-opacity="0.4"/>
<path d="M25.0862 19.0361L24.8859 19.5832C24.8859 19.5832 26.5586 20.1458 27.7392 20.3029L27.8431 20.0016C27.8431 20.0016 25.6352 19.2765 25.0862 19.0361Z" fill="black" fill-opacity="0.4"/>
<path d="M13.7099 13.0193L13.4734 13.736C13.4734 13.736 15.9627 12.8413 17.2606 11.58L18.0056 9.32218C18.0056 9.32218 14.8704 12.3899 13.7099 13.0193Z" fill="black" fill-opacity="0.4"/>
<path d="M20.7213 5.09238C20.7213 5.09238 20.913 5.22505 21.0199 5.30585C21.0199 5.30585 20.9822 4.62853 20.7103 4.3233C20.7103 4.3233 20.8362 4.83803 20.7213 5.09238Z" fill="black" fill-opacity="0.4"/>
<path d="M16.0142 6.0424L16.1535 5.6195L17.2052 4.97066C17.2052 4.97066 16.2766 5.96459 16.0142 6.0424Z" fill="black" fill-opacity="0.4"/>
<path d="M0.723858 19.7473L0.783484 19.9293L1.47988 19.2804L1.50134 19.3627L2.12189 18.9483L2.14622 19.043L3.10256 18.6106L3.12403 18.6924L3.42834 18.5852L3.37158 18.4082L2.83736 18.5259L2.08946 18.7842L1.5934 18.9867L1.28097 19.2086L0.686175 19.6735L0.723858 19.7473Z" fill="black" fill-opacity="0.4"/>
<path d="M2.21545 16.924C2.21545 16.924 2.2145 16.9748 2.28175 17.0102C2.34805 17.0442 3.06877 17.0018 3.06877 17.0018L3.03109 16.7614L2.21545 16.924Z" fill="black" fill-opacity="0.4"/>
</svg>
