<svg width="30" height="30" viewBox="0 0 30 30" fill="none" xmlns="http://www.w3.org/2000/svg">
<path d="M2.4998 30C1.83339 30 1.25028 29.7502 0.750225 29.25C0.250173 28.7499 0 28.1666 0 27.5002V2.5002C0 1.8338 0.250173 1.25007 0.750225 0.750019C1.25028 0.249968 1.83339 0 2.4998 0H18.9161V2.50061L2.4998 2.5002V27.4998L27.4998 27.5002V11.0837H29.9998V27.5002C29.9998 28.1666 29.7498 28.7499 29.2498 29.25C28.7497 29.7502 28.1664 30 27.4998 30H2.4998ZM8.37509 23.4582V20.958L21.6667 20.9584V23.4586L8.37509 23.4582ZM8.37509 18.1667V15.6665L21.6667 15.6669V18.1667H8.37509ZM8.37509 12.8748V10.375H21.6667V12.8752L8.37509 12.8748ZM23.8332 9.83378V6.16679H20.1662V3.66658L23.8332 3.66699V0H26.333V3.66699H29.9998V6.1672L26.333 6.16679V9.83378H23.8332Z" fill="white"/>
</svg>
