<svg width="30" height="30" viewBox="0 0 30 30" fill="none" xmlns="http://www.w3.org/2000/svg">
<path d="M0.311 14.1778C0.103848 13.9311 0 13.6368 0 13.2941C0 12.9519 0.103848 12.6577 0.311 12.4108L5.20726 7.27375L2.99207 4.89074L1.98184 5.95863C1.74839 6.20497 1.47034 6.3288 1.14663 6.3288C0.822579 6.3288 0.543939 6.20497 0.311 5.95863C0.103848 5.73902 0 5.45836 0 5.11621C0 4.77407 0.103848 4.4793 0.311 4.23296L3.96368 0.370167C4.19662 0.123283 4.47557 0 4.7991 0C5.12315 0 5.40179 0.122942 5.63473 0.36928C5.84188 0.616163 5.94573 0.91073 5.94573 1.25342C5.94573 1.59611 5.84188 1.87641 5.63473 2.09584L4.62451 3.20546L6.83991 5.54763L11.7364 0.32889C11.9693 0.109459 12.2476 0 12.5712 0C12.8952 0 13.1739 0.109459 13.4068 0.32889C13.614 0.575228 13.7178 0.869997 13.7178 1.21214C13.7178 1.55484 13.614 1.84896 13.4068 2.09584L12.0856 3.49307L25.259 17.3832C25.6996 17.8765 25.9199 18.4653 25.9199 19.1502C25.9199 19.835 25.6996 20.4111 25.259 20.8763L23.3162 22.9313L30 30H26.736L21.684 24.6574L19.7408 26.712C19.3007 27.1778 18.7565 27.4106 18.109 27.4106C17.4612 27.4106 16.9041 27.1778 16.4379 26.712L3.30307 12.7801L1.98184 14.1778C1.74839 14.4241 1.47034 14.5479 1.14663 14.5479C0.822579 14.5479 0.543939 14.4241 0.311 14.1778ZM4.89647 11.0544L18.0703 24.9863L23.588 19.1502L20.2851 15.6576L17.565 18.5341C17.3575 18.7805 17.0917 18.9038 16.7682 18.9038C16.4445 18.9038 16.1791 18.7943 15.9714 18.5754C15.7385 18.3285 15.6216 18.034 15.6216 17.6913C15.6216 17.3491 15.7385 17.0543 15.9714 16.8076L18.6917 13.9314L15.3886 10.4379L12.6685 13.3145C12.4351 13.5614 12.1568 13.6847 11.8327 13.6847C11.5092 13.6847 11.2306 13.5614 10.9977 13.3145C10.7906 13.0956 10.6867 12.8148 10.6867 12.4721C10.6867 12.1299 10.7906 11.8357 10.9977 11.5888L13.7178 8.71226L10.4147 5.21919L4.89647 11.0544Z" fill="white"/>
</svg>
