<svg width="35" height="31" viewBox="0 0 35 31" fill="none" xmlns="http://www.w3.org/2000/svg">
<path fill-rule="evenodd" clip-rule="evenodd" d="M10.1086 20.4733C10.41 20.3925 10.0901 20.262 10.796 20.6354L10.5226 20.9275C10.3595 20.8155 10.2122 20.6277 10.1086 20.4733ZM21.8743 19.8666L23.2186 21.1913C23.0753 21.4003 21.8393 22.3476 21.5912 22.4139C21.8263 21.9697 21.7304 22.1381 21.6718 21.8889C22.2254 21.5962 21.8458 21.4746 21.7127 21.4034C21.7782 21.2797 21.8433 21.1145 21.9156 21.0001C21.9998 20.8659 22.1084 20.8181 22.1568 20.6354C21.8537 20.1817 21.803 20.4405 21.5508 20.15C21.5876 20.1 21.8158 19.906 21.8743 19.8666ZM20.1355 18.3307C20.1789 18.3679 20.1227 18.3251 20.202 18.385C20.5708 18.6645 20.772 18.6659 20.8226 18.8562L20.3019 18.7705C20.143 18.7467 20.1874 18.7373 20.0829 18.6662C19.988 18.6016 19.9723 18.6011 19.8523 18.5728C19.9351 18.4498 20.0148 18.4114 20.1355 18.3307ZM5.66106 15.0959V14.9347H7.56138C7.56138 16.3647 7.89315 16.9697 7.92537 17.3602C7.77797 17.3209 7.80162 17.199 7.19762 17.199C7.24515 17.2887 7.26476 17.3205 7.31887 17.4007C7.13623 17.3967 7.15818 17.3602 6.95489 17.3602C7.08555 16.7986 6.38859 17.2342 6.38859 17.5623C6.38859 18.1471 6.49626 18.208 6.67196 18.6541C6.77129 18.9052 6.903 19.3535 7.19762 19.422C6.99432 19.0375 6.76916 18.7365 6.84624 18.4276L6.87101 18.3103C6.87154 18.3073 6.87103 18.2964 6.87405 18.2899C7.07841 18.307 6.93067 18.2502 7.03855 18.3677C7.09463 18.4284 7.1775 18.6537 7.35907 18.7753C7.41675 18.6557 7.39949 18.6628 7.39949 18.4928C7.51716 18.5786 7.47624 18.4867 7.48033 18.6945C7.99604 18.8146 7.70731 18.7637 7.96579 18.6945C7.96579 19.2591 8.15841 18.9691 8.35867 19.3116C8.42685 19.4272 8.46929 19.509 8.5373 19.6185C8.67259 19.8355 8.65085 19.7283 8.85521 19.8262C8.90933 19.7141 8.89563 19.7482 8.89563 19.5837C9.06172 19.6953 9.73019 20.8669 10.2299 21.2009L8.86543 22.586C8.77054 22.4492 8.66655 22.3725 8.55512 22.2292C8.25676 21.8427 8.04337 21.6303 7.65939 21.1035C7.3986 20.7457 6.84432 19.7814 6.68891 19.4051C6.1141 18.0133 5.66106 16.6854 5.66106 15.0959ZM25.1491 22.5355L23.8049 21.2109L24.3236 20.6181C24.5048 20.389 24.6354 20.2086 24.8086 19.9709C25.2113 19.4184 25.3374 19.0802 25.6074 18.5458C26.0343 17.6992 26.4429 16.1936 26.4429 14.9347H28.3433C28.3433 16.4777 27.8539 18.258 27.3467 19.3151C26.9925 20.0519 26.5817 20.788 26.1029 21.4269C26.0434 21.5061 26.0125 21.5324 25.9575 21.6051C25.8051 21.8043 25.2985 22.4357 25.1491 22.5355ZM12.615 15.2172C12.7003 15.2747 12.8093 15.4122 12.879 15.4384C13.0843 15.5162 13.0522 15.388 13.2637 15.5388C13.3181 15.5783 13.3429 15.613 13.4075 15.6383C13.4453 15.6529 13.7009 15.6891 13.7474 15.7735C13.8065 15.8814 13.7605 15.7433 13.707 15.9452C13.9355 16.0059 13.979 16.1926 13.9958 16.0003C14.0209 15.7159 14.0599 15.8535 14.1114 15.6618C14.2319 15.7426 14.3519 15.8677 14.3943 16.0256C14.2818 16.08 14.3163 16.0664 14.1518 16.0664C14.1644 16.2167 14.2152 16.2803 14.2733 16.3898C14.4402 16.3009 14.4313 16.3399 14.5003 16.2194L14.5347 16.1616C14.6669 15.9891 14.5831 16.2265 14.6598 15.9682C14.7198 15.7663 14.6064 15.854 14.7583 15.7431C14.8103 15.9656 15.0038 16.1723 15.122 16.3489L13.7976 17.6527C13.5286 17.4665 13.197 16.9051 13.0466 16.6053C12.8401 16.1936 12.6832 15.7464 12.615 15.2172ZM7.96579 14.9347H9.86611C9.86611 15.3423 9.88588 15.2115 9.90653 15.4597C9.78334 15.4624 9.759 15.4779 9.66358 15.5001C9.63991 15.7858 9.48953 15.9332 9.24832 16.2168C9.0703 16.4258 9.13836 16.7834 9.13836 17.2385C8.82007 17.3126 8.79272 17.4007 8.36976 17.4007C8.35765 17.2518 8.27607 17.0245 8.23264 16.8504C8.09094 16.2811 7.96579 15.5437 7.96579 14.9347ZM23.5319 20.9184L23.2801 20.6846C23.4538 20.4353 23.4104 20.4364 23.3144 19.9631C23.3133 19.959 23.2792 19.8161 23.274 19.801L23.2014 19.6311C23.0969 19.4639 23.1136 19.5724 22.885 19.4624C22.8633 19.5562 22.8264 19.676 22.8148 19.7567C22.7906 19.9208 22.7955 19.9718 22.7633 20.1096C22.6134 20.0697 22.552 19.9589 22.45 19.8571C22.3416 19.7474 22.2393 19.6654 22.1568 19.5433C22.3724 19.4 22.7376 18.8955 22.8931 18.6623C23.0036 18.4959 23.1202 18.3415 23.209 18.169L23.4919 17.6036C23.8341 16.8406 24.1384 15.8168 24.1384 14.9347H26.0387C26.0387 15.2323 25.9865 15.601 25.9505 15.8978C25.8592 16.6588 25.5433 17.7368 25.2304 18.3716C24.9146 19.0135 24.5074 19.7848 24.0276 20.3217L23.5319 20.9184ZM10.6745 15.3784L10.8455 15.5314C10.7955 15.6939 10.7573 15.6424 10.7149 15.8235C10.3521 15.8235 10.3745 15.8961 10.3307 15.5614C10.3079 15.3894 10.2703 15.0799 10.2703 14.9347H10.796C10.7879 15.0294 10.7078 15.3102 10.6745 15.3784ZM11.9279 14.9347H12.1706C12.1706 15.8171 12.6702 16.9817 13.2156 17.6493C13.3374 17.7986 13.3646 17.7774 13.4644 17.9661L12.1398 19.3112C12.0641 19.2022 12.0208 19.1793 11.9396 19.0869C11.5772 18.6722 11.9409 18.6715 11.7951 18.3016C11.7723 18.243 11.7504 18.2068 11.7199 18.1347C11.5601 17.7538 11.6483 17.8229 11.6004 17.3641C11.5732 17.1048 11.3616 16.822 11.3616 16.7135C11.3616 16.4041 11.4844 16.6274 11.2553 16.1733C11.1494 15.9643 11.1189 15.8801 10.8768 15.8235C11.1098 15.3385 10.6496 15.2023 11.0765 15.0938L11.1756 15.0712C11.4157 14.9768 11.0812 14.9347 11.6852 14.9347C11.9808 14.9347 11.6623 15.4253 11.7134 15.6357C11.7723 15.8783 11.9274 15.964 11.7753 15.9625L11.6447 15.9052C11.6494 16.0948 11.7595 16.3853 11.9279 16.4302C12.039 15.967 11.8875 16.3834 11.8875 15.7431C11.8875 15.4534 12.0123 15.1223 11.9279 14.9347ZM21.8743 19.2599L21.7183 19.1326C21.7128 18.9448 21.7526 18.9525 21.7526 18.8157C21.7526 18.5638 21.6371 18.4536 21.6316 18.209C21.4518 18.3295 21.4266 18.5375 21.2676 18.6541L21.1511 18.5671C21.1613 18.3925 21.141 18.5131 21.2142 18.3981C21.5538 17.8631 21.3893 17.992 21.3893 17.8457C21.3893 17.7074 21.6571 17.3078 21.2676 17.0369C21.1087 17.0944 21.2631 17.0427 21.1057 17.1577C21.1396 17.0128 21.2031 16.9573 21.2763 16.8426C21.4792 16.5238 21.3152 16.5921 21.6064 16.405C21.6513 16.3767 21.6594 16.3687 21.6779 16.355C22.0252 16.1163 21.8304 16.1652 21.8743 16.0664C22.4682 16.1157 22.0983 16.1594 22.6099 15.9938C22.718 15.9591 22.8955 15.9137 23.0061 15.9052C22.9854 15.8172 22.9219 15.657 22.885 15.5814C23.2332 15.61 23.2185 15.8372 23.2084 15.3784C23.0241 15.3941 22.5141 15.7723 22.3194 14.9347H23.7338L23.5239 16.2602C23.2291 17.4325 22.7988 18.1397 22.0712 19.0526C21.9854 19.1596 21.9924 19.1812 21.8743 19.2599ZM12.1706 14.4892H11.6852C11.6585 14.3888 11.4251 14.1726 11.5861 13.8642C11.7007 13.6439 12.0601 13.7895 12.211 13.8021C12.211 14.0841 12.1706 14.1966 12.1706 14.4892ZM23.3698 13.8829L23.653 13.5596C23.653 13.7837 23.6837 13.8205 23.6927 14.0051C23.7029 14.2089 23.7308 14.3354 23.7338 14.4892H22.0358C22.0465 14.3657 21.9984 14.4102 22.2366 14.1646C22.3961 13.9995 22.3389 14.1308 22.6019 14.0046C22.5645 13.8649 22.5797 13.8799 22.44 13.8425V13.7612C22.7291 13.6947 22.6221 13.6 23.0465 13.6C23.1711 13.4143 23.1322 13.4468 23.3138 13.301C23.5324 13.1258 23.3639 13.0761 23.5319 12.9529C23.5319 13.4095 23.3698 13.4263 23.3698 13.8829ZM20.2569 12.2658C20.2756 12.3469 20.469 12.6567 20.263 12.5452C20.0355 12.4215 20.4564 12.4781 20.0546 12.2658C20.1844 11.9959 19.9987 11.9675 20.3378 11.7403C20.645 12.1996 20.6507 11.9907 20.6209 12.3466C20.3833 12.2829 20.5784 12.2319 20.2569 12.2658ZM12.1706 12.7108C12.2372 12.6786 12.4805 12.6375 12.5748 12.6295C12.4568 12.7915 12.3577 12.7507 12.1993 12.8607C11.9567 13.0283 12.0702 12.9937 11.6852 12.9937C11.659 13.0925 11.4995 13.3722 11.4429 13.4792C11.3268 13.6997 11.2243 13.7043 11.3616 13.9642C11.0786 14.1534 11.1195 14.2051 11.1195 14.4892H10.2703C10.2703 12.9926 10.8345 11.6525 11.6797 10.5212C11.8431 10.3023 11.9748 10.2094 12.0092 10.0823C12.2796 10.1049 13.029 11.1116 13.424 11.3761C13.3489 11.4886 13.2247 11.6192 13.135 11.7342C12.9433 11.9779 12.8352 12.2213 12.7565 12.3262C12.6506 12.4686 12.7474 12.4018 12.5526 12.4453C12.3305 12.4953 12.2292 12.4908 12.1706 12.7108ZM22.6019 11.3357C22.6019 11.6924 22.7526 11.6047 23.0656 11.8429C23.2007 11.9458 23.2846 12.2418 23.3457 12.4118C23.5203 12.9013 23.4032 12.7893 23.2423 12.9464C23.1089 13.0756 23.2034 13.0676 23.121 13.2302C23.0792 13.3129 22.9667 13.3833 22.885 13.4383C22.7932 13.4166 22.7922 13.4065 22.6827 13.3979C22.8887 13.0084 22.6559 13.1943 22.9254 12.7916C22.4021 12.01 22.2084 12.7967 22.1694 12.8442C22.1235 12.9007 22.0883 12.918 22.0358 12.9529C21.9112 12.8696 21.8728 12.8384 21.8333 12.6704C22.072 12.7336 21.8423 12.7598 22.076 12.7108C22.0548 12.6186 22.0449 12.6172 22.0358 12.5083H21.8743C21.846 12.6131 21.8894 12.5533 21.7931 12.5891C21.6911 12.4362 21.4362 12.0682 21.2676 12.0228C21.362 11.8941 21.3349 11.9901 21.4293 11.8616C21.2183 11.8121 21.3605 11.8434 21.1461 11.8616C21.1657 11.9529 21.2249 12.0058 21.0797 11.9772C20.9832 11.9585 20.7915 11.6532 20.6209 11.4574L21.945 10.1131C22.1271 10.2383 22.7042 10.9928 22.7633 11.2144C22.6492 11.2239 22.6019 11.2136 22.6019 11.3357ZM23.2892 9.55685C23.2892 9.70015 23.8597 10.0033 23.9163 10.0214C24.1515 10.0976 24.0119 9.97417 24.3505 10.3557L24.8662 10.9719C24.9625 10.926 25.1137 10.8774 25.2297 10.8507C25.2701 11.0237 25.3086 11.0759 25.3747 11.2318C25.7677 12.1604 26.0387 13.466 26.0387 14.4892H24.1384C24.1384 13.7586 23.9763 13.3102 23.9763 13.0341C23.9763 13.0039 24.0243 12.9803 24.0587 12.8733C24.2767 12.1967 24.0668 11.6566 23.8801 11.0284C23.83 10.8593 23.6146 10.5854 23.4889 10.4052C23.3159 10.1579 23.3573 10.3058 23.4915 10.1231C23.3966 10.0596 22.7714 9.58306 23.0908 10.074C23.3795 10.5182 23.6858 10.9163 23.8383 11.5148C23.8978 11.7499 23.945 12.318 24.0167 12.4679C23.8462 12.4638 23.8584 12.4492 23.7877 12.3331C23.544 11.9354 23.7377 12.0091 23.6706 11.8042C23.6222 11.657 23.6152 11.8251 23.5702 11.5395C23.5501 11.4114 23.5597 11.3631 23.4633 11.2822C23.2484 11.1026 23.481 11.3869 23.2618 11.1958C23.1796 11.1235 23.2059 11.041 23.231 10.9532C23.2947 10.7338 23.2644 10.95 23.3294 10.7698C23.2155 10.7148 23.2135 10.7401 23.0869 10.7698C23.1488 10.6402 23.1488 10.5752 23.0869 10.4465C22.8341 10.5136 23.0844 10.5028 22.885 10.6486C22.8209 10.4093 22.3965 10.0234 22.2785 9.79979C22.8179 9.23566 22.6887 9.23514 23.1666 9.31738C23.4103 9.35939 23.2892 9.44933 23.2892 9.55685ZM23.8957 8.14176L25.2204 6.79709C25.3142 6.93291 25.4186 7.01113 25.53 7.1539C25.6326 7.28563 25.7364 7.39277 25.8456 7.52592C26.0474 7.77123 26.2331 8.0278 26.4108 8.29518C27.5613 10.0244 28.3433 12.1504 28.3433 14.4892H26.4429C26.4429 13.0149 26.0142 11.4699 25.4727 10.4465C25.4782 10.4435 25.4897 10.4365 25.4918 10.4426C25.4918 10.4426 25.5645 10.4389 25.6341 10.3652C25.5807 10.1644 25.022 9.30503 24.8686 9.14962C24.708 8.98709 24.5164 8.87928 24.3505 8.69806C24.254 8.59321 24.2343 8.54079 24.1282 8.43469C24.0061 8.31221 23.9876 8.27901 23.8957 8.14176ZM7.52097 14.4892H5.66106C5.66106 12.5531 6.23437 10.5072 7.10896 9.064L7.61745 8.23825C7.79404 7.97283 7.98137 7.74203 8.1731 7.50028C8.33812 7.29183 8.60652 6.94672 8.81479 6.80752L10.1395 8.11091C10.0891 8.19066 9.99161 8.29192 9.9124 8.39036C9.27243 9.18253 9.02837 9.43441 8.531 10.4048C7.85329 11.7258 7.64665 12.9759 7.52097 14.4892ZM18.8823 11.9828C18.9394 11.8976 18.9914 11.8893 18.9829 11.8142C18.9546 11.5477 18.6574 12.038 18.5589 12.1041C18.6508 12.3574 18.7553 12.295 18.7608 12.5487C18.5262 12.4362 18.4908 12.5863 18.2873 12.4996C18.1063 12.4213 18.0853 12.3243 17.8718 12.3062C17.8718 12.994 17.8314 13.6054 17.8314 14.328C18.623 14.5122 19.6343 15.0514 20.0153 15.7822C20.4716 16.6582 20.2373 17.768 19.4138 18.3368C18.8401 18.7334 18.2576 18.7686 17.7097 19.0583V20.1096C18.0235 20.1827 18.5805 20.5955 18.7914 20.8062C19.5186 21.5329 19.7589 23.1752 19.1917 23.4109C18.9772 23.4997 17.9271 23.6673 17.6284 23.6673V24.0715C19.2891 24.0715 21.0175 23.3167 22.3194 22.4547L23.2084 21.7672C23.3189 21.6822 23.382 21.5979 23.4915 21.5242C23.654 21.5682 23.7338 21.706 23.8453 21.818C24.0285 22.0012 24.7757 22.6707 24.8258 22.8589C24.6652 23.0773 24.3382 23.3076 24.1152 23.4826C22.7457 24.5596 21.2278 25.3686 19.4859 25.7264C18.682 25.8915 17.8525 26.0145 17.0224 26.0128C14.3842 26.0095 11.9466 25.1086 9.92913 23.523C9.67546 23.3232 9.44331 23.0764 9.17878 22.8993L10.5226 21.5338C10.631 21.6039 10.678 21.6814 10.7864 21.7772L11.7256 22.4951C12.6379 23.1011 13.6699 23.5895 14.782 23.8455C15.0787 23.914 15.4239 23.9833 15.6999 24.0202C16.4078 24.1142 16.2946 24.1962 16.2946 23.6673C15.176 23.5743 14.0139 23.2562 13.1943 22.8459C12.4153 22.4558 11.7627 22.0459 11.1067 21.4964C10.9746 21.3859 10.9348 21.3891 10.8364 21.2417L11.1684 20.8858C11.3133 20.9135 11.4913 20.9228 11.6447 20.9588C11.9066 20.5677 12.2174 20.6754 12.6561 20.6754C12.6701 20.5054 12.7015 20.5424 12.7367 20.3925C13.2843 20.6821 13.6632 21.0062 14.2959 21.2595C14.7626 21.4463 15.2142 21.5703 15.7049 21.6698C15.8466 21.6985 16.1716 21.7278 16.2544 21.7672V21.3226C15.3213 21.3226 13.9413 20.7321 13.2328 20.22L12.4536 19.6245L13.7976 18.2594C14.1664 18.4926 14.4609 18.8704 14.9202 18.9774C14.9584 18.8108 15.028 18.7323 15.0412 18.5728C14.8272 18.5235 14.2112 18.1154 14.1114 17.9661L15.4354 16.6223C15.6045 16.7383 15.9481 16.9773 16.1731 16.996V16.5519C15.9734 16.5049 15.8886 16.3918 15.7285 16.3489C15.8345 16.1915 16.0389 16.1054 16.0925 15.9052C15.9209 15.8904 15.8088 15.821 15.6477 15.783L15.4148 16.0351C14.8727 15.2611 15.1941 15.7062 14.3695 15.1611C13.4506 14.5541 13.1243 13.7224 13.1809 12.5483C13.2065 12.0194 13.435 11.5397 13.707 11.134L12.3634 9.76807C12.3997 9.72178 12.6489 9.4977 12.708 9.44733C12.8266 9.34639 12.9803 9.2374 13.1005 9.15266C13.378 8.95595 13.635 8.80411 13.9629 8.64069C14.5792 8.3329 15.2936 8.04026 16.0117 7.98009V7.5759C15.6574 7.5759 15.112 7.73564 14.8133 7.83319C14.3933 7.96991 14.1415 8.08589 13.7878 8.26302C13.3769 8.46827 12.3623 9.06889 12.0898 9.47601C11.9572 9.38718 11.9636 9.31593 11.8066 9.27392L11.6437 9.5964L11.7734 9.75286C11.6659 9.90862 11.5116 10.0588 11.4016 10.2027C10.4504 11.4491 9.86611 12.761 9.86611 14.4892H7.96579C7.96579 13.2655 8.20942 12.0497 8.71961 10.998C9.10911 10.1962 9.54313 9.40906 10.1395 8.73848C10.2379 8.62686 10.3499 8.58064 10.3913 8.42469C10.621 8.48629 10.8687 8.89016 11.0791 9.03097C11.2897 9.02652 11.2935 8.9658 11.4833 8.95013C11.4046 8.65499 10.8344 8.39703 10.7555 8.10135C10.9898 7.78145 11.5797 7.40456 11.9179 7.16085C12.0505 7.06544 12.0546 7.08744 12.1167 6.9153C12.204 6.67071 12.3284 6.54922 12.4536 6.36248C12.019 6.46395 11.0832 7.2761 10.6684 7.61024C10.571 7.68892 10.5358 7.74873 10.4322 7.81798L9.08794 6.49373C9.3094 6.33992 9.52684 6.09129 9.73529 5.90918C11.3465 4.5009 13.7187 3.50778 15.8496 3.33065C15.8471 3.21156 15.8067 3.00578 15.769 2.92603C15.4491 2.92603 14.831 3.06108 14.546 3.11769C13.7864 3.26901 13.0939 3.49184 12.3997 3.80177C12.0358 3.96376 11.7625 4.09975 11.4157 4.27332L10.5287 4.80137C10.1078 5.08299 9.6768 5.38177 9.30938 5.72534C9.23123 5.79904 9.21252 5.82982 9.12119 5.90049C8.85435 6.10681 8.60949 6.36665 8.37932 6.61498L7.57877 7.59285C6.46154 9.08356 5.75292 10.7384 5.40116 12.6126C4.81478 15.7416 5.66669 19.0353 7.49793 21.5885C9.49224 24.37 12.9855 26.417 17.0224 26.417C18.8858 26.417 21.0856 25.9141 22.6751 24.9537C22.8355 24.8563 22.9769 24.7859 23.1353 24.686L23.9763 24.1123C26.1255 22.495 27.6137 20.3114 28.3606 17.701C28.5442 17.0601 28.7557 16.009 28.7477 15.2172C28.7446 14.9598 28.8004 14.7636 28.7874 14.5744C28.6739 12.9671 28.5987 11.941 27.9562 10.3483C27.5071 9.2346 26.6364 7.65451 25.7665 6.79665C25.4015 6.43742 25.0941 6.04754 24.6873 5.73317L23.8961 5.10907C22.5 4.1282 21.1253 3.5066 19.4238 3.11248C19.0932 3.03593 18.5145 2.92603 18.1547 2.92603L18.1063 3.32891C19.2466 3.35811 21.0275 3.95807 21.9817 4.43586C22.9414 4.91615 23.7998 5.49324 24.593 6.19124C24.7121 6.29609 24.8222 6.39901 24.9064 6.52415L23.7036 7.74757L23.7388 7.57721C23.5314 7.52825 23.6215 7.49463 23.3294 7.49463C23.4172 7.11759 23.1675 6.71309 22.8954 6.4733C22.7587 6.35225 22.5597 6.28508 22.3991 6.20124C22.2957 6.1473 22.2537 6.11224 22.1442 6.0526C22.0417 5.9976 21.9657 5.96673 21.8743 5.91831C21.7236 6.01871 21.8223 6.03414 21.5912 6.03913C21.6063 6.22142 22.0826 6.84793 22.1164 7.69759C22.1315 8.08709 22.1335 8.04804 22.3646 8.33821C22.4 8.38271 22.4127 8.40343 22.4515 8.45381C22.4919 8.50579 22.5257 8.54532 22.5614 8.5868C22.4707 8.71088 22.5872 8.65154 22.3996 8.6672C22.4122 8.81514 22.4575 8.82962 22.521 8.95013C22.3631 9.05623 22.2768 9.26093 22.076 9.31434C22.0254 9.21856 21.9827 9.149 21.955 9.03097C21.8302 9.12229 21.8561 9.16625 21.7931 9.31347C21.7502 9.41298 21.6436 9.55464 21.6203 9.62638C21.5281 9.91495 21.803 9.64833 21.2778 10.1731C21.0457 10.4058 20.4902 10.9065 20.3378 11.134C20.1712 11.0221 20.167 10.89 19.9329 10.9667C19.5459 11.0933 19.6826 11.0728 19.7311 11.2549C19.5328 11.3008 19.5702 11.303 19.489 11.4574C19.3411 11.3584 19.3426 11.3736 19.0842 11.4978C19.1655 11.6502 19.1691 11.6956 19.4405 11.6138C19.5368 11.5845 19.537 11.5602 19.6076 11.4952C19.7276 11.3841 19.8282 11.3761 20.0144 11.3761C19.979 11.5093 19.9193 11.5351 19.8223 11.6295C19.7422 11.7076 19.6787 11.7863 19.602 11.8559C19.4551 11.9893 19.5691 11.8888 19.3058 11.9185C19.1477 11.9361 19.0322 11.9793 18.8823 11.9828Z" fill="white"/>
<path fill-rule="evenodd" clip-rule="evenodd" d="M7.60187 28.2765C6.44423 28.2765 6.08604 27.9346 5.82258 27.9123C6.79846 28.7606 8.00716 29.3279 9.42113 29.3279C11.1247 29.3279 11.5303 29.2497 13.1055 28.7668C13.9595 28.5049 14.9203 28.1553 16.0117 28.1553L15.6241 28.3743C15.1377 28.6624 13.3373 29.9227 13.2216 30.4192C13.5244 30.4192 13.7112 30.5 14.0306 30.5C14.0795 30.5 14.4072 29.9501 14.5862 29.7625C14.8764 29.4586 14.86 29.4267 15.2371 29.1192C15.4582 28.9391 15.7539 28.7493 16.0244 28.6129C16.8918 28.1759 17.0774 28.1824 17.9388 28.6134C18.6982 28.9929 19.1737 29.4631 19.6627 30.1241C19.7171 30.1978 19.8776 30.5 19.9337 30.5C20.2527 30.5 20.4397 30.4192 20.7425 30.4192C20.7197 30.1482 19.6912 29.3179 19.4945 29.1605L18.7689 28.6321C18.5654 28.5039 18.1544 28.2956 17.9929 28.1553C19.9135 28.1553 21.5769 29.3279 23.8149 29.3279C25.1714 29.3279 26.2835 29.2293 27.4139 28.4795C27.5602 28.3821 28.0568 28.0279 28.1412 27.9123C27.9796 27.9259 27.7061 28.0951 27.3494 28.1718C25.113 28.6548 22.985 27.2252 20.0145 27.2252C18.0026 27.2252 17.2435 27.7107 16.982 27.7107L15.8068 27.3895C14.6342 27.1472 13.4169 27.1854 12.2452 27.3813L10.7008 27.6959C9.90653 27.93 8.56457 28.2765 7.60187 28.2765Z" fill="white"/>
<path fill-rule="evenodd" clip-rule="evenodd" d="M18.0326 4.82578C18.0326 6.09378 17.8639 6.00703 18.2247 6.04833C19.0452 6.14232 20.0948 6.72653 20.0948 7.65595C20.0948 8.65461 19.6921 9.01651 18.7721 9.40655C17.5787 9.91211 15.9122 9.94241 14.5714 10.8255C14.0799 11.149 13.5444 11.839 13.5444 12.6292C13.5444 13.2271 13.5198 13.571 13.8436 14.109C14.1429 14.605 14.7015 15.0034 15.237 15.2229C15.4348 15.3037 15.9329 15.5201 16.1725 15.5402C16.1725 15.3262 16.1317 15.1327 16.1321 14.8531C16.1326 14.5972 16.1321 14.3406 16.1321 14.0842C15.9343 14.0383 15.6058 13.8203 15.4752 13.6905C15.3206 13.537 15.1616 13.2144 15.1616 12.9121C15.1616 11.3176 18.1186 11.4678 20.0403 10.5131C21.1523 9.96103 21.752 9.10075 21.752 7.7772C21.752 5.87475 19.6378 4.66454 18.0326 4.66454V4.82578Z" fill="white"/>
<path fill-rule="evenodd" clip-rule="evenodd" d="M16.0113 1.71343C16.0113 2.09082 16.0497 2.32237 16.1036 2.67217C16.1446 2.94169 16.2525 3.2571 16.2555 3.57094C16.2621 4.26378 16.2918 4.90349 16.2929 5.6362C16.2935 5.85872 16.3245 5.89632 16.3346 6.0795C16.358 6.50691 16.2934 7.26444 16.3459 7.64539C16.3928 7.9895 16.3732 8.76532 16.3735 9.19433C16.3735 9.42843 16.4155 9.47565 16.4155 9.67805C16.704 9.61094 17.3737 9.46828 17.588 9.35471C17.588 9.01808 17.588 8.68097 17.588 8.34381L17.6302 7.37507C17.6302 7.0379 17.6291 6.69959 17.628 6.36243C17.6277 5.97489 17.6694 5.74556 17.6689 5.35196C17.6684 5.0294 17.6519 4.65697 17.6685 4.34063C17.6786 4.15745 17.7103 4.12029 17.7108 3.89777C17.7119 2.70435 17.9925 2.52632 17.9925 1.59174C17.9925 0.585592 17.4751 0.501958 16.8883 0.5H16.857C16.2424 0.501958 16.0113 1.17653 16.0113 1.71343Z" fill="white"/>
<path fill-rule="evenodd" clip-rule="evenodd" d="M25.2293 26.4973L25.5631 26.1036C25.8857 25.7653 26.2317 25.1916 26.4028 24.7598C26.7034 23.9993 26.6711 23.5482 26.8315 23.0052C26.8986 22.7776 27.0072 22.634 27.049 22.4542L26.4929 22.9492C25.9178 23.5311 25.4844 23.9888 25.0272 24.6781C24.6174 25.2951 24.3556 26.1453 24.0517 26.8563C23.9505 27.0945 23.7733 27.3211 23.6526 27.5486C24.7472 27.2939 24.6132 27.4724 25.4716 27.4678C27.3246 27.4587 28.6481 27.3444 30.0107 25.9819C30.3104 25.6823 31.04 24.7924 31.1324 24.3947C30.9538 24.5143 30.8265 24.6988 30.613 24.8462C29.3552 25.7151 27.2711 25.6554 25.5985 26.3413C25.4737 26.3922 25.3696 26.4646 25.2293 26.4973Z" fill="white"/>
<path fill-rule="evenodd" clip-rule="evenodd" d="M8.73368 26.4971C8.59233 26.4638 8.53227 26.411 8.3936 26.3524C7.48572 25.9693 6.55468 25.8307 5.59037 25.6379C4.72842 25.4658 3.75965 25.2322 3.1042 24.6474C2.99614 24.551 2.94828 24.4734 2.83061 24.3945C2.923 24.7407 3.62553 25.6561 3.91214 25.9413C5.80693 27.8254 7.54678 27.4023 9.66569 27.4255C9.91331 27.4285 10.0602 27.4904 10.2702 27.508L9.90647 26.8209C9.51127 26.0378 9.24185 24.7591 8.23909 23.7574C8.12107 23.6399 8.09869 23.6018 7.99419 23.4766C7.8443 23.2981 7.64006 23.1194 7.47006 22.9494L6.91441 22.454C6.95428 22.6261 7.05882 22.7682 7.12237 22.9742C7.40452 23.8912 7.32968 24.9621 8.37926 26.0838C8.52309 26.2373 8.61654 26.3221 8.73368 26.4971Z" fill="white"/>
<path fill-rule="evenodd" clip-rule="evenodd" d="M26.7257 25.4468C28.2875 24.4008 30.7166 25.0885 32.3693 22.2759C32.6237 21.8424 33.1536 20.6451 33.1949 20.1502L32.7679 20.7747C32.671 20.9043 32.6185 20.9351 32.5247 21.0572C32.39 21.2324 32.4021 21.1832 32.2553 21.3128C31.5998 21.8917 31.1185 22.1624 30.3236 22.5758C29.8599 22.817 29.0847 23.2717 28.6886 23.5688C28.555 23.6698 28.5019 23.7499 28.3833 23.8296C28.4141 23.7135 28.5122 23.5825 28.5722 23.4524C28.815 22.9295 28.9516 22.1557 28.9505 21.5649C28.95 21.1974 28.8684 20.4851 28.8684 19.9073C28.8684 19.6773 28.9088 19.6282 28.9088 19.3818C28.6651 19.5611 28.3072 20.3716 28.1543 20.6896C27.9238 21.1698 27.7733 21.6821 27.6586 22.2559C27.5007 23.0486 27.4428 24.0445 27.0902 24.7601C27.0346 24.8721 26.9815 24.9915 26.9113 25.1065C26.8332 25.2347 26.7615 25.2919 26.7257 25.4468Z" fill="white"/>
<path fill-rule="evenodd" clip-rule="evenodd" d="M5.09417 19.8262C5.09417 20.0073 5.10431 20.2159 5.09417 20.3925L5.02376 21.4556C4.98282 21.7442 5.12198 22.6665 5.22042 22.9758C5.36426 23.4278 5.38648 23.4237 5.57962 23.789C5.4349 23.7502 5.39158 23.6574 5.27409 23.5691C3.8368 22.4862 2.01922 22.0597 0.993856 20.4903C0.906628 20.3561 0.875281 20.2287 0.768294 20.15C0.788054 20.3896 1.02215 21.0296 1.11489 21.2587C1.42019 22.0167 1.79834 22.6999 2.35374 23.2949L2.97436 23.806C4.14802 24.6946 5.5989 24.7069 6.71808 25.1571C6.88719 25.2251 7.11176 25.3724 7.23744 25.4062C7.11941 25.1826 6.9802 24.9978 6.8741 24.759C6.23841 23.3346 6.65107 22.0542 5.46032 19.9862L5.12654 19.4303C5.09628 19.3879 5.07817 19.3692 5.05396 19.3417C5.05396 19.5777 5.09417 19.6238 5.09417 19.8262Z" fill="white"/>
<path fill-rule="evenodd" clip-rule="evenodd" d="M3.4773 19.3414C3.4773 19.8605 3.57921 20.4877 3.67961 20.9182L2.82495 19.67C2.5339 19.2778 2.05436 18.8131 1.82579 18.5265C1.67982 18.3433 1.13293 17.8293 0.814456 17.4352C0.727584 17.3282 0.667097 17.2677 0.577377 17.1466L0.057151 16.2114C0.0521665 16.1998 0.0347551 16.1671 0.0297707 16.1575L0 16.1066C0 17.1078 0.126645 17.7558 0.41592 18.4809C0.548542 18.8139 0.69433 19.1105 0.881603 19.3896C1.07083 19.6716 1.26425 19.9409 1.50635 20.1802C2.02153 20.6898 2.4384 21.0203 3.04899 21.4271L4.26916 22.2694C4.41904 22.386 4.5018 22.5174 4.65009 22.6162C4.61929 22.2468 4.40736 21.7827 4.40736 20.8369C4.40736 19.424 4.83263 18.4269 4.52644 16.9584C4.47891 16.7324 4.32716 16.0235 4.16463 15.905C4.16463 16.9243 3.4773 17.8573 3.4773 19.3414Z" fill="white"/>
<path fill-rule="evenodd" clip-rule="evenodd" d="M29.3542 17.724C29.3542 18.6203 29.353 18.6731 29.4676 19.5915C29.5771 20.4666 29.5994 21.3646 29.4031 22.22C29.3703 22.3619 29.3259 22.5135 29.3138 22.6568C30.4634 21.3338 33.2337 20.7711 33.8715 17.3902C33.9805 16.8145 33.9303 16.7946 33.9693 16.4362C33.9828 16.3091 34.0036 16.2891 34.0036 16.1068C33.868 16.2063 33.8286 16.4837 33.6323 16.7865C33.0414 17.6997 32.6573 17.902 32.1496 18.5384C32.0204 18.7004 31.6244 19.0764 31.3988 19.3646C31.3105 19.4771 31.2332 19.563 31.1424 19.6741L30.284 20.9588L30.4177 20.2025C30.7392 18.0076 29.7986 17.166 29.7986 15.9051C29.6921 15.9828 29.671 16.1435 29.6215 16.2928C29.4782 16.7279 29.3542 17.2478 29.3542 17.724Z" fill="white"/>
<path fill-rule="evenodd" clip-rule="evenodd" d="M0.162424 13.6401C0.162424 14.4378 0.157815 15.0669 0.512066 15.7966C0.912779 16.6221 1.29422 16.9916 1.87152 17.5911C2.11024 17.8393 2.80346 18.6511 2.8307 18.9767H2.91154C2.91154 18.2338 2.92462 17.8911 3.09907 17.3039C3.17491 17.0475 3.26053 16.8467 3.35506 16.6302C3.45635 16.3995 3.54168 16.1961 3.65276 15.9579C4.09121 15.0167 4.36726 14.2379 4.36726 12.8713C4.36726 12.6529 4.26943 12.806 4.22297 12.8821C3.76529 13.6325 3.39393 14.0074 3.05018 14.5867C2.55262 15.4244 2.50713 16.316 2.50713 17.3186L2.4489 17.1752C2.20858 16.4526 2.12791 16.123 1.73983 15.3777C1.33609 14.6021 0.531791 13.4659 0.444919 12.5888L0.364299 12.1842C0.329408 12.6075 0.162424 12.9451 0.162424 13.6401Z" fill="white"/>
<path fill-rule="evenodd" clip-rule="evenodd" d="M31.4563 17.3186C31.4563 14.7502 30.9374 14.707 29.96 13.2355C29.908 13.1573 29.8455 13.0715 29.8007 12.9912C29.7314 12.8682 29.7476 12.8313 29.637 12.7505C29.637 12.9655 29.579 12.9733 29.6008 13.1872C29.6164 13.341 29.6315 13.4287 29.6362 13.6405C29.6422 13.9056 29.7157 14.231 29.7676 14.4793C30.0932 16.0355 31.0923 16.7532 31.0923 18.9767C31.1297 18.9332 31.0919 18.9897 31.1443 18.9071L31.3075 18.5851C31.3842 18.4412 31.4551 18.3518 31.5541 18.2252C32.5189 16.9935 33.7022 16.3481 33.8021 14.3277C33.8213 13.9437 33.8541 13.7107 33.7795 13.2172L33.5589 12.1842C33.5589 13.6879 32.2242 14.8283 31.53 17.15C31.5124 17.2096 31.5288 17.1721 31.4991 17.2408C31.4527 17.3492 31.4926 17.2672 31.4563 17.3186Z" fill="white"/>
<path fill-rule="evenodd" clip-rule="evenodd" d="M1.90009 8.1418C1.7826 8.22849 1.53242 8.67728 1.43202 8.84586C0.982883 9.60172 0.686026 10.8345 0.848554 11.7812C1.14264 13.4948 2.14303 14.548 2.14303 15.2581C2.27868 15.158 2.17883 15.2531 2.30949 14.8587C2.35542 14.7193 2.40877 14.5708 2.45986 14.4432C2.56685 14.1767 2.70162 13.9405 2.84688 13.6978C3.51551 12.579 4.31483 12.167 5.09489 10.204C5.18176 9.98648 5.35589 9.57071 5.37761 9.31437C5.30782 9.39466 5.24071 9.47215 5.17573 9.55688C4.96585 9.83085 4.90419 9.8165 4.72048 9.99149C4.61598 10.091 4.56269 10.1213 4.45819 10.214C3.901 10.7101 3.61396 10.8694 3.11373 11.5782C2.68293 12.1883 2.51322 12.6097 2.29124 13.3036L2.22365 13.4788C2.22365 13.3399 2.18528 12.9743 2.16107 12.8134L1.83664 10.8338C1.7373 10.1909 1.6559 9.43267 1.76645 8.77633C1.80632 8.5385 1.88353 8.34206 1.90009 8.1418Z" fill="white"/>
<path fill-rule="evenodd" clip-rule="evenodd" d="M32.0623 8.1418L32.1951 8.73678C32.2198 8.86156 32.2616 9.27828 32.2666 9.43476C32.2783 9.77174 32.1884 10.4361 32.1364 10.8033L31.8176 12.7486C31.7874 12.9591 31.7847 13.2401 31.7388 13.4384L31.5021 12.7856C31.2832 12.241 31.0485 11.8069 30.6751 11.3483C29.9439 10.4506 29.119 9.97541 28.8102 9.5747C28.7491 9.49495 28.6475 9.35976 28.585 9.31437C28.6133 9.65349 29.0553 10.6589 29.2052 10.9585C29.4715 11.4915 29.7698 11.9022 30.1099 12.3579C30.8184 13.3076 31.4725 13.9409 31.7792 15.2581L31.8528 15.0482C32.2137 13.6525 34.1372 11.9259 32.5482 8.86846C32.467 8.71216 32.18 8.22796 32.0623 8.1418Z" fill="white"/>
<path fill-rule="evenodd" clip-rule="evenodd" d="M17.7896 16.066C17.9769 16.1093 18.094 16.1795 18.2338 16.2694C18.5385 16.4636 18.518 16.6277 18.518 16.834C18.518 17.8841 15.243 17.6775 15.243 19.3008C15.243 19.6903 15.3393 19.9047 15.5957 20.1605C15.7502 20.3139 16.0337 20.5765 16.2537 20.6351C16.2537 20.3655 16.2773 19.9626 16.2465 19.7098C16.1717 19.0937 16.5428 19.0952 17.2068 18.8388C18.2654 18.429 19.8918 18.2136 19.8918 16.7531C19.8918 16.1296 19.5623 15.6485 19.2055 15.3776C18.6279 14.9386 18.2438 14.9103 17.8307 14.6914C17.8307 14.9684 17.7877 15.0623 17.7891 15.3372C17.7902 15.58 17.7896 15.8227 17.7896 16.066Z" fill="white"/>
<path fill-rule="evenodd" clip-rule="evenodd" d="M3.11374 9.63704L3.12591 9.64921C3.12591 9.64921 3.10965 9.64114 3.11374 9.63704ZM4.16484 5.35137C4.01299 5.39161 3.71067 5.70588 3.58855 5.8264C2.45121 6.9527 2.31295 8.27231 2.30494 9.79915C2.30191 10.3311 2.42641 10.997 2.42641 11.8205L2.88362 11.0243C3.77227 9.52453 5.07757 9.15733 6.11558 7.98901C6.37495 7.69742 6.91547 6.79253 6.95481 6.32185C6.60002 6.73004 6.69446 6.7002 6.00715 7.11284C5.80688 7.233 5.64289 7.32417 5.45063 7.44575C5.26389 7.56395 5.09076 7.66311 4.90954 7.79431L3.93189 8.59485L3.15394 9.59663L3.35278 8.50141C3.39675 8.1048 3.45943 7.6992 3.51141 7.32536C3.58724 6.77174 3.73438 6.05531 4.03576 5.58606C4.09825 5.48904 4.13458 5.4653 4.16484 5.35137Z" fill="white"/>
<path fill-rule="evenodd" clip-rule="evenodd" d="M30.8093 9.59663L30.7724 9.55273C30.5444 9.26007 30.3622 8.92521 30.0522 8.61528C29.8927 8.45738 29.7572 8.34004 29.5842 8.19371C28.8262 7.55339 28.1171 7.27644 27.4702 6.78993C27.1146 6.52255 27.164 6.4658 27.0089 6.36184C27.1401 6.9265 27.5322 7.58988 27.8516 7.98597C28.273 8.50827 29.2631 9.16847 29.9145 9.68311C30.1491 9.86843 30.3596 10.0635 30.5549 10.2955C31.1685 11.0252 31.4295 11.6963 31.5375 11.8205C31.5375 10.0377 32.0951 8.27707 30.8663 6.42659C30.7276 6.21778 30.0861 5.42792 29.7984 5.35137C29.8737 5.63139 30.2366 5.76661 30.4575 7.32015L30.6987 9.01947C30.7265 9.17986 30.8052 9.42039 30.8093 9.59663Z" fill="white"/>
<path fill-rule="evenodd" clip-rule="evenodd" d="M13.1813 7.13044C13.2347 7.03004 13.2853 6.94769 13.3453 6.84925C13.4034 6.7533 13.4715 6.68866 13.5048 6.56458C13.6586 6.60001 13.6656 6.605 13.8684 6.605C13.7867 6.72712 13.6833 6.80771 13.5763 6.91879C13.3983 7.1025 13.4567 7.06636 13.1813 7.13044ZM11.0382 9.07097C11.2041 9.21534 11.5146 9.15321 11.6851 9.07097C11.6483 9.23083 11.5776 9.43022 11.5641 9.59684L11.5993 9.55121C11.6417 9.48659 11.6129 9.53502 11.6451 9.47646C11.8525 9.10512 11.7872 9.14388 12.1041 8.72198C12.2296 8.555 12.2064 8.60427 12.4466 8.57899C12.8822 8.53253 13.4191 8.15354 13.7602 7.95185C14.9621 7.24228 14.7873 7.08163 15.3354 6.6163C15.46 6.50985 15.8002 6.32099 15.9712 6.28165C15.9712 5.7574 15.931 5.35603 15.931 4.86614C15.7231 4.88376 15.2704 5.0746 15.0948 5.16254C14.6785 5.37135 14.7204 5.35058 14.2643 5.46416C13.4796 5.65944 12.7181 6.47998 12.4526 7.04874C12.3231 7.32662 12.3768 7.4944 12.1699 7.89796C11.9549 8.31843 12.1442 8.40928 11.8768 8.73719C11.6009 9.07631 11.39 9.07097 11.0382 9.07097Z" fill="white"/>
<path fill-rule="evenodd" clip-rule="evenodd" d="M16.4558 11.9824C16.4558 13.8726 16.5373 15.6589 16.5373 17.5619C16.6881 17.5492 17.3104 17.3401 17.4265 17.2785C17.4265 15.3727 17.5076 13.5947 17.5076 11.699C17.1775 11.7268 16.7652 11.9103 16.4558 11.9824Z" fill="white"/>
<path fill-rule="evenodd" clip-rule="evenodd" d="M3.88101 8.01965L4.44622 7.49334C4.66927 7.32422 4.8681 7.19331 5.11073 7.02527C5.24086 6.93501 5.30616 6.88004 5.44234 6.79014C7.00923 5.75623 6.7135 4.89612 7.95481 3.64271C8.04203 3.55424 8.19704 3.43982 8.24795 3.37021C7.8362 3.37929 7.00513 3.78751 6.65337 3.99953C5.61287 4.62525 5.05821 5.35123 4.46382 6.33815C4.30236 6.60767 3.88955 7.64333 3.88101 8.01965Z" fill="white"/>
<path fill-rule="evenodd" clip-rule="evenodd" d="M30.0816 7.98011C30.0638 7.18955 29.173 5.62842 28.5555 5.01782C27.9282 4.39815 27.4434 3.97314 26.5871 3.63099C26.3828 3.5491 25.9516 3.37608 25.7149 3.37109C26.4775 4.0342 26.682 4.44957 27.1441 5.29728C27.7541 6.41753 28.4535 6.70403 29.4692 7.45989C29.596 7.55424 29.6519 7.6132 29.7817 7.71413C29.9083 7.8124 29.9595 7.8984 30.0816 7.98011Z" fill="white"/>
<path fill-rule="evenodd" clip-rule="evenodd" d="M16.9412 25.5269C17.1623 25.4755 17.1992 25.3025 17.2495 24.9867L17.3438 19.5819C17.346 19.3715 17.3819 19.3535 17.386 19.179C17.2301 19.179 16.7965 19.3235 16.6739 19.3972C16.4701 19.5193 16.6205 19.8036 16.6189 20.1886C16.617 20.6942 16.5664 21.6205 16.6346 22.0735C16.7152 22.6044 16.6599 23.3442 16.6583 23.9097C16.6568 24.248 16.7006 24.4616 16.6976 24.7998C16.6946 25.1379 16.7414 25.3932 16.9412 25.5269Z" fill="white"/>
<path fill-rule="evenodd" clip-rule="evenodd" d="M17.6686 21.2818C18.1365 21.5946 18.7153 21.8362 18.9857 22.5521C19.0468 22.7122 19.0105 22.7345 19.1246 22.8181C19.1246 21.5683 18.7595 21.0691 17.709 20.513C17.709 20.8304 17.6686 20.9735 17.6686 21.2818Z" fill="white"/>
<path fill-rule="evenodd" clip-rule="evenodd" d="M17.9518 7.98003C18.3242 7.98822 19.3139 8.28988 19.5692 8.42463C19.6424 8.28685 19.6908 8.19366 19.7311 8.02045C19.2937 7.91862 18.6003 7.57584 17.9518 7.57584V7.98003Z" fill="white"/>
<path fill-rule="evenodd" clip-rule="evenodd" d="M15.5262 12.912C15.5262 13.2128 15.684 13.4033 15.8732 13.537C15.8809 13.5427 16.0223 13.6374 16.0223 13.6374C16.0525 13.6498 16.1014 13.7593 16.1205 13.5978C16.1356 13.4732 15.9728 13.3719 15.8906 13.3171C15.9662 13.1727 15.9344 13.1159 16.0925 13.0741V12.1845C15.8023 12.2519 15.5262 12.5512 15.5262 12.912Z" fill="white"/>
<path fill-rule="evenodd" clip-rule="evenodd" d="M21.8332 11.3762C21.8332 11.3762 21.7617 11.4166 21.7556 11.4201C21.749 11.4237 21.7359 11.4286 21.7284 11.4327C21.5412 11.5356 21.5956 11.4639 21.5911 11.6592C21.9429 11.6515 21.9593 11.5567 22.0759 11.3358C21.92 11.1567 21.7712 11.0377 21.9549 10.9316C22.0497 10.8766 22.0791 11.0736 22.3193 11.0937C22.291 10.9889 22.2482 10.9466 22.1976 10.8508C22.3192 10.818 22.2865 10.8517 22.3193 10.7295L22.1891 10.6165C21.5346 10.9482 21.7586 11.0547 21.8332 11.3762Z" fill="white"/>
<path fill-rule="evenodd" clip-rule="evenodd" d="M18.0736 4.17957V4.30083C18.2753 4.30083 18.5769 4.37824 18.752 4.36863C18.8384 4.36364 18.9687 4.34581 19.1271 4.34385C19.3466 4.34083 19.3133 4.36116 19.4076 4.21999C19.0746 4.1422 19.2558 4.09873 18.7205 4.09873C18.5495 4.09873 18.5549 4.17145 18.4196 4.20261C18.29 4.23251 18.2598 4.17957 18.0736 4.17957Z" fill="white"/>
<path fill-rule="evenodd" clip-rule="evenodd" d="M17.7902 16.4706C17.7902 17.1408 17.6883 17.1563 17.8432 17.1312C18.0526 17.0968 18.4761 16.6301 17.7902 16.4706Z" fill="white"/>
<path fill-rule="evenodd" clip-rule="evenodd" d="M22.1972 5.91822C22.4403 5.97483 22.5599 6.13351 22.7628 6.24157C22.8572 5.88732 22.6655 5.8565 22.3991 5.71569L22.1972 5.91822Z" fill="white"/>
<path fill-rule="evenodd" clip-rule="evenodd" d="M7.68193 20.1895C7.67801 20.009 7.62449 19.9464 7.56806 19.8188C7.49329 19.6487 7.46826 19.6684 7.27796 19.624C7.35468 19.7688 7.56087 20.1088 7.68193 20.1895Z" fill="white"/>
<path fill-rule="evenodd" clip-rule="evenodd" d="M11.5235 9.43549V9.2334H11.2808C11.3484 9.3338 11.3912 9.4006 11.5235 9.43549Z" fill="white"/>
<path fill-rule="evenodd" clip-rule="evenodd" d="M4.16418 5.35146H4.20459L4.17135 5.30452L4.16418 5.35146Z" fill="white"/>
<path fill-rule="evenodd" clip-rule="evenodd" d="M32.0625 8.14147V8.10105L32.0151 8.13451L32.0625 8.14147Z" fill="white"/>
<path fill-rule="evenodd" clip-rule="evenodd" d="M1.8999 8.14147H1.94032L1.90707 8.09409L1.8999 8.14147Z" fill="white"/>
<path fill-rule="evenodd" clip-rule="evenodd" d="M29.7982 5.35146V5.31104L29.7508 5.34494L29.7982 5.35146Z" fill="white"/>
<path fill-rule="evenodd" clip-rule="evenodd" d="M10.2699 27.5082V27.5486L10.3166 27.5156L10.2699 27.5082Z" fill="white"/>
</svg>
