<svg width="15" height="16" viewBox="0 0 15 16" fill="none" xmlns="http://www.w3.org/2000/svg">
<path d="M0 3.18195V-1.56579e-08H3.28099V1.091H1.12469V3.18195H0ZM13.8747 3.18195V1.091H11.7184V-1.56579e-08H15V3.18195H13.8747ZM0 16V12.8177H1.12469V14.9086H3.28099V16H0ZM11.7184 16V14.9086H13.8747V12.8177H15V16H11.7184ZM3.37488 12.727H11.6245V3.27221H3.37488V12.727ZM3.37488 13.818C3.0749 13.818 2.81217 13.709 2.5876 13.4906C2.36236 13.2724 2.24999 13.0179 2.24999 12.727V3.27221C2.24999 2.98132 2.36236 2.72739 2.5876 2.50898C2.81217 2.29073 3.0749 2.1816 3.37488 2.1816H11.6245C11.9245 2.1816 12.1873 2.29073 12.4124 2.50898C12.6371 2.72739 12.7498 2.9818 12.7498 3.27221V12.727C12.7498 13.0179 12.6371 13.2724 12.4124 13.4906C12.1873 13.709 11.9245 13.818 11.6245 13.818H3.37488ZM5.43729 6.36311H9.5621V5.2725H5.43729V6.36311ZM5.43729 8.5451H9.5621V7.4545H5.43729V8.5451ZM5.43729 10.7271H9.5621V9.6365H5.43729V10.7271Z" fill="white"/>
</svg>
