<svg width="31" height="20" viewBox="0 0 31 20" fill="none" xmlns="http://www.w3.org/2000/svg">
<path d="M0.5 20V17.6921H15.5002V20H0.5ZM0.5 11.9228V9.61556H8.00057V11.9235L0.5 11.9228ZM0.5 3.8457V1.53841H8.00057V3.84636L0.5 3.8457ZM28.925 20L22.9251 13.8457C22.2747 14.3591 21.5755 14.744 20.8251 15.0003C20.0754 15.2566 19.3001 15.3848 18.5001 15.3848C16.4248 15.3848 14.6562 14.6349 13.194 13.1351C11.7314 11.6352 10.9996 9.82001 10.9996 7.69205C10.9996 5.5641 11.7314 3.74961 13.194 2.24962C14.6562 0.750712 16.4248 6.33299e-07 18.5001 6.33299e-07C20.5749 6.33299e-07 22.3436 0.750712 23.8069 2.24962C25.2687 3.74961 26.0004 5.5641 26.0004 7.69205C26.0004 8.5125 25.8756 9.30787 25.6249 10.0776C25.375 10.8461 24.9998 11.5639 24.5001 12.2304L30.5 18.3847L28.925 20ZM18.5001 13.0768C19.9499 13.0768 21.1873 12.5512 22.2123 11.5C23.2372 10.4488 23.7501 9.17956 23.7501 7.69205C23.7501 6.20536 23.2372 4.93536 22.2123 3.88414C21.1873 2.83292 19.9499 2.30728 18.5001 2.30728C17.0498 2.30728 15.8126 2.83292 14.7877 3.88414C13.7624 4.93536 13.2499 6.20536 13.2499 7.69205C13.2499 9.17901 13.7624 10.4488 14.7877 11.5C15.8126 12.5512 17.0498 13.0768 18.5001 13.0768Z" fill="white"/>
</svg>
