<svg width="16" height="16" viewBox="0 0 16 16" fill="none" xmlns="http://www.w3.org/2000/svg">
<path d="M4.99989 16C3.60718 16 2.42584 15.5144 1.45541 14.5441C0.484979 13.5736 0 12.3923 0 10.9996C0 10.3331 0.12613 9.69612 0.377739 9.08857C0.629631 8.48145 0.992468 7.94069 1.46648 7.46653L7.46653 1.46666C7.94069 0.992499 8.4812 0.6296 9.08875 0.377566C9.69629 0.126098 10.3331 -9.17062e-08 10.9996 -9.17062e-08C12.3923 -9.17062e-08 13.5736 0.485498 14.5441 1.45593C15.5145 2.42622 15.9995 3.60736 15.9995 5.00006C15.9995 5.6663 15.8738 6.30353 15.6217 6.91108C15.3703 7.5182 15.0069 8.05897 14.5332 8.53313L8.5333 14.5333C8.05928 15.0071 7.51838 15.3702 6.91125 15.6221C6.30371 15.8737 5.66641 16 4.99989 16ZM11.0664 10.1109L13.5995 7.59977C13.9405 7.25914 14.2034 6.86305 14.3887 6.41101C14.574 5.95924 14.6662 5.48868 14.6662 5.00006C14.6662 3.97747 14.3107 3.11118 13.5998 2.40002C12.8886 1.68885 12.0219 1.33307 10.9996 1.33307C10.5111 1.33307 10.0404 1.42605 9.58882 1.61132C9.13678 1.79659 8.74066 2.05925 8.39989 2.40002L5.88861 4.93293L11.0664 10.1109ZM4.99989 14.6666C5.47391 14.6666 5.94031 14.5738 6.39958 14.3887C6.85886 14.2034 7.25917 13.9404 7.59994 13.5996L10.1109 11.0667L4.9331 5.88878L2.40002 8.39989C2.05939 8.74066 1.79649 9.13695 1.6108 9.58899C1.42595 10.0406 1.33307 10.511 1.33307 10.9996C1.33307 12.0219 1.68885 12.8885 2.40002 13.5996C3.11133 14.3109 3.97758 14.6666 4.99989 14.6666Z" fill="white"/>
</svg>
