<svg width="18" height="16" viewBox="0 0 18 16" fill="none" xmlns="http://www.w3.org/2000/svg">
<path d="M8.89743 14.7982C8.96586 14.7982 9.04429 14.7819 9.13261 14.7483C9.22144 14.7151 9.29319 14.6715 9.34763 14.6182L16.2408 7.84993C16.4181 7.67633 16.5514 7.47962 16.6397 7.25932C16.7281 7.03903 16.7726 6.81544 16.7726 6.58854C16.7726 6.36165 16.7281 6.13459 16.6397 5.90769C16.5514 5.68047 16.4181 5.48004 16.2408 5.30661L12.5589 1.70213C12.3818 1.52853 12.1771 1.39831 11.9455 1.31134C11.7138 1.22488 11.4814 1.18162 11.2497 1.18162C11.0181 1.18162 10.7897 1.22488 10.5645 1.31134C10.3395 1.39831 10.1383 1.52853 9.961 1.70213L9.59331 2.0627L11.2501 3.70439C11.4274 3.89152 11.5842 4.10831 11.7204 4.35584C11.857 4.60286 11.925 4.87318 11.925 5.16641C11.925 5.674 11.7237 6.12108 11.3215 6.50837C10.9191 6.89517 10.4589 7.08891 9.94042 7.08891C9.59977 7.08891 9.3169 7.0388 9.09187 6.93864C8.86685 6.83847 8.65915 6.69501 8.46801 6.50837L6.97482 5.04676L3.27239 8.67098C3.20412 8.73781 3.15662 8.80785 3.12898 8.88128C3.10167 8.95471 3.08844 9.03129 3.08844 9.11132C3.08844 9.28475 3.14617 9.42869 3.26231 9.54239C3.37794 9.65559 3.52466 9.712 3.70181 9.712C3.78356 9.712 3.8624 9.69247 3.9374 9.65237C4.01241 9.6126 4.07699 9.56557 4.13143 9.51177L6.95424 6.74808L7.81349 7.58927L5.01105 10.3332C4.94279 10.3996 4.89495 10.4732 4.86764 10.5532C4.84033 10.6337 4.82711 10.7134 4.82711 10.7933C4.82711 10.9539 4.88834 11.0936 5.01105 11.2139C5.13393 11.334 5.27718 11.3948 5.44068 11.3948C5.52226 11.3948 5.60106 11.3778 5.67607 11.3444C5.75107 11.3108 5.81565 11.2677 5.8701 11.2139L8.6929 8.45021L9.55215 9.2914L6.74992 12.0354C6.69548 12.0887 6.65088 12.1588 6.617 12.2452C6.58295 12.3317 6.56577 12.4158 6.56577 12.4958C6.56577 12.6562 6.62704 12.7957 6.74992 12.916C6.87263 13.0362 7.01601 13.0961 7.17934 13.0961C7.26109 13.0961 7.33597 13.0834 7.40424 13.0566C7.47267 13.0301 7.54049 12.9829 7.60876 12.916L10.4316 10.1527L11.2908 10.9935L8.46801 13.7572C8.39974 13.8241 8.35224 13.8976 8.3246 13.9776C8.29729 14.0575 8.28406 14.131 8.28406 14.198C8.28406 14.3851 8.33855 14.5317 8.44743 14.6383C8.55683 14.7449 8.70679 14.7982 8.89743 14.7982ZM8.89743 16C8.44738 16 8.04492 15.8364 7.69045 15.5093C7.33597 15.1824 7.12477 14.7787 7.0565 14.2979C6.59297 14.231 6.20419 14.0444 5.89067 13.7375C5.57682 13.4302 5.38627 13.05 5.31784 12.5957C4.85448 12.5289 4.46866 12.3391 4.16189 12.0253C3.85511 11.7114 3.66781 11.3342 3.59955 10.8936C3.09489 10.8271 2.67941 10.6264 2.35224 10.2929C2.0249 9.95944 1.86088 9.5585 1.86088 9.09117C1.86088 8.86428 1.90531 8.63746 1.9938 8.41073C2.08263 8.18383 2.21545 7.98324 2.39277 7.80964L6.97482 3.32449L9.22479 5.52698C9.33419 5.63358 9.45315 5.71743 9.58261 5.77716C9.71206 5.83756 9.83829 5.86741 9.961 5.86741C10.1383 5.86741 10.3055 5.79083 10.4622 5.63737C10.619 5.48341 10.6974 5.32027 10.6974 5.14667C10.6974 5.0668 10.6741 4.97651 10.6262 4.87634C10.5785 4.77618 10.5 4.67283 10.3906 4.56573L7.46555 1.70213C7.28823 1.52853 7.08375 1.39831 6.85198 1.31134C6.62021 1.22488 6.38858 1.18162 6.15631 1.18162C5.92454 1.18162 5.69616 1.22488 5.47113 1.31134C5.24661 1.39831 5.04547 1.52853 4.86764 1.70213L1.75862 4.74581C1.56798 4.93294 1.43466 5.12966 1.35966 5.33642C1.28465 5.54368 1.24026 5.77388 1.22694 6.02735C1.21362 6.29451 1.2646 6.55148 1.38023 6.79884C1.49637 7.04538 1.63577 7.26946 1.79977 7.46962L0.920154 8.33056C0.647428 8.03683 0.425516 7.68302 0.254935 7.26899C0.0848606 6.85546 0 6.43476 0 6.0072C0 5.60687 0.0783866 5.22336 0.234977 4.8562C0.391735 4.48904 0.613367 4.16541 0.899578 3.88488L3.98802 0.860935C4.28822 0.567207 4.62944 0.350232 5.01105 0.210299C5.39284 0.0700354 5.78178 3.76691e-07 6.17688 3.76691e-07C6.57249 3.76691e-07 6.95759 0.0700354 7.33263 0.210299C7.70767 0.350232 8.04497 0.567207 8.34517 0.860935L8.71348 1.2215L9.08158 0.860935C9.38162 0.567207 9.72263 0.350232 10.1044 0.210299C10.4862 0.0700354 10.8751 3.76691e-07 11.2702 3.76691e-07C11.6658 3.76691e-07 12.0509 0.0700354 12.426 0.210299C12.801 0.350232 13.1385 0.567207 13.4385 0.860935L17.1 4.44527C17.4 4.739 17.6251 5.07305 17.7751 5.44681C17.9251 5.82057 18 6.20125 18 6.58854C18 6.97584 17.9251 7.35264 17.7751 7.7198C17.6251 8.08696 17.4 8.41714 17.1 8.71087L10.2067 15.4593C10.0295 15.6328 9.82821 15.7666 9.60318 15.8602C9.37816 15.9533 9.14302 16 8.89743 16Z" fill="white"/>
</svg>
