<svg width="15" height="16" viewBox="0 0 15 16" fill="none" xmlns="http://www.w3.org/2000/svg">
<path fill-rule="evenodd" clip-rule="evenodd" d="M4.24558 1.78019C4.24938 1.76282 4.25346 1.74338 4.25822 1.72073C4.26418 1.69242 4.27118 1.65909 4.28006 1.61851C4.32146 1.42899 4.38946 1.15197 4.53026 0.883424C4.67346 0.610288 4.90018 0.330472 5.26294 0.159688C5.62522 -0.0108598 6.07454 -0.0497518 6.62042 0.0670322C6.74554 0.0938002 6.9123 0.120792 7.10778 0.15244C7.70854 0.249692 8.58082 0.3909 9.35158 0.704676C10.4117 1.13624 11.4227 1.94193 11.5325 3.49608C11.6185 4.71264 11.6235 5.37692 11.5409 5.84376C11.4701 6.24308 11.3305 6.50272 11.1801 6.78212C11.1468 6.84408 11.1129 6.90704 11.0792 6.97268C11.0528 7.024 10.9681 7.16016 10.7838 7.19344C10.6047 7.2258 10.4801 7.13316 10.4405 7.09964C10.3635 7.03428 10.3213 6.94988 10.3078 6.92292L10.3069 6.92116C10.2667 6.84084 10.2271 6.73164 10.1909 6.62264C10.1155 6.3952 10.0271 6.08036 9.94386 5.76812C9.86014 5.45376 9.77974 5.13408 9.72034 4.89348C9.71422 4.8686 9.7083 4.84456 9.70262 4.82144C9.69194 4.82176 9.68102 4.82208 9.6699 4.82236C9.42406 4.82828 9.07538 4.81796 8.64982 4.75508C7.8239 4.633 6.71078 4.3132 5.50254 3.53408C5.4003 3.5618 5.26478 3.65464 5.09962 3.88436C4.89494 4.16908 4.71238 4.575 4.55918 5.01204C4.4079 5.44372 4.29366 5.88104 4.21702 6.21268C4.17886 6.37788 4.15034 6.51548 4.13142 6.61128C4.12198 6.65912 4.11498 6.69648 4.11038 6.72152L4.1041 6.75632L4.10386 6.75776L3.9209 7.82164L3.36642 6.89556L3.70962 6.69008C3.36642 6.89556 3.36634 6.8954 3.36622 6.8952L3.36594 6.89476L3.36534 6.89372L3.36366 6.89088L3.35862 6.88228C3.35458 6.87524 3.3491 6.86564 3.34242 6.85356C3.32902 6.8294 3.3107 6.79532 3.28886 6.75216C3.24522 6.66588 3.18726 6.54276 3.12658 6.38936C3.0057 6.08388 2.87114 5.65136 2.82062 5.14704C2.71998 4.14168 2.95854 2.86396 4.24558 1.78019ZM3.64078 5.25616C3.63122 5.19464 3.6231 5.13164 3.61666 5.06736C3.53634 4.265 3.71534 3.24972 4.80386 2.3564C4.9055 2.28706 4.94966 2.19177 4.9601 2.16927C4.96042 2.1686 4.9607 2.16799 4.96094 2.16745C4.9847 2.11654 4.99934 2.06466 5.00822 2.03058C5.02054 1.98327 5.03398 1.9195 5.04662 1.85966C5.05178 1.83505 5.05686 1.8111 5.06162 1.78924C5.09974 1.61482 5.14982 1.42459 5.23878 1.25493C5.32534 1.08986 5.44014 0.960496 5.6037 0.883496C5.76774 0.80626 6.0297 0.758756 6.45306 0.849328C6.63522 0.8883 6.84418 0.922172 7.07118 0.95896C7.66118 1.05459 8.37266 1.1699 9.04994 1.44563C9.9493 1.81174 10.6541 2.41445 10.7345 3.55248C10.8208 4.77368 10.8161 5.34368 10.7539 5.69976C10.7416 5.6544 10.7293 5.60848 10.7169 5.56224C10.6349 5.25436 10.5558 4.93984 10.497 4.70176C10.4677 4.58288 10.4435 4.48332 10.4267 4.41356L10.4005 4.30476L10.0113 4.39676L10.4005 4.30436L10.3146 3.9426L9.94902 4.00164C9.94882 4.00164 9.94814 4.00176 9.9477 4.0018L9.93666 4.00332C9.92558 4.00476 9.90722 4.00696 9.88194 4.0094C9.83138 4.01428 9.75322 4.02008 9.65058 4.02256C9.44522 4.02756 9.14246 4.0192 8.76678 3.96368C8.01662 3.8528 6.97326 3.5536 5.83046 2.79252L5.7403 2.73248L5.63218 2.72613C5.1021 2.69501 4.71094 3.05452 4.45006 3.4174C4.1793 3.79404 3.96666 4.28396 3.80422 4.74744C3.74406 4.91908 3.68958 5.0906 3.64078 5.25616ZM11.0222 6.56288C11.0279 6.5742 11.028 6.5722 11.022 6.56244C11.0221 6.5626 11.0221 6.56276 11.0222 6.56288Z" fill="white"/>
<path fill-rule="evenodd" clip-rule="evenodd" d="M4.85016 10.2513C4.75884 10.0642 4.55256 9.96304 4.35144 10.0125C2.1898 10.5437 0 11.6268 0 13.2563V16H14.4V13.2563C14.4 11.6268 12.2102 10.5437 10.0486 10.0125C9.84744 9.96304 9.64116 10.0642 9.54984 10.2513H7.9242C7.56872 10.2514 7.38772 10.2514 7.20992 10.2514C7.02548 10.2513 6.84448 10.2513 6.47572 10.2514L4.85016 10.2513ZM7.92436 11.0513C7.56664 11.0514 7.3864 11.0514 7.2096 11.0514C7.02632 11.0513 6.84648 11.0513 6.47592 11.0514L4.35032 11.0512L4.25824 10.8626C3.32932 11.1132 2.45312 11.462 1.80648 11.8898C1.07705 12.3723 0.8 12.8398 0.8 13.2563V15.2H13.6V13.2563C13.6 12.8398 13.323 12.3723 12.5935 11.8898C11.9469 11.462 11.0707 11.1132 10.1418 10.8626L10.0497 11.0513H7.92436Z" fill="white"/>
<path fill-rule="evenodd" clip-rule="evenodd" d="M3.99994 13.1615C4.2153 13.1615 4.39994 12.984 4.39994 12.7526C4.39994 12.5212 4.2153 12.3438 3.99994 12.3438C3.78458 12.3438 3.59994 12.5212 3.59994 12.7526C3.59994 12.984 3.78458 13.1615 3.99994 13.1615ZM3.99994 13.9615C4.6627 13.9615 5.19994 13.4203 5.19994 12.7526C5.19994 12.085 4.6627 11.5438 3.99994 11.5438C3.33718 11.5438 2.79994 12.085 2.79994 12.7526C2.79994 13.4203 3.33718 13.9615 3.99994 13.9615Z" fill="white"/>
<path d="M3.85413 10.6447C3.76709 10.9384 3.77561 11.3 3.95601 11.7442L3.21481 12.0452C3.03737 11.6083 2.97169 11.1905 3.01169 10.8C3.02505 10.6693 3.05029 10.5416 3.08709 10.4174L3.85413 10.6447Z" fill="white"/>
<path d="M10.6139 11.7984L11.3903 11.9911C11.4906 11.5872 11.5115 11.2076 11.4599 10.8558L10.5645 10.5914C10.6971 10.9136 10.7351 11.3099 10.6139 11.7984Z" fill="white"/>
<path fill-rule="evenodd" clip-rule="evenodd" d="M10.1708 11.69C10.2422 11.6318 10.3315 11.6 10.4236 11.6H11.5765C11.6687 11.6 11.7579 11.6318 11.8293 11.69L12.6529 12.3616C12.746 12.4376 12.8001 12.5514 12.8001 12.6716V14.4178C12.8001 14.6387 12.621 14.8178 12.4001 14.8178H11.5765V14.0178H12.0001V12.8616L11.4341 12.4H10.566L10.0001 12.8616V14.0178H10.4236V14.8178H9.60006C9.37914 14.8178 9.20006 14.6387 9.20006 14.4178V12.6716C9.20006 12.5514 9.2541 12.4376 9.34726 12.3616L10.1708 11.69Z" fill="white"/>
</svg>
