<svg width="15" height="16" viewBox="0 0 15 16" fill="none" xmlns="http://www.w3.org/2000/svg">
<path fill-rule="evenodd" clip-rule="evenodd" d="M7.35825 16H7.60128C7.852 15.8503 8.2678 15.7764 8.55992 15.6605C10.6808 14.8189 12.5557 13.4088 13.6984 11.3934C15.3621 8.4607 14.9562 5.61893 14.9567 2.01825C13.8664 1.21426 11.5421 0.474874 10.0548 0.218007C9.56091 0.132601 8.44252 0.0982087 8.08755 -4.88304e-07H6.34404C6.11443 0.0881609 4.24159 0.312889 2.9136 0.721283C1.86436 1.04379 0.898312 1.49034 0.0300259 2.0044C0.00990224 6.74842 -0.51131 10.9375 3.75243 14.1669C4.55754 14.7766 5.78834 15.4815 6.80393 15.7915L7.35825 16ZM1.39197 2.76486C1.44261 6.05324 0.912784 9.30743 3.33422 11.9453C3.51566 12.1437 3.66497 12.3387 3.84344 12.5115C3.99734 12.6594 4.01804 12.6424 4.17144 12.7596C4.31297 12.8675 4.31847 12.9076 4.46824 13.0326C4.88341 13.3804 6.72276 14.5498 7.46255 14.5768C8.46824 14.6136 10.2919 13.1882 11.0223 12.6045C11.2644 12.4105 11.3507 12.2884 11.5953 12.0308C11.9165 11.6922 12.2711 11.1686 12.5413 10.6891C13.9712 8.15185 13.5588 5.86533 13.6014 2.77514C12.6788 2.47047 12.4362 2.16142 10.8801 1.76226C8.7409 1.21417 6.3207 1.17939 4.17044 1.75276C2.43799 2.2148 2.42669 2.41529 1.39197 2.76486ZM6.84259 8.76856C6.59055 8.6326 4.91229 7.19186 4.66174 6.86466C4.47617 6.964 3.81555 7.59478 3.68276 7.82215C3.84045 8.01193 4.17886 8.30635 4.41589 8.53275L6.80695 10.6297C7.1474 10.4382 8.1873 9.21792 8.68396 8.74324L11.7961 5.5487C11.6026 5.34515 11.038 4.79852 10.7579 4.66757C10.265 5.36444 7.02123 8.42224 6.84259 8.76856Z" fill="white"/>
</svg>
