<svg width="16" height="16" viewBox="0 0 16 16" fill="none" xmlns="http://www.w3.org/2000/svg">
<path d="M0.0569653 7.04159C0.709731 1.38735 6.6299 -1.72746 11.3516 1.0043C12.2481 1.52245 13.0255 2.21541 13.6623 3.06419C17.024 7.5438 14.95 14.2107 9.65511 15.7149C4.44214 17.198 -0.594019 12.6855 0.0569653 7.04159ZM3.88478 2.98598C1.2353 5.16048 0.773071 9.16184 2.85271 11.9335C4.93235 14.7046 8.7594 15.1871 11.4102 13.0126C14.0538 10.8434 14.5168 6.82985 12.442 4.06484C10.3674 1.30063 6.52891 0.816533 3.88478 2.98598Z" fill="white"/>
<path d="M9.18065 3.50306C9.54189 3.13439 10.173 2.53562 10.4239 2.29437C10.3445 2.28984 10.261 2.29144 10.1743 2.30208C10.0367 2.42497 9.41367 3.05062 9.13155 3.42992C9.1547 3.44588 9.172 3.47673 9.18065 3.50306Z" fill="white"/>
<path d="M8.74027 3.48419C9.11753 3.08174 9.01374 3.19237 9.22844 2.96256C8.82702 3.52806 8.81023 3.55148 8.81023 3.55148L8.8003 3.56504C8.85067 3.52727 8.91198 3.48362 8.96616 3.4533C9.1623 3.15326 9.68583 2.6088 9.94684 2.35025C9.67566 2.43245 9.5098 2.55451 8.9855 3.02133C8.91554 3.15486 8.82753 3.31767 8.74027 3.48419Z" fill="white"/>
<path d="M8.11798 5.85631C8.40926 5.64511 8.65246 5.4395 8.8982 5.20941C8.7359 5.39933 8.58173 5.56905 8.38407 5.76136C8.66238 5.61214 8.81527 5.44245 8.94068 5.28259C8.77787 5.55337 8.59242 5.75524 8.29962 5.92787C8.43521 5.90686 8.54409 5.90073 8.60921 5.90605C8.96459 5.57223 9.33168 5.15674 9.63949 4.7737C9.39375 4.85962 8.94653 5.03678 8.52831 5.31421C8.41282 5.5036 8.26375 5.69353 8.11798 5.85631Z" fill="white"/>
<path d="M8.44457 6.6934C8.45169 6.88252 8.44381 7.05835 8.39191 7.2738C8.41582 7.25119 8.43948 7.22778 8.46416 7.20464C8.48197 7.01977 8.46848 6.85619 8.44457 6.6934Z" fill="white"/>
<path d="M2.76075 9.53739L2.76787 9.44615C2.76431 9.47621 2.75999 9.50655 2.75566 9.5366L2.76075 9.53739Z" fill="white"/>
<path d="M6.99879 8.86097C6.98353 8.86921 6.94893 8.89183 6.90136 8.91523C6.98225 8.9953 7.13998 8.94848 7.17458 8.8091C7.12497 8.84075 7.05425 8.87985 6.99879 8.86097Z" fill="white"/>
<path d="M6.81381 9.63314C6.89165 9.78237 7.48005 10.8977 7.56299 11.0552L6.87436 9.5999C6.80363 9.63847 6.81966 9.63022 6.81381 9.63314Z" fill="white"/>
<path d="M2.84449 9.352L2.82083 9.54406L2.82566 9.54485C2.83227 9.47942 2.83889 9.41531 2.84449 9.352Z" fill="white"/>
<path d="M15.9237 10.4144L15.2595 10.4535C15.2378 10.4399 15.2127 10.4285 15.1824 10.421C15.046 10.3878 13.2361 9.66404 13.0132 9.56668C12.9341 9.5321 12.9109 9.48396 12.8468 9.47252C12.8517 9.35043 12.7255 9.21477 12.6059 9.10305C12.5164 9.02086 11.7204 8.21702 11.0287 7.52038C11.1147 7.50389 11.2004 7.48579 11.2862 7.46691C11.3749 7.09053 11.3698 6.7325 11.2979 6.36224C11.406 6.71149 11.452 7.07112 11.4111 7.43819C11.6532 7.381 11.913 7.30998 12.1493 7.22326C12.1674 6.88172 12.1162 6.56892 12.0101 6.24999C12.1473 6.54471 12.2317 6.82906 12.2605 7.18123C12.7097 7.00009 12.9361 6.79874 12.9354 6.57956C12.9354 6.42928 12.872 6.28909 12.7486 6.16328C12.3548 5.76216 11.3604 5.53073 10.1533 5.55919C9.78118 5.56824 9.41791 5.58792 9.07168 5.61585C9.91321 4.72078 11.4996 2.63088 10.9689 2.31861C10.6596 2.13693 9.95442 2.03212 9.37746 2.52288C9.36449 2.53352 9.35152 2.54467 9.33778 2.55531C9.36678 2.36832 9.37314 2.13001 9.20371 2.05925C8.87784 1.922 8.18971 1.90471 7.73334 2.43935C6.7664 3.51823 5.75825 5.09798 5.0602 6.28378C4.99533 6.35693 4.93174 6.43858 4.86839 6.52822C4.5036 7.04691 4.34206 7.55283 4.30441 7.62226C4.14084 7.92975 4.1416 7.93293 4.14592 7.98028C4.14872 8.0114 4.15966 8.04306 4.17823 8.07605C4.17315 8.10264 3.98566 8.48249 4.1416 8.64155C4.15305 8.7163 4.17544 8.78412 4.2108 8.83998C4.19273 8.84158 4.17544 8.84369 4.15737 8.84662C4.01746 8.74501 3.10318 8.08669 3.10089 8.0851C2.92714 7.95396 2.83353 7.98879 2.78519 8.24282C2.77858 8.27607 2.78214 8.31438 2.80096 8.35056C2.7829 8.47212 2.75772 8.64687 2.72465 8.88228C2.70582 8.87536 2.69488 8.87163 2.69488 8.87243C2.69564 8.87456 2.64527 9.06766 2.64807 9.06979C2.64807 9.07059 2.6669 9.07433 2.69717 9.08044C2.67835 9.21238 2.65749 9.36026 2.63434 9.52384L2.6005 9.51934C2.6005 9.51934 2.60127 9.58555 2.60559 9.64301L2.5804 9.57892L2.11513 9.59087C2.1253 9.71296 2.12886 9.75767 2.12886 9.75767C2.12963 9.76884 2.13115 9.77948 2.13191 9.79012L2.60915 9.68451C2.60992 9.68823 2.60991 9.69197 2.61068 9.69569C2.34662 11.5861 2.32576 11.5944 2.37689 11.7202C2.29472 11.8726 1.3919 12.8302 1.37765 12.8512L1.05381 12.9576C1.02481 12.9674 1.00751 12.9975 1.0126 13.0283C1.01693 13.0563 1.03855 13.0775 1.06526 13.0805L1.06169 13.1408L1.14463 13.0866C1.14234 13.1105 1.13598 13.1323 1.12886 13.1467C1.15684 13.14 1.18787 13.122 1.21179 13.1023C1.21026 13.1142 1.20797 13.1249 1.20594 13.1318C1.23265 13.1233 1.26139 13.1047 1.28378 13.0858C1.28022 13.1137 1.27513 13.1392 1.27081 13.1573C1.29523 13.1422 1.32779 13.1174 1.35806 13.0887C1.35654 13.1031 1.3545 13.1142 1.35297 13.1219C1.3718 13.1105 1.39851 13.0916 1.42293 13.069C1.71064 13.0057 2.41149 12.1583 2.54072 11.9787C2.57888 11.9245 2.60203 11.8688 2.60763 11.8191C2.687 11.8039 2.76713 11.7271 2.76917 11.5324C2.76993 11.4571 2.82411 10.8546 2.88975 10.158C3.01007 10.5854 3.39522 10.8373 3.68065 10.6804C3.65775 11.3025 3.55879 13.9604 3.54887 14.1676C3.56668 13.9633 3.88848 11.4036 3.9648 10.666C4.04697 10.6767 4.12786 10.666 4.20571 10.6299C4.23394 10.6261 4.26193 10.6208 4.29016 10.615C4.42423 13.0781 4.40108 13.085 4.48706 13.2071C4.42194 13.4106 3.63664 14.6722 3.62239 14.7083L3.28329 14.9142C3.22656 14.9488 3.25683 15.0416 3.32246 15.031L3.32806 15.1041L3.41176 15.0145C3.41405 15.0446 3.41023 15.0725 3.40463 15.0922C3.42829 15.0794 3.46085 15.0523 3.48833 15.0137C3.48884 15.0294 3.48832 15.0454 3.4868 15.0552C3.50995 15.04 3.53946 15.0113 3.56541 14.9738C3.56668 15.0084 3.56617 15.0416 3.56388 15.0651C3.58906 15.0392 3.6201 15.0001 3.64681 14.957C3.64834 14.9751 3.64834 14.9932 3.64757 15.0039C3.67199 14.9805 3.69514 14.9496 3.71397 14.9209C4.03552 14.7453 4.61528 13.6497 4.70915 13.4438C4.74069 13.3738 4.75366 13.3066 4.7473 13.2502C4.7964 13.2313 4.91316 13.1573 4.86559 12.9041C4.84244 12.7833 4.70686 11.4435 4.61019 10.4769C4.86992 10.3072 5.04799 10.0298 5.0803 9.72148C5.2052 9.75766 5.33494 9.79596 5.46188 9.83373C5.51098 10.001 5.61045 10.1293 5.77784 10.1074C6.11236 10.0636 6.21819 9.86246 6.14111 9.60232C6.28331 9.84889 6.56009 9.77708 6.70077 9.66643C7.05259 10.4008 7.41026 11.1525 7.43774 11.2323C7.49752 11.4042 7.6181 11.4435 7.71172 11.4225C7.7341 11.4654 7.77811 11.506 7.83942 11.5385C7.94041 11.5912 9.07092 12.116 9.46395 12.0662C9.49728 12.0753 9.52831 12.0798 9.55045 12.0814C9.54612 12.0753 9.539 12.0662 9.53188 12.0542C9.57589 12.0694 9.62117 12.079 9.65882 12.0822C9.64635 12.0678 9.63058 12.0473 9.61684 12.0255C9.65729 12.0391 9.69774 12.0415 9.72725 12.037C9.72369 12.0332 9.71784 12.0263 9.71148 12.0157C9.75243 12.0279 9.79415 12.0287 9.82315 12.0226C9.81094 12.0127 9.79644 11.9971 9.78499 11.9795L9.90176 11.9931L9.87709 11.9502C9.94068 11.9239 9.91906 11.825 9.85114 11.8287L9.42936 11.8545C9.4085 11.8423 8.03911 11.3342 7.93023 11.2512C7.94321 11.1533 7.88267 11.0355 7.82136 10.936C7.77073 10.8525 7.29502 9.9928 6.89105 9.26743C6.89258 9.21237 6.88469 9.15439 6.86587 9.10305C7.06556 9.13923 7.23142 8.94025 7.28128 8.72745C7.42476 8.61441 7.58757 8.48568 7.76005 8.35056C8.28434 9.44087 8.94474 10.823 8.98799 10.9482C9.06227 11.1624 9.2116 11.2097 9.32709 11.1826C9.32989 11.1818 9.33345 11.181 9.33701 11.1805C9.36245 11.2376 9.41867 11.2911 9.50161 11.335C9.64203 11.4095 11.0938 12.0785 11.5891 12.021C11.6339 12.0399 11.6807 12.0527 11.7161 12.058C11.7023 12.0428 11.6858 12.0218 11.6705 12C11.7339 12.03 11.8026 12.0497 11.8568 12.0588C11.8336 12.0362 11.8046 12.0029 11.7809 11.9691L11.7931 11.9651C11.8458 11.9917 11.9028 12.0021 11.946 12.0008C11.9331 11.988 11.9173 11.9697 11.9036 11.9495C11.9626 11.9782 12.0254 11.9864 12.0707 11.9811C12.047 11.9652 12.0188 11.9388 11.9979 11.9088L12.0046 11.9072L12.1732 11.9425L12.1241 11.8739C12.2007 11.8521 12.1791 11.7444 12.1083 11.7489L11.5545 11.7822C11.5365 11.7707 11.5148 11.7617 11.4889 11.7555C11.3749 11.7271 9.85775 11.1201 9.67103 11.0387C9.6321 11.0219 9.61481 11.0046 9.59166 10.9882C9.61405 10.8645 9.53391 10.7091 9.45454 10.5793C9.38026 10.458 8.62319 9.08869 8.07371 8.10318C8.27061 7.94864 8.46954 7.79196 8.65856 7.64486C8.78321 7.66827 8.91447 7.68849 9.0493 7.70205C9.09992 7.53634 9.12358 7.40573 9.14088 7.26795C9.16123 7.25199 9.18133 7.23629 9.20091 7.22113C9.20091 7.36876 9.19277 7.5241 9.15767 7.71189C9.17853 7.71349 9.19939 7.7151 9.22025 7.71563C9.53747 8.37849 9.83257 9.00117 9.85775 9.07379C9.91677 9.24562 10.0374 9.28473 10.1317 9.26372C10.1541 9.30681 10.1981 9.34749 10.2594 9.37967C10.3604 9.43261 11.4909 9.95742 11.884 9.90768C11.9137 9.91592 11.9468 9.92124 11.9699 9.92257C11.9656 9.91672 11.959 9.90767 11.9519 9.89623C11.9959 9.91139 12.0404 9.92044 12.0781 9.92336C12.0659 9.909 12.0506 9.8896 12.0361 9.86699C12.0765 9.88055 12.1178 9.88267 12.1473 9.87815C12.1437 9.87443 12.1379 9.86751 12.1315 9.85794C12.1724 9.86911 12.2144 9.8699 12.2432 9.86378C12.231 9.85394 12.2165 9.83825 12.2042 9.82175L12.3218 9.83454L12.2974 9.79144C12.3607 9.7651 12.3391 9.66643 12.2714 9.67095L11.8486 9.69569C11.8486 9.69569 10.8074 9.30202 10.4014 9.12487C10.3798 9.11582 10.3668 9.10544 10.3538 9.0956C10.353 9.0948 10.3518 9.09399 10.3502 9.0924C10.3632 8.99531 10.3019 8.87696 10.2414 8.77748C10.2009 8.71178 9.87352 8.12207 9.64864 7.71563C9.74811 7.70898 9.90176 7.69302 10.0012 7.68105C10.0386 7.51374 10.0641 7.31236 10.0676 7.08999C10.09 7.11473 10.1124 7.14054 10.1353 7.16607C10.1404 7.33418 10.1411 7.47596 10.1188 7.66668C10.2472 7.65099 10.3841 7.6313 10.5268 7.60949C11.2877 8.47052 12.1241 9.42357 12.1913 9.52013C12.2966 9.67228 12.448 9.73345 12.5965 9.68451C12.6024 9.68211 12.6095 9.67999 12.6174 9.6784C12.6331 9.7582 12.7046 9.83666 12.8209 9.89783C12.988 9.98615 14.7072 10.7793 15.2984 10.7144C15.3533 10.7416 15.4096 10.7605 15.4556 10.7703C15.4363 10.7514 15.4116 10.7227 15.3887 10.6918L15.4029 10.6881C15.4772 10.728 15.5574 10.7567 15.623 10.7716C15.5904 10.7424 15.5515 10.7001 15.5177 10.6557L15.5464 10.6479C15.6065 10.6828 15.6764 10.7009 15.7296 10.7017C15.7052 10.6812 15.6777 10.6511 15.6568 10.6171C15.7268 10.661 15.7995 10.6804 15.8781 10.6791C15.8443 10.6586 15.8054 10.624 15.7774 10.5838L15.799 10.578L16 10.633L15.928 10.5418L15.9433 10.5378C16.0125 10.5184 15.9957 10.4099 15.9237 10.4144ZM1.51248 12.8881C1.66816 12.7299 2.34739 11.9638 2.43184 11.8627C2.45983 11.8287 2.47 11.804 2.48145 11.7822C2.48374 11.7822 2.48653 11.7827 2.4873 11.7827C2.52418 11.8838 1.78493 12.7035 1.51248 12.8881ZM2.64884 11.531C2.64731 11.6276 2.62213 11.6914 2.5832 11.6954C2.58041 11.6954 2.57812 11.696 2.57532 11.696C2.55064 11.6683 2.5191 11.6569 2.48297 11.6561C2.45855 11.5656 2.47077 11.5725 2.72948 9.71696C2.73457 9.71696 2.73889 9.71617 2.74398 9.71617L2.61577 11.2225L2.8002 9.71243C2.80325 9.71163 2.80681 9.71164 2.81038 9.71164C2.7338 10.5213 2.6496 11.4308 2.64884 11.531ZM2.76001 9.53742L2.75492 9.53663C2.75925 9.50657 2.76357 9.47623 2.76713 9.44618L2.76001 9.53742ZM8.60819 5.90605C8.54306 5.90073 8.43418 5.90686 8.29859 5.92787C8.5914 5.75524 8.77685 5.55337 8.93966 5.28259C8.81424 5.44245 8.66135 5.61214 8.38305 5.76136C8.58071 5.56905 8.73487 5.39933 8.89717 5.20941C8.65143 5.4395 8.40824 5.64511 8.11696 5.85631C8.26272 5.69353 8.41179 5.5036 8.52729 5.31421C8.9455 5.03678 9.39272 4.85962 9.63846 4.7737C9.33065 5.15674 8.96357 5.57223 8.60819 5.90605ZM7.47742 6.75963C6.95668 7.10037 6.2248 7.50841 5.6219 7.82122C6.24566 7.43898 6.74986 7.09744 7.29502 6.7075C6.60918 7.14718 5.9839 7.51825 5.19859 7.93054C5.95235 7.36583 7.04903 6.54259 7.04903 6.54259C7.52347 6.20611 8.16376 6.05687 8.46954 6.03267C8.1775 6.28988 7.80177 6.55003 7.47742 6.75963ZM8.44457 6.6934C8.46848 6.85619 8.48197 7.01977 8.46416 7.20464C8.43948 7.22778 8.41582 7.25119 8.39191 7.2738C8.44381 7.05835 8.45169 6.88252 8.44457 6.6934ZM8.13579 7.51904C8.04624 7.60496 7.96203 7.68636 7.88266 7.76163C7.77887 7.57703 7.70306 7.44271 7.65193 7.35466C7.74987 7.39297 7.9193 7.45627 8.13579 7.51904ZM6.74554 4.79554C6.74121 4.74872 6.72951 4.70352 6.70585 4.66282C6.74401 4.46758 7.43061 3.53632 7.62242 3.44588C7.6878 3.55069 7.55603 3.93053 7.51482 4.02576C7.45631 4.17897 7.38279 4.34599 7.30214 4.50506C7.28128 4.52713 7.26093 4.54895 7.24084 4.57077C7.08795 4.64099 6.90479 4.84819 6.74045 5.07056C6.94091 4.58725 7.15155 4.20371 7.3866 3.82972C7.1457 4.14492 6.94447 4.44124 6.74554 4.79554ZM7.96839 3.98955C7.95465 4.09569 7.94168 4.26383 7.95618 4.36491C7.90149 4.42768 7.82568 4.51732 7.78243 4.58887C7.56035 4.48407 6.88164 5.17245 6.66032 5.39189C7.0793 4.91922 7.52423 4.43962 7.96839 3.98955ZM8.07727 4.1034C8.08465 4.02573 8.09889 3.90951 8.12204 3.83556C8.32021 3.6382 8.52017 3.44589 8.7191 3.26182C8.61175 3.46398 8.4703 3.73155 8.39322 3.91641C8.3197 3.98504 8.25102 4.05289 8.18183 4.12284C8.26552 3.92468 8.35939 3.7845 8.46878 3.64858C8.33039 3.76854 8.20345 3.90045 8.07727 4.1034ZM9.06532 3.54378C9.07397 3.57091 9.07677 3.63367 9.02411 3.76693C9.02132 3.76933 9.02055 3.77091 9.02055 3.77091C8.96052 3.9196 8.8496 4.10796 8.83663 4.12658C8.73004 4.3016 8.59369 4.49682 8.47896 4.64764C8.32098 4.67557 8.11263 4.84606 7.99002 4.95379C8.06659 4.86043 8.63261 4.16886 8.69824 4.08826C8.60234 4.18562 7.94397 4.85351 7.85875 4.93942C7.88267 4.85803 7.8964 4.76839 7.86664 4.68912C7.94245 4.49149 8.8496 3.61321 9.06532 3.54378ZM6.96406 6.27873C7.09074 6.13456 7.22201 5.97549 7.33954 5.82094C7.52575 5.59325 8.23093 4.78941 8.51432 4.76973C8.57283 4.766 8.58198 4.78863 8.58504 4.79688C8.64278 4.94025 8.34692 5.49217 7.74122 6.06512C7.16452 6.25743 6.96177 6.45269 6.46698 6.82455C6.94015 6.39311 7.29197 6.0215 7.56111 5.72891C7.46012 5.82547 7.25381 6.02364 6.96406 6.27873ZM7.53644 4.78783C7.69289 4.68462 7.73054 4.70269 7.73257 4.70349C7.75064 4.71945 7.76005 4.74261 7.76208 4.77586C7.77811 5.01339 7.39373 5.56239 7.24796 5.73954C6.74096 6.40746 6.49675 6.60589 5.11134 7.74142C5.2571 7.5922 6.21183 6.61041 6.36395 6.45427C4.80352 7.87548 4.82438 7.87628 4.74145 7.88772C4.77096 7.7784 4.8137 7.66002 4.84321 7.5906C4.86407 7.53767 4.85822 7.54991 4.91444 7.47756C5.19223 7.14188 6.85493 5.23816 7.53644 4.78783ZM4.86636 8.25479C4.81574 8.32874 4.65776 8.32129 4.62825 8.1726C4.62469 8.15452 4.62901 8.13031 4.63537 8.11541C4.67938 8.19973 4.76181 8.25479 4.86636 8.25479ZM6.59901 7.40122C6.31486 7.65019 5.78573 8.10105 5.4596 8.28193C5.09328 8.48488 4.72263 8.57611 4.33418 8.43354C5.14746 8.62133 5.71933 7.99917 6.59901 7.40122ZM9.77991 4.59577C9.67612 4.62662 9.16759 4.78331 8.64278 5.09479C8.64762 5.08362 8.6527 5.07138 8.65703 5.06021L9.68171 4.50294L8.70689 4.88755C8.71121 4.85643 8.71198 4.82877 8.70893 4.80297C9.37746 4.24199 10.0178 3.94037 10.3502 3.80764C10.1722 4.0755 9.97299 4.3468 9.77991 4.59577ZM10.465 3.63048C10.2327 3.71187 9.54612 3.98425 8.79847 4.57077C9.23602 4.08745 9.74175 3.7837 10.2681 3.57702C9.74378 3.74061 9.24848 3.99461 8.81856 4.38163C8.85392 4.3287 8.89005 4.27364 8.92465 4.21725C9.15309 3.84619 9.74735 3.4254 10.1216 3.20995C10.5955 2.93757 10.8117 2.74603 10.9501 2.61197C10.9178 2.82743 10.7448 3.18866 10.465 3.63048ZM10.9351 2.45291C10.3612 3.02294 10.0287 3.04235 9.37899 3.56716C9.62905 3.29718 9.8519 3.10433 10.1238 2.90217C9.95442 3.00325 9.81221 3.09369 9.62473 3.23467C9.91626 2.95032 10.5751 2.32018 10.5817 2.31406C10.6576 2.32763 10.8939 2.39014 10.9351 2.45291ZM10.1743 2.30208C10.261 2.29144 10.3445 2.28984 10.4239 2.29437C10.173 2.53562 9.54189 3.13439 9.18065 3.50306C9.172 3.47673 9.1547 3.44588 9.13155 3.42992C9.41367 3.05062 10.0367 2.42497 10.1743 2.30208ZM9.94577 2.35026C9.68476 2.60881 9.16123 3.15327 8.96509 3.45331C8.91091 3.48363 8.8496 3.52728 8.79923 3.56505C8.8 3.56505 8.80916 3.55149 8.80916 3.55149C8.80992 3.55069 8.82594 3.52807 9.22737 2.96257C9.01267 3.19239 9.11646 3.08175 8.7392 3.4842C8.82645 3.31769 8.91447 3.15487 8.98443 3.02134C9.50873 2.55452 9.67459 2.43246 9.94577 2.35026ZM9.1915 2.67744C8.76464 3.03866 8.32403 3.45574 7.89131 3.89304C8.0933 3.64114 8.25255 3.47301 8.38966 3.33204C8.22507 3.46769 7.97068 3.68181 7.64837 4.02787C7.82568 3.66612 8.24542 3.25568 8.56112 3.00697C8.95644 2.69549 9.12663 2.48962 9.23246 2.34572C9.23678 2.43164 9.22254 2.54338 9.1915 2.67744ZM9.18921 2.19729C8.74784 2.80881 8.42121 2.86894 7.8964 3.46317C8.10678 3.12456 8.30597 2.86361 8.53518 2.59602C8.48761 2.64044 8.38966 2.73169 8.25535 2.87267C8.3889 2.69339 8.82722 2.1098 8.83078 2.10528C8.9333 2.11193 9.14393 2.14755 9.18921 2.19729ZM8.44359 2.13986C8.52373 2.12018 8.60233 2.10899 8.67789 2.10447C8.50566 2.33455 8.1162 2.84791 7.83866 3.23467L8.22863 2.60747L7.7486 3.17748C7.96992 2.78753 8.34565 2.26142 8.44359 2.13986ZM7.33903 3.32432C7.37999 3.19319 7.42196 3.06286 7.45427 2.95567C7.84578 2.47555 7.97857 2.32845 8.23729 2.21142C8.02691 2.50108 7.64328 3.06659 7.51405 3.36982C7.46648 3.406 7.41026 3.46023 7.34972 3.52487C7.45783 3.23919 7.57968 3.01073 7.73766 2.76734C7.59062 2.94077 7.47081 3.10062 7.33903 3.32432ZM6.79006 3.82651C6.94015 3.61851 7.09227 3.41423 7.24516 3.21819C7.1724 3.4512 7.09507 3.70152 7.05691 3.87627C6.99052 3.96299 6.93735 4.03771 6.88545 4.11245L7.04547 3.53631L6.79515 4.06403C6.7865 3.97599 6.7837 3.8853 6.79006 3.82651ZM6.15128 4.75698C6.31918 4.50216 6.49242 4.24651 6.66897 3.99621C6.67482 4.08585 6.68626 4.18241 6.70229 4.26088L6.69924 4.2662L6.70356 4.26782C6.71018 4.3008 6.71806 4.33111 6.72595 4.35452C6.6855 4.41995 6.63514 4.50745 6.60639 4.57901C6.44333 4.53246 6.18944 4.83997 6.05614 5.00063L6.54991 4.25877L6.15128 4.75698ZM4.26549 7.96299L4.26905 7.95927C4.4919 7.48501 6.1462 4.81656 6.55653 4.70272C6.6069 4.68835 6.67176 4.79234 6.58247 5.0993C6.57382 5.11526 6.5695 5.12349 6.5695 5.12349L6.57459 5.12564C6.54432 5.22219 6.5031 5.32859 6.45553 5.43792C5.87374 6.09838 5.29094 6.79874 4.7964 7.42835C4.77554 7.45548 4.75672 7.48048 4.73942 7.50388L4.97804 6.94956L4.46239 7.87709C4.40973 7.92975 4.34918 7.97737 4.28203 8.01062C4.26702 7.98641 4.26422 7.9699 4.26549 7.96299ZM4.19349 8.27155C4.20723 8.29097 4.24819 8.3181 4.27057 8.31677C4.2894 8.32342 4.33621 8.31144 4.35707 8.29548C4.38098 8.37927 4.22377 8.44179 4.18688 8.31677C4.18256 8.30161 4.18688 8.28193 4.19349 8.27155ZM2.95309 8.14015C2.98692 8.15239 3.89637 8.81126 3.91519 8.82482L3.10241 8.38301L3.34536 8.54897C3.21562 8.47263 3.10012 8.4056 3.02533 8.36277C2.98997 8.29096 2.96403 8.20665 2.95309 8.14015ZM3.04467 8.51786C3.22503 8.62213 3.53437 8.8038 3.81852 8.9727C3.72542 9.02776 3.63969 9.09772 3.56236 9.18603L3.19679 9.00649L3.13778 9.16263C3.13854 9.16051 3.15711 9.03602 3.15711 9.03602C3.15711 9.03602 3.08664 9.01022 3.00066 8.97936C3.01669 8.81418 3.0317 8.6591 3.04467 8.51786ZM2.84449 9.352C2.83889 9.41531 2.83227 9.47942 2.82566 9.54485L2.82083 9.54406L2.84449 9.352ZM2.97471 10.0079C2.8147 9.85021 2.9826 9.54486 3.19247 9.60816C3.04772 9.70711 2.98209 9.82308 2.97471 10.0079ZM2.95741 9.56003L2.94597 9.55842C2.95894 9.41532 2.97267 9.27275 2.98565 9.1355C3.06985 9.15146 3.13701 9.16343 3.13778 9.16263L3.12633 9.19269L3.4723 9.28632C3.43999 9.31878 3.41176 9.35654 3.3881 9.39857C3.21409 9.35495 3.05485 9.42064 2.95741 9.56003ZM3.67505 12.5171C3.73763 11.3832 3.73254 11.1464 3.78902 10.611C3.80911 10.6216 3.82997 10.6306 3.85083 10.6381C3.77884 11.1624 3.77604 11.3861 3.67505 12.5171ZM3.49748 9.77707C3.32246 9.53288 3.62595 9.18683 3.87398 9.35494C3.64605 9.37595 3.50181 9.52092 3.49748 9.77707ZM4.5995 13.3903C4.52726 13.5502 4.02763 14.495 3.73407 14.7552C3.73636 14.7506 3.73992 14.7453 3.74348 14.74C3.79334 14.6783 4.56261 13.376 4.59212 13.2794C4.6051 13.2826 4.6168 13.2847 4.62749 13.2855C4.62672 13.3103 4.6196 13.3459 4.5995 13.3903ZM4.7473 12.928C4.7674 13.0382 4.75086 13.1174 4.70253 13.1331C4.65419 13.1499 4.53896 13.2683 4.52878 12.8076C4.52599 12.6777 4.44865 11.3183 4.40184 10.4399C4.48198 11.3137 4.5878 12.2721 4.67455 12.9568C4.60662 12.2548 4.51581 11.1539 4.45959 10.1835C4.47816 10.3684 4.71551 12.7599 4.7473 12.928ZM4.18841 9.33899C4.11133 9.26663 4.02458 9.21397 3.93682 9.18445C4.01822 9.09774 4.10827 9.05251 4.21588 9.02618C4.04926 9.01261 3.90069 9.06395 3.78596 9.15811C3.78036 9.15811 3.77528 9.15811 3.76943 9.15811C3.93809 9.02165 4.14516 8.9485 4.35275 8.96207C4.39904 8.98255 4.44941 8.99001 4.50284 8.98841C4.63919 9.02858 4.75951 9.10917 4.84601 9.23419C4.82082 9.22461 4.7964 9.21477 4.77249 9.20493C4.71194 9.1105 4.6051 9.03363 4.46951 9.02326C4.54023 9.05783 4.58856 9.10465 4.61019 9.14003C4.37081 9.04427 4.18841 8.94106 4.18841 9.33899ZM4.59594 10.3351C4.56058 9.97843 4.53158 9.68903 4.5186 9.55763C4.54608 9.56614 4.57635 9.57438 4.60892 9.58342C4.60586 9.64513 4.58729 9.70552 4.56414 9.74914C4.60306 9.72972 4.64911 9.69489 4.68803 9.64834C4.67582 9.74916 4.6397 9.82922 4.58068 9.90902C4.66005 9.85795 4.72695 9.79143 4.77401 9.70472C4.75875 9.86618 4.69388 9.99439 4.59289 10.1058C4.70406 10.0319 4.7964 9.93615 4.86127 9.7848C4.82718 9.96408 4.7529 10.0939 4.63919 10.2144C4.77173 10.1218 4.86254 10.0109 4.91673 9.90236C4.85822 10.0675 4.74934 10.2205 4.59594 10.3351ZM4.6168 9.38873C4.79131 9.4507 5.17137 9.60231 5.36013 9.67227C5.15102 9.61056 4.67582 9.47092 4.46671 9.41294C4.37513 9.29909 4.34129 9.19428 4.33112 9.17858C4.36572 9.17247 4.35783 9.17007 5.63055 9.6829C5.28941 9.59459 4.90223 9.46586 4.6168 9.38873ZM6.03884 9.80659C6.04953 9.97763 5.82897 10.087 5.72569 9.95131C5.88672 9.95051 5.98033 9.84571 5.97957 9.68372C6.02078 9.71697 6.03503 9.75313 6.03884 9.80659ZM6.08285 9.45681C6.07039 9.43181 6.05691 9.40627 6.04164 9.37967C6.04826 9.37302 6.05538 9.36559 6.0625 9.35867C6.06683 9.38873 6.07344 9.42197 6.08285 9.45681ZM5.45095 9.46507C5.97448 9.19881 6.2103 9.0126 6.59977 8.53089C6.39422 9.05171 5.9465 9.39033 5.45095 9.46507ZM6.65396 9.56826C6.56721 9.64594 6.42017 9.64062 6.3581 9.5305C6.51532 9.5563 6.63717 9.49832 6.71145 9.33606C6.74834 9.41826 6.72239 9.50576 6.65396 9.56826ZM7.56299 11.0552C7.48005 10.8977 6.89165 9.78237 6.81381 9.63314C6.81966 9.63022 6.80363 9.63847 6.87436 9.5999L7.56299 11.0552ZM6.90046 8.91525C6.94803 8.89184 6.98263 8.86923 6.9979 8.86099C7.05335 8.87987 7.12407 8.84077 7.17368 8.80912C7.13908 8.9485 6.98136 8.99532 6.90046 8.91525ZM6.78802 8.83253C6.90911 8.54659 7.28256 7.66455 7.40237 7.3818C7.40008 7.38632 6.60919 8.92138 6.60842 8.92378C6.65676 8.80009 6.88037 8.24123 6.92997 8.11755C7.26475 7.28153 7.29706 7.17671 7.33903 7.14639C7.3721 7.16527 7.44486 7.25731 7.46877 7.28976C7.47157 7.33711 7.46877 7.3967 7.4586 7.45788C7.4586 7.45788 7.45707 7.45999 7.45783 7.46159C7.44206 7.55442 7.50769 7.38765 6.78802 8.83253ZM7.2561 8.36572C7.2416 8.32795 7.22354 8.29629 7.20471 8.26995C7.30723 8.067 7.40085 7.8808 7.46954 7.74727C7.51202 7.83558 7.5573 7.93055 7.60512 8.0287C7.46572 8.16356 7.34972 8.27528 7.2561 8.36572ZM9.62422 11.1555C9.77049 11.2188 11.3294 11.8454 11.4614 11.8779C11.4744 11.8808 11.4932 11.8883 11.5019 11.8981C11.189 11.8899 10.5751 11.6643 10.1152 11.4736C10.1172 11.4736 10.8695 11.6795 10.8715 11.6803C9.95646 11.335 9.72877 11.2656 9.51508 11.1132C9.52094 11.1086 9.52603 11.1033 9.53112 11.0983C9.55198 11.114 9.57944 11.1358 9.62422 11.1555ZM9.35304 10.6474C9.45836 10.82 9.48049 10.9118 9.4726 10.9618C9.46981 10.9767 9.46472 10.9889 9.4576 10.9972C9.41715 11.044 9.38459 11.0477 9.34439 11.0522C9.32989 11.0544 9.31412 11.056 9.30038 11.0589C9.2144 11.0794 9.14241 11.0235 9.10119 10.9052C9.05235 10.7626 8.30444 9.20119 7.85799 8.27287C7.48963 7.50761 7.42756 7.39296 7.84654 8.20345C8.34489 9.16715 8.71121 9.90236 9.23602 10.8945C8.62904 9.66856 8.09686 8.51281 7.58401 7.48048C7.98722 8.18696 9.25204 10.483 9.35304 10.6474ZM10.0208 9.02165L9.36805 7.72174C9.39196 7.72253 9.41562 7.72253 9.43953 7.72253L10.0208 9.02165ZM9.70563 6.4838C9.71199 6.54019 9.75243 6.66627 9.59445 6.76655C9.47922 6.84023 8.11976 7.90953 8.01241 7.99386C8.01088 7.99093 8.0096 7.988 8.00731 7.9848C8.31818 7.70817 9.25281 6.87508 9.56495 6.59685C9.40061 6.72879 8.12841 7.74594 7.95262 7.88612C7.94957 7.88239 7.94753 7.87787 7.94524 7.87335C9.41918 6.45667 9.6031 6.2545 9.655 6.30584C9.6896 6.33962 9.69978 6.42927 9.70563 6.4838ZM9.99334 6.38566C10.0208 6.47397 10.0208 6.47397 10.0343 6.52451C10.0287 6.51919 10.0236 6.51385 10.0185 6.50933C10.0122 6.47235 10.0122 6.47237 9.99334 6.38566ZM12.7191 9.48687C12.6736 9.55097 12.6202 9.54405 12.5596 9.56374C12.5136 9.5797 12.3945 9.59859 12.2887 9.44618C12.189 9.30281 10.5868 7.49113 10.4744 7.36371C11.2292 8.16888 11.7016 8.64155 12.4032 9.42357C11.5856 8.44258 11.1297 7.97443 10.0452 6.7091C10.6906 7.35068 12.3902 9.07219 12.5258 9.19801C12.7486 9.40468 12.7298 9.47091 12.7191 9.48687ZM13.0537 9.87149C13.6716 10.1202 14.2226 10.3373 14.6617 10.4604C14.0893 10.2559 13.3292 9.8707 12.7754 9.60816C12.8618 9.57571 12.8308 9.62412 12.9664 9.6829C13.1987 9.78478 15.0094 10.5085 15.1549 10.5439C15.1954 10.5538 15.2083 10.5681 15.2236 10.5923C14.7222 10.5945 13.5367 10.0955 13.0537 9.87149Z" fill="#E6E6E6"/>
<path d="M3.54887 14.1676C3.54811 14.1737 3.5475 14.1798 3.5475 14.1798C3.5475 14.1798 3.54811 14.1782 3.54887 14.1676Z" fill="white"/>
<path d="M1.21772 9.04876L1.72625 8.9312C1.72472 8.96445 1.72269 8.98918 1.72269 8.98918C1.72269 8.98918 2.04856 8.96816 2.1119 8.96284L2.1091 8.99158L2.65655 9.03519L2.66367 8.91071L2.1292 8.78409L2.11775 8.89873C2.11572 8.86708 2.11266 8.83623 2.11266 8.83623C2.09537 8.83383 1.7326 8.80299 1.7326 8.80299C1.7326 8.80299 1.72981 8.8498 1.72828 8.89502L1.71098 8.86178L1.19762 8.97642C1.17168 8.98466 1.16939 9.04797 1.21772 9.04876Z" fill="#E6E6E6"/>
<path d="M2.09361 9.63528L1.60976 9.70471L1.6525 9.90395L2.12973 9.75766L2.09361 9.63528Z" fill="#CCCCCC"/>
<path d="M0.789468 10.2644C0.789468 10.2644 1.07209 10.0931 1.12603 10.059L1.1362 10.0856L1.64447 9.86989L1.59766 9.75526L1.06548 9.89037L1.1044 9.9989C1.08863 9.97177 1.07286 9.94516 1.07286 9.94516C1.05683 9.95128 0.718749 10.0931 0.718749 10.0931C0.718749 10.0931 0.736807 10.1362 0.754106 10.1776L0.724343 10.1556L0.314777 10.4979C0.293917 10.5176 0.319862 10.5756 0.363108 10.5538L0.768352 10.2106C0.780817 10.2409 0.789468 10.2644 0.789468 10.2644Z" fill="#CCCCCC"/>
<path d="M6.22662 15.2089L4.76057 14.6804L9.21774 1.1748L10.6838 1.70333L6.22662 15.2089Z" fill="white"/>
<path d="M10.9946 2.25821C10.6858 2.07653 9.97983 1.97173 9.40287 2.46249C7.88874 3.69617 6.02533 5.83744 4.82257 7.36824C4.58955 7.66615 4.59031 7.66747 4.58751 7.72173C4.58446 7.77227 4.60125 7.82574 4.63788 7.88532L4.60914 7.9223C4.63585 7.94198 4.66383 7.95475 4.69283 7.9614C4.72361 7.99837 4.76126 8.03773 4.80603 8.07923C4.91975 8.18403 5.07213 8.18085 5.16295 8.14467C5.56514 7.96912 7.49418 6.95647 8.43898 6.18296C9.49241 5.32114 11.5878 2.60746 10.9946 2.25821ZM10.4889 3.57089C10.2553 3.65308 9.57458 3.92386 8.83252 4.50452C9.25735 4.04515 9.70152 3.74884 10.2935 3.51662C9.73332 3.69165 9.28534 3.93132 8.84118 4.32659C8.89027 4.25344 8.92716 4.19517 8.96175 4.13798C9.20546 3.77224 9.75266 3.37724 10.148 3.14955C10.6303 2.87212 10.846 2.67824 10.9844 2.54338C10.9549 2.7583 10.7667 3.1336 10.4889 3.57089ZM9.80531 4.53618C9.48376 4.62742 9.04672 4.81204 8.66819 5.03521C8.67327 5.02324 8.67837 5.0118 8.6832 5.00062L9.70813 4.44255L8.73229 4.82719C8.73662 4.79634 8.73738 4.76841 8.73535 4.74261C9.40084 4.18402 10.0404 3.88158 10.3729 3.74805C10.205 4.00155 10.0109 4.26992 9.80531 4.53618ZM8.63435 5.84568C8.56948 5.84062 8.45908 5.84727 8.3212 5.86855C8.6486 5.67996 8.83049 5.44696 8.96532 5.22219C8.79513 5.43951 8.61705 5.59245 8.40845 5.70177C8.59594 5.5193 8.75621 5.34429 8.92284 5.14905C8.67684 5.37994 8.44458 5.57728 8.14389 5.7946C8.31204 5.6076 8.4512 5.42193 8.5527 5.25462C8.89307 5.02853 9.32731 4.8288 9.66616 4.71176C9.33087 5.13017 8.9704 5.53207 8.63435 5.84568ZM5.64679 7.76084C6.25758 7.38765 6.76942 7.04158 7.32043 6.64738C6.64833 7.07776 6.02609 7.44882 5.22705 7.86882C5.68495 7.52569 6.58982 6.84793 7.02763 6.51677C7.50563 6.15635 8.18001 5.99729 8.4952 5.97255C7.77604 6.60429 6.49035 7.32354 5.64679 7.76084ZM4.71064 7.71642L4.71573 7.71268C4.76203 7.64698 4.82893 7.55734 4.91415 7.44722C5.06068 7.26102 6.44711 5.66719 7.25403 4.96815C7.67581 4.60401 7.75518 4.6418 7.75823 4.64313C7.92689 4.78943 7.40489 5.5201 7.27438 5.67917C6.80732 6.29654 6.5654 6.51014 5.14336 7.67573C5.34382 7.47224 5.70581 7.09745 6.38936 6.39389C4.80604 7.83718 4.83682 7.83185 4.74676 7.82892C4.73023 7.80392 4.69563 7.74062 4.71064 7.71642ZM7.99405 3.93451C7.97676 4.06857 7.97014 4.2186 7.98159 4.30398C7.90731 4.3899 7.84752 4.46755 7.81089 4.53005C7.78774 4.51888 7.76103 4.51412 7.73076 4.51731C7.54836 4.5354 7.14439 4.88067 6.6931 5.32488C7.1042 4.86497 7.54684 4.3867 7.99405 3.93451ZM8.74323 3.2054C8.62265 3.43229 8.49291 3.68021 8.4194 3.85443C8.34791 3.92146 8.27744 3.99009 8.20952 4.05818C8.27872 3.8938 8.36673 3.74673 8.49444 3.58846C8.32552 3.7345 8.20367 3.88076 8.10344 4.04382C8.11158 3.94646 8.12659 3.8454 8.14618 3.7813C8.34587 3.58153 8.54557 3.3884 8.74323 3.2054ZM9.97118 2.28987C9.69644 2.56225 9.18308 3.0998 8.9905 3.39373C8.94497 3.41953 8.88748 3.45946 8.82261 3.5092L9.25379 2.90217L8.76562 3.42408C8.85135 3.26023 8.94064 3.0953 9.00932 2.96256C9.52548 2.50186 9.68931 2.37578 9.97118 2.28987ZM10.4499 2.23426C10.1999 2.47392 9.56822 3.07321 9.20622 3.44267C9.19757 3.41634 9.18027 3.38551 9.15712 3.36982C9.43899 2.99131 10.062 2.36462 10.2006 2.24173C10.2871 2.23109 10.3708 2.22974 10.4499 2.23426ZM10.962 2.39255C10.383 2.9663 10.0612 2.97828 9.40795 3.50388C9.70585 3.17963 9.95667 2.98519 10.15 2.84182C9.961 2.95433 9.80022 3.06205 9.65547 3.17058C10.0419 2.79286 10.4861 2.37287 10.6079 2.2537C10.7328 2.27631 10.9216 2.33909 10.962 2.39255ZM7.76688 6.005C7.19272 6.19652 6.97929 6.39841 6.48908 6.76707C6.8956 6.39628 7.23597 6.05023 7.58652 5.66853C7.3881 5.85872 7.19425 6.03879 6.99099 6.21754C7.10267 6.09013 7.23597 5.93106 7.36596 5.76136C7.60102 5.47488 8.26727 4.72851 8.54048 4.71042C8.59899 4.70564 8.60764 4.72852 8.6112 4.73677C8.66819 4.87907 8.37539 5.42966 7.76688 6.005ZM8.50436 4.58805C8.37259 4.61146 8.19502 4.73596 8.01568 4.89343L8.72441 4.02786L7.88009 4.88357C7.90883 4.78489 7.91545 4.69817 7.89153 4.63035C7.94623 4.45984 8.86153 3.55735 9.09073 3.48367C9.10651 3.53341 9.0892 3.61159 9.05257 3.70442C9.05028 3.70682 9.04825 3.70816 9.04596 3.71055L9.04901 3.71347C8.93072 4.00314 8.6257 4.42899 8.50436 4.58805Z" fill="#E6E6E6"/>
<path d="M3.76707 14.8854L3.93929 14.9894C3.93929 14.9894 4.06395 14.8652 4.13263 14.7876C4.20106 14.7099 4.64599 14.0968 4.80321 13.6385L4.65464 13.5539C4.65464 13.5539 4.14128 14.5681 3.76707 14.8854Z" fill="black" fill-opacity="0.4"/>
<path d="M1.64018 12.9455L1.78645 13.1323C1.78645 13.1323 1.98997 12.9868 2.15939 12.8014C2.32805 12.616 2.76433 12.076 2.85082 11.9334L2.71472 11.7451C2.71472 11.7451 2.66283 11.81 2.60635 11.8191C2.60635 11.8191 2.40971 12.2202 1.64018 12.9455Z" fill="black" fill-opacity="0.4"/>
<path d="M13.3793 10.1526L13.2725 10.4444C13.2725 10.4444 14.1646 10.7444 14.7942 10.8282L14.8497 10.6675C14.8497 10.6675 13.6721 10.2808 13.3793 10.1526Z" fill="black" fill-opacity="0.4"/>
<path d="M7.31196 6.94365L7.18579 7.32588C7.18579 7.32588 8.51345 6.84868 9.20564 6.17598L9.603 4.97183C9.603 4.97183 7.93089 6.60796 7.31196 6.94365Z" fill="black" fill-opacity="0.4"/>
<path d="M11.0514 2.71594C11.0514 2.71594 11.1536 2.7867 11.2106 2.82979C11.2106 2.82979 11.1905 2.46855 11.0455 2.30576C11.0455 2.30576 11.1127 2.58028 11.0514 2.71594Z" fill="black" fill-opacity="0.4"/>
<path d="M8.54092 3.22261L8.6152 2.99707L9.17613 2.65102C9.17613 2.65102 8.68084 3.18112 8.54092 3.22261Z" fill="black" fill-opacity="0.4"/>
<path d="M0.386057 10.5319L0.417858 10.629L0.789268 10.2829L0.800714 10.3268L1.13168 10.1058L1.14465 10.1563L1.6547 9.92567L1.66615 9.9693L1.82845 9.91211L1.79818 9.81769L1.51326 9.88046L1.11438 10.0183L0.849812 10.1262L0.683186 10.2446L0.36596 10.4925L0.386057 10.5319Z" fill="black" fill-opacity="0.4"/>
<path d="M1.18157 9.02612C1.18157 9.02612 1.18107 9.05324 1.21693 9.07213C1.2523 9.09021 1.63668 9.06762 1.63668 9.06762L1.61658 8.93941L1.18157 9.02612Z" fill="black" fill-opacity="0.4"/>
</svg>
