<svg width="16" height="16" viewBox="0 0 16 16" fill="none" xmlns="http://www.w3.org/2000/svg">
<path d="M1.33308 16C0.977628 16 0.666598 15.8669 0.399698 15.6001C0.133417 15.3337 0 15.0224 0 14.6669V10.8446H1.33308V14.6669H5.15544V16H1.33308ZM10.8444 16V14.6665L14.6671 14.6669V10.8446H16.0002V14.6669C16.0002 15.0224 15.8669 15.3337 15.6001 15.6001C15.3332 15.8669 15.0223 16 14.6671 16H10.8444ZM0 5.15544V1.33308C0 0.977627 0.133417 0.666254 0.399698 0.399508C0.666598 0.133073 0.977628 -1.96625e-07 1.33308 -1.96625e-07H5.15544V1.33308H1.33308V5.15544H0ZM14.6671 5.15544V1.33308H10.8444V-1.96625e-07H14.6671C15.0223 -1.96625e-07 15.3332 0.133073 15.6001 0.399508C15.8669 0.666254 16.0002 0.977627 16.0002 1.33308V5.15544H14.6671Z" fill="white"/>
</svg>
