<svg width="15" height="16" viewBox="0 0 15 16" fill="none" xmlns="http://www.w3.org/2000/svg">
<path fill-rule="evenodd" clip-rule="evenodd" d="M11.892 11.5249C11.7721 11.9452 11.1782 12.5733 10.9151 12.7878C10.632 13.0189 9.89296 13.5033 9.40688 13.5708C9.21285 13.145 8.41023 12.7537 7.68411 12.9788C6.29495 13.4095 6.21636 15.3198 7.53418 15.8759C8.32724 16.2106 9.21168 15.8406 9.55827 15.098C9.65776 14.8849 9.58327 14.8171 9.81157 14.7436C11.0923 14.3304 11.9266 13.6971 12.6577 12.6731C12.8584 12.3921 12.9413 12.1711 13.1038 11.8762C13.1722 11.7525 13.3498 11.7341 13.4867 11.6523C13.9179 11.3938 14.1177 11.031 14.1645 10.4828C15.1671 10.4096 14.9859 9.52693 14.9859 8.63175C14.9859 7.75034 15.1737 6.78434 14.1777 6.73484C14.0862 6.42524 14.144 6.16815 13.7751 5.8019C13.5604 5.58839 13.2961 5.39424 12.8747 5.3679C12.0922 5.31959 11.4753 5.90789 11.414 6.5975L11.4147 10.6243C11.4616 11.0986 11.6852 11.29 11.892 11.5249ZM0.839075 6.73161C-0.172423 6.80256 0.0134195 7.69101 0.0134195 8.60008C0.0134195 9.48374 -0.170165 10.419 0.833866 10.4821C0.96042 11.8107 2.17503 12.1029 2.94049 11.6452C3.31095 11.4237 3.58395 11.0288 3.59262 10.4443V6.78784C3.57368 4.92641 0.90682 4.91121 0.839075 6.73161ZM1.61964 4.70608C1.8014 4.71098 2.02187 4.63107 2.27551 4.63822C2.55075 4.64537 2.72154 4.73015 2.94798 4.7565C3.13655 4.42254 3.11468 4.11885 3.58676 3.41573C3.87254 2.99018 4.18364 2.6714 4.5485 2.3671C5.22808 1.79939 6.31055 1.31025 7.52848 1.30231C8.75548 1.2945 9.80897 1.77288 10.52 2.32444C11.1233 2.79195 11.8956 3.70551 12.1443 4.72418C12.3753 4.71068 12.5379 4.63175 12.8139 4.63467C13.0978 4.63811 13.2478 4.70311 13.4977 4.75262C13.458 4.19775 12.9862 3.25985 12.7359 2.85958C12.3681 2.27083 11.9655 1.83014 11.4866 1.42802C10.5578 0.648261 9.22496 -0.000396866 7.56055 2.24652e-07C4.51112 0.000397316 2.16319 2.18509 1.61964 4.70608Z" fill="white"/>
</svg>
