<svg width="16" height="16" viewBox="0 0 16 16" fill="none" xmlns="http://www.w3.org/2000/svg">
<path fill-rule="evenodd" clip-rule="evenodd" d="M0 15.2642V16H0.736549C1.02864 15.8459 3.83241 15.3389 4.41857 15.2158C6.3714 14.8062 5.61482 15.1943 7.22925 13.6009L13.9611 6.91641C16.4524 4.42726 16.5236 4.84313 14.9165 3.26942C14.0032 2.37519 12.3722 0.647964 11.5616 1.89932e-07H11.2507C10.4223 0.664818 5.43 5.72019 4.56955 6.57853L1.24651 9.89006C0.816282 10.383 0.307331 14.6696 0 15.2642ZM2.479 10.2662C2.686 10.7597 5.11771 12.9001 5.65855 13.5453L14.6056 4.6558C14.4077 4.22871 13.7672 3.84662 13.4777 3.42964C13.2252 3.57795 8.85834 7.97831 8.20133 8.64551C7.46654 9.39182 6.9583 8.78219 7.043 8.29165C7.08554 8.04262 7.25773 7.96728 7.3824 7.82452C8.5581 6.47506 11.2028 4.04599 12.5957 2.58688L11.4166 1.41446L2.479 10.2662ZM1.32502 14.6698L4.4635 14.0332C4.25314 13.6638 3.10117 12.595 2.67926 12.1734C2.55479 12.0491 2.481 11.9764 2.3587 11.8515L1.99634 11.5582L1.32502 14.6698Z" fill="white"/>
</svg>
