<svg width="216" height="201" viewBox="0 0 216 201" fill="none" xmlns="http://www.w3.org/2000/svg">
<path fill-rule="evenodd" clip-rule="evenodd" d="M44.1401 29.1651C26.5028 44.7925 26.4527 56.1252 34.2839 90.0389C52.0207 125.579 28.3457 174.171 68.3817 187.089C102.834 193.522 132.961 195.864 152.614 188.302C162.833 184.37 166.761 176.499 171.183 166.66C176.144 155.612 180.131 151.521 186.464 141.814C204.851 113.64 208.965 84.3064 188.977 53.0159L163.762 18.5586C153.515 -6.36173 104.277 -3.27052 70.5539 11.864C60.4467 16.4001 52.382 21.8643 44.1401 29.1651Z" fill="#FFE9E9" fill-opacity="0.7"/>
<path fill-rule="evenodd" clip-rule="evenodd" d="M176.419 200.16C177.276 190.98 173.736 172.45 184.36 163.185L190.215 176.97L185.812 162.165C186.511 161.157 187.542 160.432 188.777 159.882L192.566 168.753L191.098 158.459C193.423 156.523 196.056 155.019 199.027 153.989L202.845 160.989L201.963 152.989C203.835 150.909 209.044 150.371 212.006 147.519C213.298 153.577 215.489 159.058 215.882 165.694L205.663 171.635L216 167.694C216.001 175.921 213.584 180.831 210.332 184.598L196.407 182.508L208.682 185.764C201.413 192.247 190.252 196.85 176.419 200.16Z" fill="#18DF80"/>
<path fill-rule="evenodd" clip-rule="evenodd" d="M176.419 200.16C177.276 190.98 173.736 172.45 184.36 163.185L190.215 176.97L185.812 162.165C186.511 161.157 187.542 160.432 188.777 159.882L192.566 168.753L191.098 158.459C193.423 156.523 196.056 155.019 199.027 153.989L202.845 160.989L201.963 152.989C203.835 150.909 209.044 150.371 212.006 147.519C210.576 154.538 201.768 179.718 176.419 200.16Z" fill="#16C973"/>
<path fill-rule="evenodd" clip-rule="evenodd" d="M39.581 59.9389C38.7245 50.7583 42.2645 32.2297 31.6408 22.9644L25.7851 36.7485L30.1886 21.9438C29.4892 20.9359 28.4588 20.2108 27.223 19.6617L23.434 28.5317L24.9025 18.2385C22.5781 16.3022 19.9447 14.7983 16.9735 13.7678L13.156 20.7676L14.0375 12.7687C12.1656 10.6879 6.95718 10.1505 3.99433 7.29828C2.70221 13.3564 0.511124 18.837 0.117705 25.4735L10.3372 31.4144L3.37613e-07 27.4729C-0.00104321 35.6996 2.41721 40.6098 5.6687 44.3769L19.5925 42.2868L7.3181 45.543C14.5879 52.0265 25.7485 56.6287 39.581 59.9389Z" fill="#F84C6B"/>
<path fill-rule="evenodd" clip-rule="evenodd" d="M39.5806 59.9389C38.7241 50.7583 42.2641 32.2297 31.6404 22.9644L25.7847 36.7485L30.1882 21.9438C29.4888 20.9359 28.4584 20.2108 27.2226 19.6617L23.4336 28.5317L24.9021 18.2385C22.5777 16.3022 19.9443 14.7983 16.9731 13.7678L13.1556 20.7676L14.0371 12.7687C12.1652 10.6879 6.95679 10.1505 3.99395 7.29828C5.42382 14.3175 14.2316 39.4962 39.5806 59.9389Z" fill="#DF4460"/>
<path d="M115.331 83.7595C111.087 83.7595 107.615 82.4069 104.914 79.7016C102.213 76.9973 100.863 73.5202 100.863 69.2696C100.863 65.019 102.213 61.5414 104.914 58.8361C107.615 56.1318 111.087 54.7797 115.331 54.7797C119.575 54.7797 123.047 56.1318 125.748 58.8361C128.449 61.5408 129.799 65.019 129.799 69.2696C129.799 73.5202 128.449 76.9973 125.748 79.7016C123.048 82.4063 119.575 83.7595 115.331 83.7595ZM84.4655 114.767V105.687C84.4655 103.24 85.0763 101.147 86.2973 99.4077C87.5197 97.6693 89.0952 96.349 91.0238 95.4473C95.332 93.5152 99.464 92.0666 103.419 91.1001C107.373 90.1344 111.344 89.6519 115.331 89.6519C119.318 89.6519 123.272 90.1506 127.195 91.1491C131.118 92.1467 135.232 93.5793 139.541 95.4473C141.534 96.349 143.142 97.6693 144.364 99.4077C145.586 101.147 146.196 103.24 146.196 105.687V114.767H84.4655ZM90.2524 108.971H140.409V105.687C140.409 104.656 140.104 103.674 139.493 102.74C138.882 101.807 138.127 101.115 137.226 100.664C133.111 98.6674 129.349 97.2989 125.941 96.5577C122.533 95.8178 118.996 95.4473 115.331 95.4473C111.665 95.4473 108.097 95.8178 104.625 96.5577C101.152 97.2985 97.3902 98.6674 93.3387 100.664C92.439 101.115 91.6994 101.807 91.1207 102.74C90.5415 103.674 90.2524 104.656 90.2524 105.687V108.971ZM115.331 77.963C117.839 77.963 119.913 77.1423 121.553 75.4998C123.192 73.8576 124.012 71.7812 124.012 69.2696C124.012 66.758 123.192 64.6813 121.553 63.0389C119.913 61.3964 117.839 60.5757 115.331 60.5757C112.823 60.5757 110.749 61.3964 109.109 63.0389C107.47 64.6813 106.65 66.758 106.65 69.2696C106.65 71.7812 107.47 73.8576 109.109 75.4998C110.749 77.1423 112.823 77.963 115.331 77.963Z" fill="#DC0000"/>
</svg>
