<svg width="28" height="28" viewBox="0 0 28 28" fill="none" xmlns="http://www.w3.org/2000/svg">
<path d="M4.96966 21.875C6.43994 20.8481 7.89832 20.0609 9.34461 19.5125C10.7914 18.9641 12.3432 18.69 13.9996 18.69C15.6562 18.69 17.2138 18.9641 18.6719 19.5125C20.1302 20.0609 21.5942 20.8481 23.0644 21.875C24.0909 20.6149 24.8204 19.3433 25.2521 18.0599C25.6834 16.7765 25.8993 15.4234 25.8993 14C25.8993 10.617 24.7622 7.78751 22.4872 5.51247C20.2121 3.23743 17.3828 2.10049 13.9996 2.10049C10.6164 2.10049 7.78731 3.23743 5.51228 5.51247C3.23724 7.78751 2.10011 10.617 2.10011 14C2.10011 15.4234 2.32171 16.7765 2.76498 18.0599C3.20824 19.3433 3.94327 20.6149 4.96966 21.875ZM13.9996 15.0499C12.6465 15.0499 11.5087 14.5895 10.5873 13.6677C9.66554 12.7462 9.20449 11.6085 9.20449 10.2553C9.20449 8.90215 9.66554 7.76446 10.5873 6.84258C11.5087 5.92116 12.6465 5.45999 13.9996 5.45999C15.3529 5.45999 16.4906 5.92116 17.412 6.84258C18.3339 7.76446 18.7947 8.90215 18.7947 10.2553C18.7947 11.6085 18.3339 12.7462 17.412 13.6677C16.4906 14.5895 15.3529 15.0499 13.9996 15.0499ZM13.9996 28C12.0862 28 10.2778 27.6325 8.57499 26.8969C6.87171 26.1622 5.38393 25.1588 4.11239 23.8872C2.841 22.6158 1.83739 21.1279 1.10272 19.4246C0.367582 17.7218 0 15.9135 0 14C0 12.0637 0.367115 10.2496 1.10272 8.55788C1.83739 6.86597 2.841 5.38416 4.11239 4.11277C5.38393 2.84123 6.87171 1.83777 8.57499 1.1031C10.2778 0.367962 12.0862 0 13.9996 0C15.9361 0 17.7502 0.367495 19.4419 1.1031C21.1337 1.83777 22.6155 2.84123 23.887 4.11277C25.1586 5.38416 26.162 6.86597 26.8967 8.55788C27.6318 10.2496 27.9996 12.0637 27.9996 14C27.9996 15.9135 27.6323 17.7218 26.8967 19.4246C26.162 21.1279 25.1586 22.6158 23.887 23.8872C22.6155 25.1588 21.1337 26.1622 19.4419 26.8969C17.7502 27.632 15.9361 28 13.9996 28ZM13.9996 25.8995C15.2832 25.8995 16.5371 25.7133 17.7622 25.3398C18.9873 24.9663 20.1947 24.3133 21.3844 23.3796C20.1947 22.5398 18.9815 21.8981 17.7445 21.4544C16.5078 21.0113 15.2596 20.7901 13.9996 20.7901C12.7396 20.7901 11.4916 21.0113 10.2549 21.4544C9.01827 21.8981 7.80474 22.5398 6.61481 23.3796C7.80474 24.3133 9.01215 24.9663 10.2374 25.3398C11.4626 25.7133 12.7162 25.8995 13.9996 25.8995ZM13.9996 12.9501C14.793 12.9501 15.4403 12.6992 15.9423 12.1972C16.4438 11.6956 16.6946 11.0482 16.6946 10.2553C16.6946 9.46192 16.4438 8.81413 15.9423 8.31262C15.4403 7.81064 14.793 7.56011 13.9996 7.56011C13.2062 7.56011 12.5591 7.81064 12.0571 8.31262C11.5556 8.81413 11.3048 9.46192 11.3048 10.2553C11.3048 11.0482 11.5556 11.6956 12.0571 12.1972C12.5591 12.6992 13.2062 12.9501 13.9996 12.9501Z" fill="#1A1A1A"/>
</svg>
