<svg width="27" height="32" viewBox="0 0 27 32" fill="none" xmlns="http://www.w3.org/2000/svg">
<path d="M0.5 27.2V24.7993H3.91207V12.5605C3.91207 10.3203 4.58244 8.32723 5.92325 6.58103C7.26378 4.83397 9.03067 3.73421 11.2245 3.28077V2.1208C11.2245 1.50708 11.4479 1.00099 11.8946 0.60087C12.3421 0.200752 12.8774 0 13.4998 0C14.122 0 14.6572 0.200752 15.1047 0.60087C15.5514 1.00099 15.7748 1.50708 15.7748 2.1208V3.28077C17.9689 3.73336 19.7423 4.83397 21.0973 6.58103C22.4511 8.32723 23.1279 10.3203 23.1279 12.5605V24.7993H26.5V27.2H0.5ZM13.4998 32C12.6335 32 11.8748 31.6863 11.2245 31.0601C10.5751 30.4326 10.25 29.6797 10.25 28.7993H16.7496C16.7496 29.6797 16.4318 30.4326 15.7946 31.0601C15.1585 31.6863 14.3931 32 13.4998 32ZM6.35003 24.7993H20.6906V12.5605C20.6906 10.587 20.0002 8.90743 18.6183 7.52028C17.2372 6.1337 15.5451 5.44056 13.5401 5.44056C11.5366 5.44056 9.8368 6.1337 8.44182 7.52028C7.04684 8.90743 6.35003 10.587 6.35003 12.5605V24.7993Z" fill="#1A1A1A"/>
</svg>
