<svg width="32" height="32" viewBox="0 0 32 32" fill="none" xmlns="http://www.w3.org/2000/svg">
<path d="M11.1275 32L8.36351 27.0479L2.87255 25.8665L3.49122 20.2675L0 16L3.49122 11.7717L2.87255 6.17149L8.36351 4.9909L11.1275 0L15.9998 2.36195L20.8725 0L23.6724 4.9909L29.1278 6.17149L28.5092 11.7717L32 16L28.5092 20.2675L29.1278 25.8665L23.6724 27.0479L20.8725 32L15.9998 29.6381L11.1275 32ZM12.1089 28.9903L15.9998 27.2761L20 28.9903L22.4366 25.1808L26.6913 24.0378L26.2542 19.5049L29.1997 16L26.2542 12.4187L26.6913 7.88571L22.4366 6.81961L19.9271 3.01007L15.9998 4.72428L11.9996 3.01007L9.56344 6.81961L5.3087 7.88648L5.74547 12.4194L2.79994 16L5.74547 19.5049L5.3087 24.1147L9.56344 25.1808L12.1089 28.9903ZM14.4361 21.0666L22.6911 12.4951L21.0551 10.9334L14.4368 17.7907L10.9823 14.0192L9.30893 15.7334L14.4361 21.0666Z" fill="#DC0000"/>
</svg>
