<svg width="21" height="21" viewBox="0 0 21 21" fill="none" xmlns="http://www.w3.org/2000/svg">
<path d="M1.96311 20.6719C1.51861 20.6719 1.12899 20.5221 0.795927 20.2218C0.462866 19.9219 0.296875 19.5719 0.296875 19.1718V3.67151C0.296875 3.27222 0.462866 2.92183 0.795927 2.62152C1.12899 2.32158 1.51861 2.17192 1.96311 2.17192H3.76872V0.671875H5.57433V2.17192H15.0194V0.671875H16.825V2.17192H18.6306C19.0751 2.17192 19.4635 2.32158 19.7968 2.62152C20.1299 2.92183 20.2969 3.27222 20.2969 3.67151V19.1718C20.2969 19.5719 20.1299 19.9219 19.7968 20.2218C19.4635 20.5221 19.0751 20.6719 18.6306 20.6719H1.96311ZM1.96311 19.1718H18.6306V8.42204H1.96311V19.1718ZM1.96311 6.92199H18.6306V3.67151H1.96311V6.92199ZM10.2964 12.6722C9.98114 12.6722 9.71827 12.5762 9.50526 12.3845C9.29245 12.193 9.18554 11.9554 9.18554 11.6721C9.18554 11.3889 9.29245 11.1511 9.50526 10.9596C9.71827 10.7679 9.98114 10.6719 10.2964 10.6719C10.6112 10.6719 10.8747 10.7679 11.0875 10.9596C11.3005 11.1511 11.4072 11.3889 11.4072 11.6721C11.4072 11.9554 11.3011 12.193 11.0875 12.3845C10.8747 12.5762 10.6112 12.6722 10.2964 12.6722ZM5.85203 12.6722C5.53723 12.6722 5.27394 12.5762 5.06093 12.3845C4.84791 12.193 4.74121 11.9554 4.74121 11.6721C4.74121 11.3889 4.84791 11.1511 5.06093 10.9596C5.27394 10.7679 5.53723 10.6719 5.85203 10.6719C6.16725 10.6719 6.43012 10.7679 6.64314 10.9596C6.85615 11.1511 6.96286 11.3889 6.96286 11.6721C6.96286 11.9554 6.85615 12.193 6.64314 12.3845C6.43012 12.5762 6.16725 12.6722 5.85203 12.6722ZM14.7417 12.6722C14.4265 12.6722 14.1626 12.5762 13.9496 12.3845C13.7366 12.193 13.6299 11.9554 13.6299 11.6721C13.6299 11.3889 13.7366 11.1511 13.9496 10.9596C14.1626 10.7679 14.4265 10.6719 14.7417 10.6719C15.0563 10.6719 15.3198 10.7679 15.5328 10.9596C15.7452 11.1511 15.8515 11.3889 15.8515 11.6721C15.8515 11.9554 15.7452 12.193 15.5328 12.3845C15.3198 12.5762 15.0563 12.6722 14.7417 12.6722ZM10.2964 16.6721C9.98114 16.6721 9.71827 16.5765 9.50526 16.3848C9.29245 16.1931 9.18554 15.9552 9.18554 15.6719C9.18554 15.3887 9.29245 15.1511 9.50526 14.9594C9.71827 14.7677 9.98114 14.6717 10.2964 14.6717C10.6112 14.6717 10.8747 14.7677 11.0875 14.9594C11.3005 15.1511 11.4072 15.3887 11.4072 15.6719C11.4072 15.9552 11.3011 16.1931 11.0875 16.3848C10.8747 16.5765 10.6112 16.6721 10.2964 16.6721ZM5.85203 16.6721C5.53723 16.6721 5.27394 16.5765 5.06093 16.3848C4.84791 16.1931 4.74121 15.9552 4.74121 15.6719C4.74121 15.3887 4.84791 15.1511 5.06093 14.9594C5.27394 14.7677 5.53723 14.6717 5.85203 14.6717C6.16725 14.6717 6.43012 14.7677 6.64314 14.9594C6.85615 15.1511 6.96286 15.3887 6.96286 15.6719C6.96286 15.9552 6.85615 16.1931 6.64314 16.3848C6.43012 16.5765 6.16725 16.6721 5.85203 16.6721ZM14.7417 16.6721C14.4265 16.6721 14.1626 16.5765 13.9496 16.3848C13.7366 16.1931 13.6299 15.9552 13.6299 15.6719C13.6299 15.3887 13.7366 15.1511 13.9496 14.9594C14.1626 14.7677 14.4265 14.6717 14.7417 14.6717C15.0563 14.6717 15.3198 14.7677 15.5328 14.9594C15.7452 15.1511 15.8515 15.3887 15.8515 15.6719C15.8515 15.9552 15.7452 16.1931 15.5328 16.3848C15.3198 16.5765 15.0563 16.6721 14.7417 16.6721Z" fill="#1A1A1A"/>
</svg>
