<svg width="48" height="48" viewBox="0 0 48 48" fill="none" xmlns="http://www.w3.org/2000/svg">
<path fill-rule="evenodd" clip-rule="evenodd" d="M0 0H48V48H0V0Z" fill="#DC0000"/>
<path d="M24.0095 30.7428C25.4565 30.7428 26.6722 30.2351 27.6567 29.2195C28.6419 28.204 29.1338 26.9413 29.1338 25.4288C29.1338 23.9373 28.6419 22.6889 27.6567 21.6842C26.6722 20.6792 25.4565 20.177 24.0095 20.177C22.5424 20.177 21.3213 20.6792 20.3468 21.6842C19.3721 22.6889 18.8846 23.9373 18.8846 25.4288C18.8846 26.9413 19.3721 28.204 20.3468 29.2195C21.3213 30.2351 22.5424 30.7428 24.0095 30.7428ZM24.0095 28.8782C23.0447 28.8782 22.2504 28.5516 21.6273 27.8991C21.0044 27.2465 20.6929 26.4235 20.6929 25.4288C20.6929 24.4553 21.0044 23.6476 21.6273 23.0053C22.2504 22.3633 23.0447 22.0416 24.0095 22.0416C24.9537 22.0416 25.7425 22.3633 26.3756 23.0053C27.0087 23.6476 27.3255 24.4553 27.3255 25.4288C27.3255 26.4235 27.0087 27.2465 26.3756 27.8991C25.7425 28.5516 24.9537 28.8782 24.0095 28.8782ZM13.7597 35.2785C13.2767 35.2785 12.8551 35.0927 12.4935 34.7203C12.1315 34.3471 11.9501 33.9115 11.9501 33.4145V17.4738C11.9501 16.997 12.1315 16.567 12.4935 16.1841C12.8551 15.8012 13.2767 15.6092 13.7597 15.6092H18.1905L20.3916 12.906H27.6268L29.8279 15.6092H34.2588C34.7213 15.6092 35.1385 15.8012 35.51 16.1841C35.8822 16.567 36.0684 16.997 36.0684 17.4738V33.4145C36.0684 33.9115 35.8822 34.3471 35.51 34.7203C35.1385 35.0927 34.7213 35.2785 34.2588 35.2785H13.7597ZM34.2588 33.4145V17.4738H28.9832L26.7827 14.7699H21.2357L19.0352 17.4738H13.7597V33.4145H34.2588Z" fill="white"/>
</svg>
