<svg width="13" height="13" viewBox="0 0 13 13" fill="none" xmlns="http://www.w3.org/2000/svg">
<path d="M6.49987 12.5C5.75228 12.5 5.04822 12.3574 4.3865 12.0716C3.72479 11.7864 3.1489 11.3965 2.65893 10.9028C2.16895 10.4084 1.78034 9.82742 1.49219 9.1598C1.20449 8.49196 1.06084 7.77607 1.06084 7.01162C1.06084 6.25803 1.20449 5.54702 1.49219 4.8794C1.78034 4.21222 2.16895 3.62881 2.65893 3.12937C3.1489 2.63015 3.72479 2.2374 4.3865 1.95223C5.04822 1.66639 5.75228 1.52405 6.49987 1.52405C7.24767 1.52405 7.95178 1.66639 8.61349 1.95223C9.27521 2.2374 9.85378 2.63015 10.3486 3.12937C10.8436 3.62881 11.2324 4.21222 11.515 4.8794C11.7977 5.54702 11.9392 6.25803 11.9392 7.01162C11.9392 7.77607 11.7977 8.49196 11.515 9.1598C11.2324 9.82742 10.8436 10.4084 10.3486 10.9028C9.85378 11.3965 9.27521 11.7864 8.61349 12.0716C7.95178 12.3574 7.24767 12.5 6.49987 12.5ZM8.33334 9.50385L8.96952 8.86146L6.99986 6.87475V3.96976H6.09103V7.24099L8.33334 9.50385ZM2.48467 0.5L3.12138 1.14186L0.63618 3.55727L0 2.91515L2.48467 0.5ZM10.5153 0.5L13 2.91515L12.3638 3.55727L9.87862 1.14186L10.5153 0.5ZM6.49987 11.5831C7.76246 11.5831 8.83321 11.1393 9.71213 10.2526C10.5906 9.36557 11.0301 8.28615 11.0301 7.01162C11.0301 5.73776 10.5906 4.65755 9.71213 3.77123C8.83321 2.88446 7.76246 2.44099 6.49987 2.44099C5.23749 2.44099 4.16652 2.88446 3.2876 3.77123C2.40912 4.65755 1.96966 5.73776 1.96966 7.01162C1.96966 8.28615 2.40912 9.36557 3.2876 10.2526C4.16652 11.1393 5.23749 11.5831 6.49987 11.5831Z" fill="#16C973"/>
</svg>
