<svg width="45" height="32" viewBox="0 0 45 32" fill="none" xmlns="http://www.w3.org/2000/svg">
<path d="M10.9845 31.9995C8.11349 31.9995 5.6434 30.9643 3.57327 28.8945C1.50374 26.8244 0.46875 24.3545 0.46875 21.4833C0.46875 18.8791 1.2941 16.5841 2.94723 14.5974C4.59998 12.611 6.72819 11.4177 9.33182 11.0171C9.99958 7.77884 11.5688 5.13276 14.0395 3.07979C16.5095 1.02603 19.3646 0 22.6029 0C26.3754 0 29.538 1.36024 32.092 4.08117C34.6461 6.80191 35.9229 10.0651 35.9229 13.8714V15.0735C38.3268 15.0061 40.3634 15.7829 42.0325 17.4017C43.7019 19.0211 44.5362 21.0655 44.5362 23.5361C44.5362 25.8394 43.7019 27.8262 42.0325 29.4954C40.3634 31.1647 38.3766 31.9995 36.0732 31.9995H24.0048C23.2034 31.9995 22.5026 31.699 21.9017 31.098C21.3007 30.4971 21.0002 29.7961 21.0002 28.9944V16.0749L16.8439 20.2313L14.6903 18.0777L22.5025 10.265L30.3147 18.0777L28.1611 20.2313L24.0048 16.0749V28.9944H36.0732C37.5758 28.9944 38.8612 28.4604 39.9294 27.3922C40.9976 26.324 41.5316 25.0386 41.5316 23.5361C41.5316 22.0337 40.9976 20.7486 39.9294 19.6804C38.8612 18.6116 37.5758 18.0777 36.0732 18.0777H32.9183V13.8709C32.9183 10.8998 31.9088 8.34648 29.8889 6.20952C27.8691 4.07296 25.3734 3.00415 22.4016 3.00415C19.4307 3.00415 16.927 4.07296 14.8906 6.20952C12.8541 8.34648 11.836 10.8997 11.836 13.8714H10.8846C8.81443 13.8714 7.06167 14.5972 5.62599 16.0492C4.1905 17.5019 3.47337 19.296 3.47337 21.4329C3.47337 23.5026 4.20722 25.2804 5.67641 26.7662C7.1458 28.2521 8.91492 28.9944 10.9845 28.9944H17.9951V32L10.9845 31.9995Z" fill="#FF0000"/>
</svg>
