<svg width="20" height="26" viewBox="0 0 20 26" fill="none" xmlns="http://www.w3.org/2000/svg">
<path d="M4.96872 20.4747H15.0313V18.5245H4.96872V20.4747ZM4.96872 14.9502H15.0313V12.9996H4.96872V14.9502ZM1.87481 26C1.37477 26 0.937003 25.8046 0.562104 25.4145C0.187031 25.0247 0 24.5692 0 24.0494V1.94976C0 1.42973 0.187031 0.974979 0.562104 0.585457C0.937003 0.195028 1.37477 0 1.87481 0H13.156L20 7.1171V24.0494C20 24.5692 19.8131 25.0247 19.4375 25.4145C19.0631 25.8046 18.6251 26 18.1252 26H1.87481ZM12.2186 7.99506V1.94976H1.87481V24.0494H18.1252V7.99506H12.2186Z" fill="#666666"/>
</svg>
