<svg width="40" height="32" viewBox="0 0 40 32" fill="none" xmlns="http://www.w3.org/2000/svg">
<path d="M2.99983 32C2.20013 32 1.50037 31.6999 0.900405 31.0996C0.300441 30.4996 0 29.8004 0 29.0011V2.99983C0 2.19938 0.300441 1.50037 0.900405 0.900404C1.50037 0.30044 2.20013 0 2.99983 0H36.9997C37.8002 0 38.5002 0.30044 39.1005 0.900404C39.7005 1.50037 40.0005 2.19938 40.0005 2.99983V29.0011C40.0005 29.8004 39.7005 30.4996 39.1005 31.0996C38.5002 31.6999 37.8002 32 36.9997 32H2.99983ZM20.0002 16.8995L2.99983 5.74944V29.0011H36.9997V5.74944L20.0002 16.8995ZM20.0002 13.9006L36.8002 2.99983H3.25004L20.0002 13.9006ZM2.99983 5.74944V2.99983V29.0011V5.74944Z" fill="#1A1A1A"/>
</svg>
