<svg width="217" height="201" viewBox="0 0 217 201" fill="none" xmlns="http://www.w3.org/2000/svg">
<path fill-rule="evenodd" clip-rule="evenodd" d="M44.4861 29.7005C26.8489 45.3282 26.7988 56.6611 34.63 90.575C52.3667 126.116 28.6918 174.708 68.7276 187.626C103.18 194.059 133.306 196.401 152.96 188.839C163.179 184.907 167.107 177.036 171.528 167.196C176.49 156.149 180.476 152.057 186.81 142.351C205.196 114.176 209.31 84.8425 189.322 53.5517L164.107 19.0939C153.861 -5.82663 104.623 -2.73539 70.8997 12.3993C60.7926 16.9354 52.728 22.3999 44.4861 29.7005Z" fill="#FFE9E9" fill-opacity="0.7"/>
<path fill-rule="evenodd" clip-rule="evenodd" d="M176.763 200.695C177.62 191.515 174.08 172.986 184.704 163.72L190.559 177.504L186.156 162.7C186.855 161.692 187.885 160.967 189.121 160.418L192.91 169.288L191.442 158.994C193.766 157.058 196.399 155.554 199.37 154.524L203.188 161.524L202.307 153.525C204.179 151.444 209.387 150.906 212.35 148.054C213.642 154.112 215.833 159.593 216.226 166.229L206.007 172.17L216.344 168.229C216.345 176.456 213.928 181.366 210.676 185.133L196.751 183.043L209.026 186.299C201.756 192.783 190.596 197.385 176.763 200.695Z" fill="#18DF80"/>
<path fill-rule="evenodd" clip-rule="evenodd" d="M176.763 200.695C177.62 191.515 174.08 172.986 184.704 163.72L190.559 177.504L186.156 162.7C186.855 161.692 187.885 160.967 189.121 160.418L192.91 169.288L191.442 158.994C193.766 157.058 196.399 155.554 199.37 154.524L203.188 161.524L202.307 153.525C204.179 151.444 209.387 150.906 212.35 148.054C210.92 155.074 202.112 180.253 176.763 200.695Z" fill="#16C973"/>
<path fill-rule="evenodd" clip-rule="evenodd" d="M39.925 60.4742C39.0683 51.2935 42.608 32.7645 31.9843 23.4991L26.1287 37.2834L30.5321 22.4788C29.8327 21.4709 28.8024 20.7455 27.5666 20.1965L23.7781 29.0668L25.2461 18.7732C22.9217 16.8369 20.2883 15.3332 17.3171 14.3027L13.4996 21.3028L14.3811 13.3033C12.5092 11.2225 7.30089 10.6852 4.33806 7.83289C3.04594 13.8911 0.854871 19.3717 0.461455 26.0083L10.6808 31.9492L0.34375 28.0081C0.342707 36.2349 2.76094 41.1447 6.01242 44.9118L19.9362 42.8222L7.66181 46.0779C14.9316 52.5614 26.0925 57.164 39.925 60.4742Z" fill="#F84C6B"/>
<path fill-rule="evenodd" clip-rule="evenodd" d="M39.9259 60.4742C39.0692 51.2935 42.6089 32.7645 31.9852 23.4991L26.1295 37.2834L30.533 22.4788C29.8336 21.4709 28.8032 20.7455 27.5675 20.1965L23.779 29.0668L25.247 18.7732C22.9226 16.8369 20.2892 15.3332 17.318 14.3027L13.5005 21.3028L14.382 13.3033C12.5101 11.2225 7.30176 10.6852 4.33893 7.83289C5.76879 14.8522 14.577 40.0313 39.9259 60.4742Z" fill="#DF4460"/>
<path d="M93.1789 118.291C91.7774 118.291 90.5504 117.765 89.4985 116.712C88.4478 115.659 87.9219 114.43 87.9219 113.026V60.373C87.9219 58.9692 88.4478 57.741 89.4985 56.6876C90.5504 55.6348 91.7774 55.1082 93.1789 55.1082H118.677V60.3742L93.1789 60.373V113.026L118.677 113.026V118.292L93.1789 118.291ZM135.764 102.057L131.996 98.2832L140.934 89.3318L110.265 89.3325V84.067H140.759L131.821 75.1161L135.59 71.3424L151.011 86.7872L135.764 102.057Z" fill="#DC0000"/>
</svg>
