<svg width="30" height="22" viewBox="0 0 30 22" fill="none" xmlns="http://www.w3.org/2000/svg">
<path fill-rule="evenodd" clip-rule="evenodd" d="M2.06851 0H27.932C29.0692 0 30 0.982775 30 2.18355C30 3.38588 29.0692 4.36908 27.932 4.36908H2.06851C0.930756 4.36908 0 3.38738 0 2.18505C0 0.984272 0.930756 0 2.06851 0ZM2.06851 8.81574H27.932C29.0692 8.81574 30 9.79843 30 10.9992C30 12.2015 29.0692 13.1843 27.932 13.1843H2.06851C0.930756 13.1843 0 12.2031 0 11.0008C0 9.80001 0.930756 8.81574 2.06851 8.81574ZM2.06851 17.6309H27.932C29.0692 17.6309 30 18.6126 30 19.8149C30 21.0173 29.0692 22 27.932 22H2.06851C0.930756 22 0 21.0188 0 19.8164C0 18.6141 0.930756 17.6309 2.06851 17.6309Z" fill="#1A1A1A"/>
</svg>
