<svg width="32" height="4" viewBox="0 0 32 4" fill="none" xmlns="http://www.w3.org/2000/svg">
<path d="M2.39998 4C1.73373 4 1.16667 3.80539 0.700116 3.41665C0.233561 3.02767 0 2.55543 0 2.0003C0 1.44443 0.233561 0.972828 0.700116 0.583346C1.16667 0.194607 1.73373 0 2.39998 0C3.06712 0 3.63336 0.194607 4.10021 0.583346C4.56677 0.972828 4.79996 1.44443 4.79996 2.0003C4.79996 2.55543 4.56677 3.02767 4.10021 3.41665C3.63336 3.80539 3.06712 4 2.39998 4ZM16.0004 4C15.3338 4 14.767 3.80539 14.3001 3.41665C13.8336 3.02767 13.6004 2.55543 13.6004 2.0003C13.6004 1.44443 13.8336 0.972828 14.3001 0.583346C14.767 0.194607 15.3338 0 16.0004 0C16.6675 0 17.2337 0.194607 17.7002 0.583346C18.1677 0.972828 18.4 1.44443 18.4 2.0003C18.4 2.55543 18.1677 3.02767 17.7002 3.41665C17.2337 3.80539 16.6675 4 16.0004 4ZM29.6 4C28.9338 4 28.3671 3.80539 27.9005 3.41665C27.4337 3.02767 27.2004 2.55543 27.2004 2.0003C27.2004 1.44443 27.4337 0.972828 27.9005 0.583346C28.3671 0.194607 28.9338 0 29.6 0C30.2672 0 30.8342 0.194607 31.2999 0.583346C31.7673 0.972828 32 1.44443 32 2.0003C32 2.55543 31.7673 3.02767 31.2999 3.41665C30.8342 3.80539 30.2672 4 29.6 4Z" fill="#1A1A1A"/>
</svg>
