<svg width="32" height="32" viewBox="0 0 32 32" fill="none" xmlns="http://www.w3.org/2000/svg">
<path fill-rule="evenodd" clip-rule="evenodd" d="M16.0009 0C24.8373 0 32 7.1632 32 16C32 24.8363 24.8373 32 16.0009 32C7.1645 32 0 24.8363 0 16C0 7.1632 7.1645 0 16.0009 0Z" fill="white"/>
<path fill-rule="evenodd" clip-rule="evenodd" d="M14.5013 10.7041C9.61019 12.7824 12.8276 16.8865 10.8449 19.6365C10.4768 20.1466 10.1731 20.1572 10.1333 20.7996C10.8585 21.0331 21.1347 21.0345 21.8667 20.7996C21.809 19.8939 21.1003 20.1196 20.6106 18.5166C19.8632 16.0815 21.7858 12.5265 17.4963 10.7041C17.2726 8.52087 14.725 8.52087 14.5013 10.7041ZM17.617 21.4406L14.4039 21.4164C14.5274 22.3092 15.0147 22.9347 15.9995 22.9333C16.9839 22.9333 17.4717 22.3106 17.617 21.4406Z" fill="black"/>
</svg>
