<svg width="216" height="200" viewBox="0 0 216 200" fill="none" xmlns="http://www.w3.org/2000/svg">
<path fill-rule="evenodd" clip-rule="evenodd" d="M44.1402 29.0048C26.503 44.6321 26.4533 55.965 34.2845 89.8784C52.0212 125.419 28.3459 174.01 68.3817 186.928C102.834 193.361 132.961 195.703 152.614 188.141C162.833 184.209 166.761 176.338 171.182 166.499C176.144 155.451 180.13 151.36 186.464 141.653C204.85 113.479 208.964 84.1461 188.976 52.8555L163.761 18.3983C153.515 -6.52173 104.277 -3.43075 70.5541 11.7037C60.447 16.2398 52.3821 21.704 44.1402 29.0048Z" fill="#FFE9E9" fill-opacity="0.7"/>
<path d="M113.319 115.417C109.524 119.504 104.871 121.648 99.3579 121.849C93.8447 122.05 89.0485 120.249 84.9674 116.45C80.8865 112.65 78.7454 107.989 78.5442 102.468C78.3443 96.9473 80.141 92.1435 83.9357 88.0563C86.8954 84.8682 90.1559 82.8936 93.7156 82.1323C97.276 81.3709 100.814 81.637 104.332 82.9304L128.749 56.6303L141.359 68.3722L135.326 74.8708L143.712 82.6799L133.126 94.0829L124.739 86.2739L116.942 94.6723C118.485 98.091 119.007 101.606 118.508 105.218C118.008 108.829 116.279 112.229 113.319 115.417ZM109.646 111.997C112.34 109.095 113.592 105.821 113.4 102.176C113.208 98.53 112.387 95.7271 110.935 93.7665L124.709 78.9302L133.096 86.7388L136.625 82.9381L128.238 75.129L134.272 68.6309L129.007 63.7285L105.671 88.8636C103.613 87.5566 100.761 86.9397 97.1163 87.0133C93.4718 87.0867 90.302 88.575 87.6084 91.4763C84.7622 94.5414 83.415 98.1451 83.5653 102.286C83.7155 106.426 85.3211 109.922 88.3822 112.772C91.4432 115.622 95.0403 116.972 99.175 116.821C103.31 116.67 106.8 115.062 109.646 111.997ZM102.79 105.613C103.89 104.428 104.413 103.066 104.356 101.528C104.301 99.99 103.682 98.6697 102.498 97.5677C101.314 96.4658 99.9548 95.9429 98.4191 95.9991C96.8832 96.0547 95.565 96.6757 94.4647 97.8606C93.3641 99.0462 92.8418 100.408 92.8982 101.945C92.9543 103.483 93.5731 104.804 94.7569 105.905C95.9407 107.008 97.2996 107.531 98.8362 107.474C100.371 107.418 101.689 106.798 102.79 105.613Z" fill="#DC0000"/>
<path fill-rule="evenodd" clip-rule="evenodd" d="M176.419 200C177.276 190.819 173.736 172.29 184.36 163.025L190.215 176.81L185.812 162.005C186.511 160.997 187.542 160.272 188.778 159.722L192.566 168.593L191.098 158.3C193.422 156.363 196.056 154.859 199.027 153.829L202.844 160.829L201.963 152.829C203.835 150.749 209.043 150.211 212.006 147.359C213.298 153.417 215.489 158.898 215.882 165.534L205.663 171.476L216 167.534C216.001 175.761 213.583 180.67 210.332 184.438L196.407 182.348L208.682 185.604C201.413 192.087 190.252 196.69 176.419 200Z" fill="#18DF80"/>
<path fill-rule="evenodd" clip-rule="evenodd" d="M176.419 200C177.276 190.819 173.736 172.29 184.36 163.025L190.215 176.81L185.812 162.005C186.511 160.997 187.542 160.272 188.778 159.722L192.566 168.593L191.098 158.3C193.422 156.363 196.056 154.859 199.027 153.829L202.844 160.829L201.963 152.829C203.835 150.749 209.043 150.211 212.006 147.359C210.576 154.378 201.768 179.557 176.419 200Z" fill="#16C973"/>
<path fill-rule="evenodd" clip-rule="evenodd" d="M39.5809 59.7785C38.7242 50.5979 42.2639 32.0689 31.6402 22.8036L25.7849 36.5882L30.1884 21.7835C29.489 20.7756 28.4585 20.0508 27.2227 19.5015L23.434 28.3714L24.9023 18.0782C22.5779 16.1419 19.9446 14.6383 16.9734 13.6081L13.1556 20.6073L14.0373 12.6084C12.1654 10.5274 6.95688 9.98977 3.99405 7.13752C2.70194 13.1959 0.511121 18.6767 0.117705 25.3132L10.3367 31.2541L3.37664e-07 27.3125C-0.00104321 35.5392 2.41681 40.4492 5.66828 44.2161L19.5924 42.1269L7.31767 45.3826C14.5874 51.8661 25.7483 56.4683 39.5809 59.7785Z" fill="#F84C6B"/>
<path fill-rule="evenodd" clip-rule="evenodd" d="M39.5809 59.7785C38.7242 50.5979 42.2639 32.0689 31.6402 22.8036L25.7849 36.5882L30.1884 21.7835C29.489 20.7756 28.4585 20.0508 27.2227 19.5015L23.434 28.3714L24.9023 18.0782C22.5779 16.1419 19.9446 14.6383 16.9734 13.6081L13.1556 20.6073L14.0373 12.6084C12.1654 10.5274 6.95688 9.98977 3.99405 7.13752C5.42392 14.1567 14.2318 39.3359 39.5809 59.7785Z" fill="#DF4460"/>
</svg>
