<svg width="12" height="12" viewBox="0 0 12 12" fill="none" xmlns="http://www.w3.org/2000/svg">
<path d="M8.03199 6.68181L7.43185 6.02236C7.66807 5.31307 7.54526 4.72426 7.06369 4.25484C6.58198 3.78556 6.05923 3.66581 5.49574 3.89565L4.89544 3.2362C5.05001 3.12659 5.22295 3.04685 5.41351 2.99698C5.60448 2.94668 5.80041 2.92174 6.00024 2.92174C6.64552 2.92174 7.19363 3.16868 7.64331 3.66282C8.09352 4.15725 8.31857 4.75953 8.31857 5.46868C8.31857 5.68834 8.2935 5.90489 8.24361 6.11961C8.19332 6.33433 8.12277 6.52204 8.03199 6.68181ZM9.79104 8.61402L9.24551 8.01491C9.69122 7.65568 10.0797 7.25358 10.4114 6.80887C10.7434 6.36475 10.9865 5.91789 11.1409 5.46868C10.6863 4.36018 10.0047 3.48356 9.09543 2.8394C8.18654 2.19538 7.20025 1.87258 6.13626 1.87258C5.75447 1.87258 5.3637 1.91259 4.96377 1.99255C4.56398 2.0725 4.25029 2.16786 4.02294 2.27791L3.39534 1.57303C3.71374 1.41311 4.12053 1.27344 4.61613 1.1535C5.1116 1.034 5.59554 0.973913 6.06825 0.973913C7.36833 0.973913 8.55709 1.38089 9.63418 2.19485C10.7115 3.00867 11.5003 4.10053 12 5.46868C11.7636 6.1079 11.459 6.69169 11.0865 7.2213C10.7137 7.75047 10.282 8.21467 9.79104 8.61402ZM10.5821 12L8.29126 9.5276C7.97273 9.6673 7.61355 9.77529 7.21376 9.84987C6.81384 9.92488 6.40916 9.96202 6.00024 9.96202C4.67317 9.96202 3.46809 9.55561 2.38649 8.74179C1.30464 7.92754 0.509101 6.83682 0 5.46868C0.181964 4.9491 0.434036 4.44204 0.756674 3.94747C1.07958 3.45304 1.47272 2.98125 1.93643 2.53203L0.217923 0.644543L0.790921 0L11.1136 11.3406L10.5821 12ZM2.49538 3.16096C2.15937 3.43092 1.83409 3.78513 1.52046 4.22431C1.20682 4.66408 0.98186 5.07921 0.845685 5.46868C1.30926 6.57718 2.00703 7.45323 2.93882 8.09725C3.8706 8.74185 4.92735 9.06335 6.10912 9.06335C6.40913 9.06335 6.70477 9.04371 6.99552 9.00373C7.28653 8.96375 7.50436 8.90366 7.64993 8.82413L6.77759 7.86513C6.67741 7.91499 6.55468 7.95213 6.40911 7.97728C6.26394 8.002 6.12742 8.01491 6.00024 8.01491C5.3637 8.01491 4.81819 7.77055 4.36347 7.28092C3.90916 6.79173 3.68192 6.18742 3.68192 5.46868C3.68192 5.31865 3.69311 5.16852 3.716 5.01863C3.7385 4.86904 3.77271 4.73423 3.8181 4.61473L2.49538 3.16096Z" fill="#4D4D4D"/>
</svg>
