<svg width="82" height="70" viewBox="0 0 82 70" fill="none" xmlns="http://www.w3.org/2000/svg">
<path fill-rule="evenodd" clip-rule="evenodd" d="M40.9997 0C63.644 0 82 17.8087 82 39.7774C82 50.3688 77.7335 59.9911 70.7774 67.1192C66.7931 71.6426 62.1915 69.6245 64.179 67.1192C72.3058 60.6265 77.4882 50.7892 77.4882 39.7774C77.4882 20.2262 61.1517 4.37809 40.9997 4.37809C20.848 4.37809 4.51124 20.2262 4.51124 39.7774C4.51124 49.2302 8.33062 57.8185 14.5518 64.1658C15.5781 65.2134 16.6701 66.1997 17.821 67.1192C19.2468 68.6041 17.4352 70.1587 14.6174 69.2451C13.5847 68.9115 12.4169 68.2439 11.2226 67.1192C4.26673 59.9911 0 50.3688 0 39.7774C0 17.8087 18.3563 0 40.9997 0Z" fill="white"/>
<path fill-rule="evenodd" clip-rule="evenodd" d="M40.9997 9.28396C57.8698 9.28396 71.5458 22.8752 71.5458 39.6415C71.5458 56.4084 57.8698 70 40.9997 70C24.1297 70 10.4542 56.4084 10.4542 39.6415C10.4542 22.8752 24.1297 9.28396 40.9997 9.28396Z" fill="#DC0000"/>
<path d="M40.9567 39.3219C39.2555 39.3219 37.8641 38.7842 36.7818 37.7078C35.6988 36.6322 35.1575 35.2491 35.1575 33.5584C35.1575 31.8676 35.6988 30.4846 36.7818 29.4089C37.8641 28.3332 39.2555 27.7948 40.9567 27.7948C42.6579 27.7948 44.0495 28.3332 45.1318 29.4089C46.2148 30.4846 46.7559 31.8676 46.7559 33.5584C46.7559 35.2491 46.2148 36.6322 45.1318 37.7078C44.0495 38.7835 42.6579 39.3219 40.9567 39.3219ZM28.5857 51.6553V48.0439C28.5857 47.0707 28.8303 46.2379 29.3204 45.5461C29.8098 44.8544 30.4411 44.3295 31.2143 43.9707C32.9408 43.2023 34.5971 42.6262 36.182 42.2416C37.7676 41.8577 39.3586 41.6654 40.9567 41.6654C42.555 41.6654 44.1399 41.8637 45.7121 42.2607C47.2838 42.6579 48.9333 43.2276 50.6606 43.9707C51.4589 44.3295 52.1036 44.8544 52.593 45.5461C53.083 46.2379 53.3277 47.0707 53.3277 48.0439V51.6553H28.5857ZM30.9052 49.35H51.0081V48.0439C51.0081 47.6342 50.8859 47.2431 50.6412 46.8719C50.3958 46.5004 50.0933 46.225 49.7323 46.046C48.083 45.2517 46.5751 44.7077 45.2089 44.4123C43.8434 44.1184 42.4259 43.9707 40.9567 43.9707C39.4874 43.9707 38.0576 44.1184 36.6655 44.4123C35.2739 44.7071 33.7661 45.2517 32.1421 46.046C31.7818 46.225 31.4849 46.5004 31.253 46.8719C31.0208 47.2431 30.9052 47.6342 30.9052 48.0439V49.35ZM40.9567 37.0166C41.9618 37.0166 42.7928 36.6903 43.4504 36.037C44.1073 35.3835 44.4358 34.5573 44.4358 33.5584C44.4358 32.5594 44.1073 31.7338 43.4504 31.0802C42.7928 30.4273 41.9618 30.1006 40.9567 30.1006C39.9515 30.1006 39.1205 30.4273 38.463 31.0802C37.8062 31.7338 37.4778 32.5594 37.4778 33.5584C37.4778 34.5573 37.8062 35.3835 38.463 36.037C39.1205 36.6903 39.9515 37.0166 40.9567 37.0166Z" fill="white"/>
</svg>
