<svg width="216" height="200" viewBox="0 0 216 200" fill="none" xmlns="http://www.w3.org/2000/svg">
<path fill-rule="evenodd" clip-rule="evenodd" d="M44.1411 29.0048C26.5039 44.6324 26.4538 55.9648 34.285 89.8784C52.0217 125.419 28.3468 174.01 68.3826 186.928C102.835 193.361 132.961 195.703 152.615 188.141C162.834 184.209 166.762 176.338 171.183 166.499C176.145 155.451 180.131 151.36 186.465 141.654C204.851 113.48 208.965 84.1459 188.977 52.8555L163.762 18.3984C153.516 -6.52186 104.278 -3.43067 70.5547 11.7038C60.4476 16.2399 52.383 21.7043 44.1411 29.0048Z" fill="#FFE9E9" fill-opacity="0.7"/>
<path fill-rule="evenodd" clip-rule="evenodd" d="M176.419 200C177.276 190.819 173.736 172.291 184.36 163.025L190.215 176.809L185.812 162.005C186.511 160.997 187.542 160.272 188.778 159.723L192.566 168.593L191.098 158.299C193.423 156.363 196.056 154.86 199.027 153.829L202.845 160.829L201.963 152.83C203.835 150.749 209.043 150.212 212.006 147.359C213.298 153.417 215.489 158.898 215.882 165.534L205.663 171.475L216 167.534C216.001 175.761 213.583 180.671 210.332 184.438L196.408 182.348L208.682 185.604C201.413 192.088 190.252 196.69 176.419 200Z" fill="#18DF80"/>
<path fill-rule="evenodd" clip-rule="evenodd" d="M176.419 200C177.276 190.819 173.736 172.291 184.36 163.025L190.215 176.809L185.812 162.005C186.511 160.997 187.542 160.272 188.778 159.723L192.566 168.593L191.098 158.299C193.423 156.363 196.056 154.86 199.027 153.829L202.845 160.829L201.963 152.83C203.835 150.749 209.043 150.212 212.006 147.359C210.576 154.378 201.768 179.558 176.419 200Z" fill="#16C973"/>
<path fill-rule="evenodd" clip-rule="evenodd" d="M39.5813 59.7806C38.7245 50.6 42.2643 32.071 31.6406 22.8057L25.7854 36.59L30.1884 21.7856C29.489 20.7777 28.4586 20.0524 27.2228 19.5033L23.4344 28.3732L24.9024 18.0801C22.578 16.1438 19.9446 14.6401 16.9734 13.6097L13.1559 20.6094L14.0374 12.6102C12.1655 10.5295 6.95714 9.99187 3.99431 7.13963C2.70219 13.1978 0.51163 18.6786 0.118214 25.315L10.3366 31.2559L3.37612e-07 27.3144C-0.00104321 35.5413 2.41719 40.451 5.66867 44.2181L19.5924 42.1285L7.31806 45.3844C14.5878 51.8679 25.7487 56.4704 39.5813 59.7806Z" fill="#F84C6B"/>
<path fill-rule="evenodd" clip-rule="evenodd" d="M39.5822 59.7806C38.7254 50.6 42.2651 32.071 31.6414 22.8057L25.7863 36.59L30.1893 21.7856C29.4899 20.7777 28.4595 20.0524 27.2237 19.5033L23.4353 28.3732L24.9033 18.0801C22.5789 16.1438 19.9454 14.6401 16.9743 13.6097L13.1568 20.6094L14.0383 12.6102C12.1664 10.5295 6.95801 9.99187 3.99518 7.13963C5.42504 14.1588 14.2332 39.3379 39.5822 59.7806Z" fill="#DF4460"/>
<path d="M131.248 112.846H98.8295V75.4084L119.128 54.3495L121.975 56.6163C122.267 56.8598 122.486 57.2013 122.632 57.6404C122.778 58.0787 122.851 58.6148 122.851 59.2484V59.9801L119.565 75.4084H141.396C142.565 75.4084 143.587 75.8467 144.464 76.7242C145.34 77.6018 145.777 78.6256 145.777 79.7956V85.7916C145.777 86.1323 145.814 86.4862 145.887 86.8517C145.96 87.2173 145.923 87.5708 145.777 87.9121L136.578 109.117C136.139 110.141 135.422 111.019 134.424 111.75C133.426 112.481 132.367 112.846 131.248 112.846ZM103.211 108.459H132.197L141.397 86.5963L141.396 79.7956H114.163L118.032 61.5881L103.211 77.2357V108.459ZM98.8295 75.4084V79.7964L89.1197 79.7956V108.459H98.8295V112.846H84.7381V75.4084H98.8295Z" fill="#DC0000"/>
</svg>
