<svg width="80" height="32" viewBox="0 0 80 32" fill="none" xmlns="http://www.w3.org/2000/svg">
<path d="M0 0H80V32H0V0Z" fill="#FFE9E9"/>
<path d="M49.9179 9.91761C49.2828 10.1974 48.5805 10.3662 47.8948 10.4777C48.2204 10.4252 48.6978 9.85268 48.8899 9.62034C49.1819 9.26768 49.4244 8.86545 49.5605 8.43065C49.5782 8.39686 49.5917 8.35519 49.5562 8.32918C49.5129 8.31241 49.4841 8.32072 49.4494 8.33749C48.6845 8.73632 47.8936 9.02454 47.0515 9.22991C46.9815 9.24643 46.9294 9.22985 46.8854 9.18659C46.8159 9.11003 46.7502 9.03797 46.6767 8.97891C46.3221 8.68678 45.9421 8.45645 45.514 8.28705C44.9519 8.06443 44.3381 7.97026 43.7327 8.00817C43.1431 8.04584 42.5647 8.20643 42.0423 8.47159C41.5185 8.7382 41.0514 9.10801 40.6786 9.55447C40.2938 10.0167 40.0103 10.562 39.8642 11.1399C39.7245 11.698 39.736 12.2496 39.8218 12.8132C39.8346 12.9078 39.826 12.92 39.7388 12.9076C36.4452 12.4307 33.7149 11.286 31.4985 8.83057C31.402 8.72388 31.3505 8.72392 31.2717 8.83888C30.3023 10.2519 30.772 12.5208 31.9832 13.6368C32.1457 13.7865 32.3106 13.9349 32.4899 14.0706C32.4246 14.0837 31.6189 13.9987 30.9002 13.6368C30.804 13.5777 30.7551 13.612 30.7473 13.7175C30.7381 13.8704 30.7514 14.0114 30.7726 14.1774C30.9589 15.6089 31.9797 16.9335 33.3775 17.4509C33.5435 17.5185 33.727 17.578 33.9055 17.6082C33.5872 17.6757 33.259 17.7242 32.3461 17.6545C32.2326 17.6338 32.1896 17.6889 32.2329 17.7951C32.919 19.613 34.3996 20.1537 35.5095 20.4617C35.6575 20.4872 35.8067 20.4872 35.9555 20.521C35.9462 20.5341 35.9375 20.534 35.9283 20.5471C35.5605 21.092 34.2852 21.4971 33.6906 21.6988C32.6105 22.066 31.4342 22.2315 30.2922 22.1219C30.1099 22.0956 30.0711 22.0978 30.0221 22.1219C29.9718 22.1523 30.0151 22.195 30.0746 22.2411C30.3056 22.3901 30.5417 22.5207 30.7827 22.6488C31.5071 23.0223 32.2631 23.3201 33.0542 23.5323C37.1367 24.6279 41.7353 23.8227 44.8001 20.8622C47.208 18.5377 48.0514 15.3312 48.0514 12.1214C48.0514 11.9952 48.2047 11.9265 48.2947 11.8597C48.9213 11.403 49.4264 10.855 49.8935 10.244C49.9985 10.1062 50 9.98453 50 9.93423C50 9.92596 50 9.91761 50 9.91761C50 9.86609 49.9987 9.88188 49.9179 9.91761Z" fill="#FF0000"/>
</svg>
