<svg width="32" height="32" viewBox="0 0 32 32" fill="none" xmlns="http://www.w3.org/2000/svg">
<path fill-rule="evenodd" clip-rule="evenodd" d="M16.0001 32C24.8359 32 32 24.8367 32 16.0001C32 7.1635 24.8359 0 16.0001 0C7.16439 0 0 7.1635 0 16.0001C0 24.8367 7.16439 32 16.0001 32Z" fill="white"/>
<path d="M25.487 18.3289L24.6411 18.3774C24.6138 18.3606 24.5816 18.3469 24.543 18.338C24.3689 18.2972 22.0643 17.4156 21.7806 17.2969C21.6796 17.2549 21.6506 17.1964 21.5684 17.1826C21.5748 17.0339 21.4144 16.8685 21.2618 16.7327C21.1483 16.6323 20.1344 15.6532 19.2533 14.8052C19.3626 14.7846 19.4722 14.7625 19.581 14.7394C19.6942 14.2813 19.688 13.8455 19.596 13.3946C19.7335 13.8194 19.7927 14.258 19.7402 14.7051C20.0491 14.6356 20.3794 14.5491 20.6809 14.4434C20.704 14.0271 20.6381 13.6461 20.5036 13.258C20.6776 13.6161 20.7849 13.9628 20.8218 14.3915C21.3938 14.1716 21.6827 13.9259 21.6817 13.6583C21.6812 13.4762 21.6009 13.3058 21.4433 13.152C20.942 12.6633 19.6755 12.3817 18.1386 12.417C17.6652 12.4278 17.2019 12.4512 16.7608 12.4854C17.8329 11.3953 19.8532 8.84977 19.1769 8.46976C18.7834 8.24862 17.8852 8.12109 17.1507 8.71854C17.1339 8.73175 17.1171 8.74492 17.1004 8.75803C17.1369 8.53033 17.1447 8.24019 16.9296 8.15362C16.5142 7.98702 15.6383 7.96561 15.0567 8.61634C13.8252 9.93123 12.5421 11.8543 11.6525 13.2986C11.5707 13.3881 11.4895 13.4872 11.4089 13.5966C10.9439 14.2283 10.7382 14.8447 10.6906 14.9296L10.6917 14.9298C10.4831 15.305 10.4832 15.3073 10.4886 15.3655C10.492 15.4029 10.5059 15.4415 10.5304 15.4814C10.5232 15.5134 10.2846 15.9771 10.4826 16.1709C10.498 16.2614 10.5262 16.3434 10.5714 16.4114C10.5486 16.4138 10.5259 16.4169 10.503 16.4205C10.3253 16.2961 9.16058 15.4939 9.15846 15.4924C8.9368 15.3327 8.81739 15.3755 8.75587 15.6847C8.74784 15.7252 8.75211 15.7721 8.776 15.8156C8.75296 15.9642 8.72125 16.1772 8.67896 16.4631C8.65497 16.455 8.64071 16.4506 8.64103 16.4512C8.64187 16.4545 8.57794 16.689 8.5809 16.6922C8.58153 16.6929 8.60551 16.6977 8.64335 16.7049C8.61967 16.8661 8.59345 17.0456 8.56438 17.2445L8.52051 17.2399C8.52051 17.2399 8.52188 17.3197 8.52696 17.3898L8.4947 17.3124L7.90294 17.3263C7.91583 17.4756 7.92049 17.5299 7.92049 17.5299C7.92144 17.543 7.92257 17.556 7.92384 17.5692L8.53186 17.4399C8.5325 17.4449 8.53303 17.4495 8.53367 17.4541C8.19773 19.7558 8.17063 19.7666 8.23585 19.9194C8.13099 20.1055 6.98178 21.2719 6.96381 21.2968L6.55115 21.4268C6.51458 21.4386 6.49227 21.4752 6.4985 21.513C6.50421 21.5475 6.53235 21.5729 6.56586 21.5765L6.5607 21.6496L6.66703 21.584C6.66343 21.6134 6.65541 21.64 6.64664 21.657C6.68237 21.649 6.72158 21.6266 6.75245 21.6026C6.75033 21.6176 6.74791 21.6307 6.74548 21.6387C6.77878 21.6283 6.81584 21.6056 6.84406 21.5827C6.83952 21.6165 6.83321 21.6483 6.82729 21.6702C6.85847 21.6516 6.90013 21.6212 6.93903 21.5861C6.93692 21.6038 6.93412 21.6182 6.93232 21.6268C6.956 21.6133 6.9896 21.5901 7.0211 21.5628C7.38759 21.4858 8.2799 20.4536 8.44438 20.2343C8.49353 20.1684 8.52261 20.1011 8.5298 20.0397C8.63138 20.0214 8.73299 19.9284 8.73574 19.691C8.7369 19.5994 8.8058 18.8657 8.88878 18.0169C9.04226 18.5376 9.53288 18.8448 9.8963 18.6531C9.86691 19.4111 9.74125 22.6477 9.72803 22.9007C9.75171 22.652 10.1607 19.5342 10.2579 18.6358C10.363 18.6487 10.4661 18.6363 10.565 18.5917C10.6009 18.5871 10.6369 18.5813 10.6726 18.5736C10.8431 21.5739 10.8136 21.582 10.9232 21.7306C10.8402 21.9784 9.84069 23.5153 9.82145 23.559L9.38996 23.8096C9.31744 23.8519 9.35635 23.9644 9.44028 23.9518L9.44751 24.0406L9.55383 23.9317C9.55626 23.9686 9.55173 24.0028 9.54454 24.0267C9.57509 24.0108 9.61635 23.9771 9.65113 23.9309C9.65197 23.9502 9.65116 23.9693 9.64958 23.9807C9.67896 23.9628 9.71647 23.9284 9.74945 23.8819C9.75157 23.9245 9.7502 23.9649 9.74713 23.9936C9.77926 23.9618 9.81931 23.9139 9.85346 23.862C9.85462 23.8839 9.85482 23.9062 9.85397 23.9191C9.88505 23.89 9.91457 23.8529 9.93888 23.8179C10.3485 23.6039 11.0865 22.2697 11.2052 22.0189C11.2459 21.9332 11.2625 21.8516 11.2548 21.7832C11.3167 21.7599 11.4655 21.67 11.4047 21.3613C11.376 21.2145 11.2029 19.5829 11.0801 18.4058C11.4108 18.1985 11.6374 17.8611 11.6788 17.485C11.8373 17.5297 12.003 17.5765 12.1645 17.6223C12.2268 17.826 12.3541 17.9827 12.5671 17.956C12.9926 17.9026 13.1279 17.6573 13.0293 17.34C13.21 17.6405 13.5627 17.5534 13.7416 17.4179C14.1902 18.3124 14.6456 19.2285 14.6807 19.3256C14.7565 19.535 14.9101 19.5823 15.0296 19.5568C15.0585 19.6096 15.114 19.6585 15.1922 19.698C15.3208 19.7627 16.7601 20.4014 17.2612 20.3409C17.3032 20.3523 17.3425 20.358 17.3706 20.3592C17.365 20.3526 17.3567 20.3413 17.3471 20.3269C17.4032 20.3452 17.4605 20.3569 17.5084 20.3605C17.4929 20.3434 17.4735 20.3186 17.4553 20.2918C17.5067 20.3081 17.5588 20.3112 17.5962 20.3058C17.5914 20.3009 17.5844 20.2922 17.5758 20.2802C17.6282 20.2946 17.6813 20.2954 17.7185 20.2877C17.7029 20.2757 17.6847 20.2571 17.6692 20.2361L17.8184 20.2518L17.7871 20.2C17.868 20.1676 17.84 20.0474 17.7541 20.0526L17.2163 20.0833C17.1895 20.0683 15.4462 19.4492 15.3078 19.3488C15.3243 19.2296 15.2469 19.0856 15.1692 18.9646C15.1046 18.8633 14.4986 17.8161 13.9844 16.933C13.9859 16.8662 13.9764 16.7948 13.9527 16.7325C14.2065 16.7763 14.4183 16.5337 14.4812 16.2752C14.664 16.137 14.8716 15.9807 15.0908 15.8156C15.7588 17.1441 16.6001 18.8277 16.655 18.9793C16.7493 19.2403 16.9394 19.2977 17.0862 19.2647C17.0901 19.2639 17.0949 19.2632 17.0994 19.2624C17.1312 19.3318 17.2032 19.3977 17.3084 19.4508C17.4879 19.5413 19.3363 20.3563 19.9671 20.2859C20.0236 20.3089 20.0839 20.3245 20.1286 20.3308C20.1115 20.3128 20.0898 20.287 20.0706 20.2601L20.0737 20.2591C20.1542 20.296 20.2391 20.3209 20.3077 20.3324C20.2784 20.3044 20.2418 20.2641 20.211 20.2229L20.2267 20.2188C20.2942 20.2502 20.3664 20.2633 20.4216 20.2609C20.4047 20.246 20.3847 20.2238 20.3674 20.1989C20.4425 20.2334 20.523 20.244 20.5808 20.2376C20.5502 20.2179 20.5148 20.1857 20.4881 20.1491L20.4961 20.1471L20.7103 20.1909L20.6484 20.1068C20.7451 20.081 20.7184 19.9494 20.6283 19.9545L19.923 19.9953C19.8996 19.9816 19.8723 19.97 19.8396 19.9625C19.6939 19.9284 17.7623 19.1891 17.5244 19.09C17.475 19.0693 17.4523 19.0481 17.423 19.0281C17.4521 18.8779 17.3504 18.6884 17.2488 18.5302C17.1544 18.3828 16.1903 16.7148 15.4903 15.5152C15.7408 15.3269 15.9949 15.1359 16.2346 14.9564C16.394 14.9852 16.5612 15.0096 16.7329 15.0264C16.7968 14.8242 16.8277 14.6649 16.8496 14.4973C16.8757 14.4782 16.9011 14.4591 16.926 14.4405C16.926 14.6207 16.9151 14.8093 16.8707 15.038C16.8975 15.0398 16.9238 15.0417 16.9505 15.0431C17.3542 15.8498 17.7304 16.6091 17.7621 16.6966C17.8377 16.906 17.9912 16.9536 18.111 16.9281C18.1398 16.9805 18.1953 17.0298 18.2739 17.069C18.4021 17.1337 19.8417 17.7726 20.3423 17.7124C20.3804 17.7229 20.4229 17.729 20.4523 17.7305C20.4466 17.7236 20.4385 17.7126 20.4285 17.6982C20.4845 17.7165 20.5419 17.7278 20.5896 17.7318C20.5743 17.7144 20.5549 17.6898 20.5367 17.6628C20.5882 17.679 20.64 17.6823 20.6776 17.6768C20.673 17.6717 20.6662 17.6635 20.6572 17.6512C20.7099 17.6659 20.763 17.6665 20.8001 17.659C20.7846 17.6467 20.7659 17.628 20.7506 17.6071L20.8998 17.6228L20.8685 17.5712C20.9492 17.5386 20.9218 17.4186 20.8358 17.4234L20.2979 17.4543C20.2979 17.4543 18.972 16.9751 18.4548 16.7593C18.427 16.7476 18.4103 16.7354 18.3941 16.7237C18.3925 16.7226 18.3908 16.7213 18.389 16.7198C18.4058 16.6005 18.3282 16.4563 18.2506 16.3353C18.1997 16.2556 17.7828 15.5373 17.4955 15.0426C17.6225 15.0348 17.8183 15.0149 17.9448 15.0008C17.9927 14.7968 18.0251 14.5513 18.03 14.2808C18.0581 14.3113 18.0867 14.3423 18.1154 14.3734C18.1218 14.5783 18.1226 14.7503 18.0945 14.9835C18.2578 14.9638 18.4327 14.94 18.614 14.9131C19.5825 15.9618 20.6484 17.1229 20.7338 17.2406C20.8678 17.4255 21.0603 17.5001 21.2495 17.4401C21.2573 17.4375 21.2669 17.4353 21.2768 17.4329C21.2966 17.5306 21.3877 17.626 21.5354 17.7003C21.7487 17.8078 23.9377 18.7736 24.6911 18.6951C24.7604 18.7283 24.8316 18.7512 24.8904 18.7625C24.866 18.7398 24.8345 18.705 24.8057 18.6673L24.8238 18.6624C24.918 18.7112 25.0208 18.7466 25.1038 18.7643C25.0621 18.7284 25.0123 18.6771 24.9698 18.6234L25.0067 18.6138C25.0829 18.6561 25.1715 18.6783 25.2398 18.6791C25.2086 18.6546 25.1739 18.6177 25.1466 18.5767L25.1484 18.5762C25.2369 18.6299 25.3289 18.6531 25.4292 18.6513C25.3858 18.6263 25.3364 18.5842 25.3004 18.5356L25.3275 18.5284L25.5838 18.5958L25.4922 18.4848L25.5113 18.4796C25.6 18.4563 25.579 18.3235 25.487 18.3289ZM7.13491 21.3425C7.33332 21.1494 8.1987 20.2163 8.30631 20.0931C8.34193 20.0521 8.35433 20.0219 8.36902 19.9953C8.37198 19.9956 8.37593 19.9958 8.37624 19.9958C8.42297 20.1187 7.48195 21.1168 7.13491 21.3425ZM8.58219 19.6898C8.58071 19.8069 8.54798 19.8853 8.49883 19.8892C8.49524 19.8896 8.49204 19.8902 8.48876 19.8908C8.45695 19.8563 8.4169 19.8426 8.37134 19.8418C8.34047 19.7315 8.35525 19.74 8.68516 17.4801C8.69118 17.4795 8.6975 17.4792 8.70374 17.4786L8.5396 19.3135L8.77471 17.4739C8.77894 17.4737 8.78307 17.4735 8.78761 17.4732C8.69026 18.4596 8.58346 19.5678 8.58219 19.6898ZM8.72335 17.2615L8.7169 17.2608C8.72229 17.2239 8.72777 17.1875 8.73316 17.1506L8.72335 17.2615ZM16.1708 12.8392C16.0884 12.8323 15.9501 12.8403 15.7773 12.8658C16.15 12.6554 16.3854 12.4096 16.5928 12.0797C16.4337 12.2745 16.2392 12.4805 15.8846 12.6629C16.1358 12.4284 16.3324 12.2217 16.5386 11.9907C16.226 12.2706 15.9171 12.5212 15.5453 12.7783C15.7313 12.5796 15.9213 12.3491 16.0679 12.1187C16.6013 11.7803 17.17 11.5647 17.4834 11.4601C17.0912 11.9263 16.6236 12.4326 16.1708 12.8392ZM14.7305 13.8782C14.0669 14.2935 13.1356 14.7903 12.3686 15.1709C13.1627 14.7052 13.8045 14.2899 14.4983 13.8152C13.625 14.3503 12.8289 14.8024 11.829 15.3046C12.789 14.6165 14.1857 13.6142 14.1857 13.6142C14.7892 13.2046 15.6055 13.0224 15.9941 12.993C15.6231 13.3062 15.1437 13.6234 14.7305 13.8782ZM15.9628 13.7974C15.9932 13.9965 16.0105 14.1954 15.9868 14.4204C15.9556 14.4488 15.9251 14.477 15.8952 14.5045C15.9614 14.2414 15.9713 14.0279 15.9628 13.7974ZM15.5695 14.8034C15.4554 14.9083 15.3482 15.0069 15.2474 15.0991C15.1153 14.8738 15.0186 14.7106 14.9535 14.6031C15.0779 14.6502 15.2942 14.7268 15.5695 14.8034ZM13.7989 11.4861C13.7934 11.4295 13.7792 11.3739 13.7483 11.3251C13.7971 11.0868 14.6716 9.95348 14.9161 9.84322C14.9991 9.96997 14.8315 10.4334 14.779 10.5491C14.705 10.736 14.6107 10.9392 14.5078 11.1331C14.4818 11.1594 14.4557 11.1861 14.4296 11.2128C14.2349 11.2976 14.0015 11.5509 13.7929 11.8219C14.0476 11.2328 14.3155 10.7658 14.6152 10.3098C14.3083 10.6933 14.052 11.0553 13.7989 11.4861ZM15.3569 10.5049C15.3389 10.6341 15.323 10.8388 15.3406 10.962C15.2707 11.0381 15.1748 11.1473 15.1194 11.2348C14.8366 11.1065 13.9722 11.9453 13.6905 12.2123C14.2245 11.6373 14.7905 11.0527 15.3569 10.5049ZM15.4952 10.6433C15.504 10.5489 15.5225 10.4074 15.5522 10.3176C15.8051 10.077 16.0593 9.84254 16.3125 9.61844C16.1759 9.86442 15.9955 10.191 15.897 10.4154C15.8038 10.4995 15.7159 10.5813 15.6281 10.6667C15.7348 10.4255 15.8542 10.2548 15.9935 10.0894C15.8177 10.2353 15.6552 10.396 15.4952 10.6433ZM16.753 9.96194C16.7638 9.99524 16.7675 10.0716 16.7004 10.2339C16.6974 10.2369 16.6955 10.2383 16.6955 10.2383L16.6976 10.2401C16.6218 10.4212 16.4782 10.6491 16.4614 10.6722C16.326 10.8852 16.1529 11.1224 16.0064 11.3068C15.8057 11.3406 15.5398 11.5477 15.384 11.6789C15.4816 11.5651 16.2023 10.7229 16.2859 10.6252C16.1639 10.7436 15.3252 11.5567 15.2167 11.6619C15.247 11.5624 15.2649 11.453 15.2265 11.3568C15.3231 11.1166 16.4783 10.0461 16.753 9.96194ZM14.0771 13.2926C14.2389 13.1171 14.406 12.9231 14.5556 12.7355C14.7929 12.4583 15.6906 11.4788 16.0519 11.4554C16.1262 11.4505 16.1374 11.4777 16.1419 11.4879C16.2153 11.6623 15.8383 12.3348 15.0671 13.033C14.3329 13.2664 14.0743 13.5047 13.444 13.9572C14.0472 13.4319 14.4946 12.9795 14.8371 12.6234C14.7088 12.7409 14.4468 12.9825 14.0771 13.2926ZM14.8067 11.4773C15.0057 11.3514 15.0535 11.3735 15.0562 11.3746C15.0789 11.3939 15.0911 11.4225 15.0939 11.4624C15.1137 11.7518 14.6246 12.42 14.4397 12.6364C13.794 13.4502 13.4822 13.6912 11.7183 15.0744C11.9035 14.8921 13.1193 13.6972 13.3132 13.5066C11.3265 15.2376 11.3523 15.2383 11.2468 15.2522C11.2852 15.1194 11.3392 14.9749 11.3766 14.8901C11.4033 14.8257 11.3955 14.8408 11.4677 14.7523C11.8213 14.3436 13.9389 12.0256 14.8067 11.4773ZM12.7527 14.454C12.7437 14.4603 12.7348 14.4662 12.7261 14.4725C12.7345 14.4659 12.7429 14.4593 12.7514 14.4524L12.7527 14.454ZM11.406 15.6994C11.3413 15.7893 11.1408 15.7799 11.1028 15.5995C11.0987 15.5777 11.1037 15.5479 11.1121 15.5296C11.1681 15.6318 11.2727 15.6997 11.406 15.6994ZM13.6126 14.6599C13.2509 14.9632 12.5766 15.5125 12.1619 15.7322C11.6953 15.9797 11.2228 16.0905 10.7281 15.9167C11.7642 16.1454 12.4928 15.3883 13.6126 14.6599ZM17.6628 11.2433C17.5306 11.2801 16.8838 11.4718 16.215 11.851C16.2216 11.837 16.2278 11.8227 16.2335 11.809L17.5389 11.1297L16.2965 11.5986C16.3022 11.5609 16.303 11.5266 16.2996 11.4954C17.1503 10.8125 17.9666 10.4447 18.389 10.2832C18.1624 10.6096 17.9097 10.9403 17.6628 11.2433ZM18.5358 10.0672C18.2397 10.1667 17.3656 10.4985 16.4137 11.2126C16.9706 10.6246 17.6147 10.2536 18.285 10.0022C17.6171 10.2015 16.9862 10.5112 16.4392 10.9816C16.4839 10.9177 16.5296 10.8505 16.5739 10.7818C16.8652 10.33 17.6225 9.81773 18.0989 9.55547C18.7014 9.22376 18.977 8.99088 19.1529 8.82693C19.1119 9.0894 18.8914 9.52908 18.5358 10.0672ZM19.1343 8.63338C18.4029 9.32734 17.9798 9.3516 17.1525 9.99007C17.4707 9.66143 17.7551 9.42647 18.1015 9.18049C17.8849 9.30364 17.7043 9.41358 17.4658 9.58567C17.8362 9.23958 18.6761 8.4719 18.6845 8.46408C18.7803 8.48089 19.0819 8.55663 19.1343 8.63338ZM18.1657 8.44963C18.2757 8.43705 18.3822 8.43493 18.4834 8.44085C18.1635 8.73451 17.3605 9.46324 16.8999 9.91239C16.8886 9.88004 16.8666 9.84259 16.8372 9.82335C17.1965 9.36194 17.9898 8.59973 18.1657 8.44963ZM17.8744 8.50847C17.5417 8.82305 16.8757 9.48674 16.6258 9.85174C16.5563 9.88832 16.4786 9.94123 16.4145 9.98775C16.4148 9.98743 16.4271 9.97149 16.4271 9.97149C16.4277 9.97054 16.4482 9.94262 16.9598 9.25404C16.6856 9.53448 16.8178 9.39915 16.3383 9.88942C16.4492 9.68657 16.5617 9.48795 16.6501 9.32527C17.3182 8.7572 17.5288 8.60857 17.8744 8.50847ZM16.9138 8.90668C16.3701 9.34652 15.8086 9.85486 15.2585 10.387C15.5153 10.0808 15.7185 9.87506 15.8929 9.70361C15.6832 9.86936 15.3589 10.13 14.9483 10.5519C15.1749 10.1109 15.7088 9.61115 16.1115 9.30798C16.614 8.92923 16.831 8.67799 16.9665 8.50305C16.9715 8.60728 16.9535 8.74368 16.9138 8.90668ZM16.911 8.3224C16.3488 9.067 15.9326 9.13999 15.2645 9.86387C15.5327 9.45161 15.7858 9.13326 16.0779 8.80758C16.0174 8.86212 15.8929 8.97289 15.7218 9.14488C15.8921 8.92606 16.4502 8.21521 16.4545 8.21014C16.5854 8.21785 16.8532 8.26119 16.911 8.3224ZM15.9618 8.2522C16.0631 8.22831 16.1635 8.21475 16.2599 8.20936C16.0405 8.48949 15.5445 9.11497 15.1909 9.58515L15.6875 8.82203L15.0763 9.51599C15.3583 9.04168 15.8372 8.39966 15.9618 8.2522ZM14.5545 9.69483C14.6067 9.53543 14.66 9.37618 14.7016 9.24553C15.1999 8.66097 15.3693 8.48118 15.6986 8.33943C15.431 8.69239 14.9423 9.38094 14.7778 9.74954C14.717 9.79362 14.6454 9.85985 14.5685 9.93871C14.7063 9.59115 14.8611 9.31246 15.0621 9.01584C14.8749 9.22736 14.723 9.4219 14.5545 9.69483ZM13.8559 10.3067C14.0471 10.0526 14.2408 9.80381 14.4355 9.56502C14.3421 9.84906 14.2438 10.1535 14.1958 10.3671C14.1117 10.4729 14.0429 10.5633 13.9769 10.6538L14.1811 9.95239L13.8624 10.5955C13.8514 10.4877 13.8476 10.3783 13.8559 10.3067ZM13.0427 11.4394C13.256 11.1294 13.4765 10.8185 13.7018 10.5132C13.7084 10.6225 13.7236 10.7402 13.7434 10.8353L13.7406 10.8417L13.7457 10.8438C13.7544 10.8843 13.7638 10.9203 13.7736 10.9493C13.723 11.029 13.6581 11.1357 13.6218 11.2229C13.4142 11.1657 13.0908 11.54 12.9209 11.7359L13.5506 10.8322L13.0427 11.4394ZM10.6414 15.3438L10.6457 15.3397C10.9291 14.7623 13.0356 11.5119 13.5578 11.3731C13.623 11.3563 13.7057 11.4832 13.5909 11.8565C13.5807 11.8754 13.5754 11.8856 13.5754 11.8856L13.5811 11.8885C13.5427 12.0062 13.4907 12.135 13.4298 12.2686C12.6885 13.0731 11.9469 13.9259 11.317 14.6924L11.318 14.6935C11.2916 14.7258 11.2671 14.756 11.244 14.7846L11.548 14.1094L10.8922 15.2393C10.8244 15.3037 10.7479 15.3616 10.662 15.4021C10.6431 15.3721 10.6396 15.3521 10.6414 15.3438ZM10.549 15.7193C10.5669 15.7433 10.619 15.7763 10.6475 15.7748C10.6711 15.7829 10.7314 15.7687 10.7572 15.749C10.7878 15.8512 10.5878 15.9277 10.541 15.7745C10.5359 15.7569 10.5406 15.7324 10.549 15.7193ZM8.96955 15.5595C9.01268 15.5746 10.1712 16.3771 10.1949 16.3936L9.16001 15.8553L9.46944 16.0571C9.30465 15.9648 9.15719 15.8826 9.06194 15.831C9.01639 15.743 8.98361 15.6401 8.96955 15.5595ZM9.08672 16.0197C9.31568 16.1461 9.70947 16.3681 10.072 16.5733C9.95365 16.641 9.84415 16.726 9.74584 16.8337L9.27976 16.6148L9.20466 16.8048C9.20582 16.8017 9.22995 16.6507 9.22995 16.6507C9.22995 16.6507 9.14008 16.6198 9.03046 16.582C9.05054 16.3812 9.0696 16.1914 9.08672 16.0197ZM8.83097 17.0357C8.82346 17.1125 8.81557 17.1906 8.80774 17.2706L8.80103 17.2698L8.83097 17.0357ZM8.99717 17.8342C8.79315 17.6421 9.00775 17.2702 9.27434 17.3475C9.09041 17.4677 9.00647 17.6092 8.99717 17.8342ZM8.97523 17.2886L8.96026 17.2868C8.9776 17.1124 8.99492 16.9394 9.01162 16.772C9.11891 16.7908 9.20403 16.8056 9.20466 16.8048L9.18995 16.8411L9.63074 16.9557C9.58962 16.995 9.55361 17.0404 9.52338 17.0922C9.30192 17.0387 9.09902 17.119 8.97523 17.2886ZM9.88855 20.8906C9.96857 19.5095 9.96223 19.2209 10.0341 18.5692C10.0602 18.5815 10.0867 18.5925 10.1131 18.6015C10.0207 19.2406 10.0177 19.5131 9.88855 20.8906ZM9.663 17.5532C9.43974 17.2556 9.8269 16.8342 10.1428 17.0393C9.8527 17.0645 9.66807 17.2409 9.663 17.5532ZM11.0664 21.9536C10.9738 22.1489 10.3378 23.2987 9.96443 23.6161C9.96739 23.6097 9.97122 23.6038 9.9763 23.5978C10.0395 23.5216 11.0196 21.936 11.0569 21.8186C11.073 21.8228 11.0884 21.8252 11.1025 21.8258C11.1009 21.8564 11.0922 21.8992 11.0664 21.9536ZM11.254 21.391C11.2803 21.5252 11.2589 21.6211 11.1978 21.6405C11.1357 21.6603 10.9888 21.8049 10.9756 21.2436C10.972 21.086 10.8747 19.4309 10.8143 18.3602C10.9164 19.4248 11.0516 20.5915 11.1621 21.4261C11.0753 20.5703 10.9596 19.2302 10.8883 18.0484C10.9117 18.2729 11.2135 21.1857 11.254 21.391ZM10.5433 17.0197C10.4441 16.9317 10.334 16.8672 10.2217 16.8316C10.3263 16.7264 10.4409 16.6707 10.5781 16.6386C10.3657 16.6222 10.1767 16.6845 10.0302 16.7993C10.0234 16.7993 10.0162 16.799 10.0093 16.7993C10.2238 16.6333 10.4872 16.5444 10.7521 16.5611C10.8111 16.5854 10.8756 16.5949 10.9436 16.5931C11.1162 16.641 11.27 16.7403 11.3802 16.8925C11.3482 16.8802 11.317 16.8683 11.2871 16.8569C11.2091 16.7416 11.0734 16.6475 10.9005 16.6349C10.9913 16.6772 11.052 16.7345 11.0796 16.7777C10.7748 16.6607 10.543 16.5352 10.5433 17.0197ZM11.062 18.2332C11.0165 17.7984 10.9802 17.4457 10.9637 17.2866C10.9985 17.2962 11.0364 17.3061 11.0778 17.3175C11.0742 17.3922 11.0509 17.4667 11.0215 17.5196C11.0706 17.4959 11.1294 17.4531 11.1794 17.3968C11.1633 17.5196 11.1176 17.6166 11.0427 17.7139C11.1437 17.6514 11.2287 17.571 11.2886 17.4649C11.2694 17.6615 11.1867 17.8176 11.0579 17.9537C11.199 17.8637 11.3163 17.7474 11.3996 17.5627C11.3561 17.7809 11.2612 17.9392 11.1165 18.0863C11.2857 17.973 11.4008 17.8382 11.4698 17.7054C11.3958 17.907 11.2567 18.0929 11.062 18.2332ZM11.0886 17.0809C11.3104 17.1562 11.7949 17.3399 12.0347 17.4262C11.7686 17.3507 11.1638 17.18 10.8971 17.1095C10.7802 16.9715 10.7374 16.8435 10.7242 16.8244C10.7686 16.8172 10.7583 16.8144 12.379 17.4383C11.9448 17.3307 11.4521 17.1744 11.0886 17.0809ZM12.8987 17.5898C12.9131 17.7974 12.632 17.9306 12.5005 17.7658C12.7052 17.7647 12.8241 17.6373 12.8239 17.4394C12.8757 17.4797 12.8943 17.5242 12.8987 17.5898ZM12.9552 17.163C12.9394 17.1324 12.9216 17.1012 12.9023 17.0695C12.9113 17.0608 12.9201 17.0524 12.9292 17.0437C12.9351 17.0806 12.9436 17.1213 12.9552 17.163ZM12.1506 17.173C12.8169 16.849 13.1174 16.6219 13.6136 16.0354C13.352 16.6704 12.7816 17.0825 12.1506 17.173ZM13.682 17.2987C13.572 17.3941 13.385 17.387 13.306 17.2533C13.5061 17.2848 13.6613 17.2139 13.756 17.0159C13.8031 17.1166 13.7695 17.2226 13.682 17.2987ZM14.8405 19.1101C14.7347 18.9183 13.9855 17.5595 13.8858 17.3782C13.8932 17.3743 13.8736 17.3845 13.9635 17.3374L14.8405 19.1101ZM13.996 16.5038C14.0565 16.4751 14.1006 16.4474 14.1207 16.4378C14.1914 16.4606 14.2807 16.4133 14.3444 16.374C14.3008 16.5443 14.0988 16.6012 13.996 16.5038ZM13.8531 16.4029C14.0073 16.0547 14.4836 14.9802 14.6358 14.6364C14.6331 14.6413 13.6254 16.511 13.6239 16.5136C13.6863 16.3635 13.971 15.6832 14.0342 15.5322C14.4606 14.514 14.5009 14.3862 14.5545 14.3497C14.5968 14.3718 14.6897 14.4846 14.7202 14.5244C14.7235 14.5817 14.7203 14.6548 14.707 14.7291L14.705 14.7304C14.705 14.7304 14.7056 14.7311 14.7065 14.7329C14.6861 14.8468 14.77 14.6431 13.8531 16.4029ZM14.4492 15.8347C14.4306 15.7886 14.4081 15.7501 14.3844 15.718C14.5143 15.4705 14.6338 15.2441 14.721 15.0811C14.7755 15.1889 14.8334 15.3041 14.8939 15.4243C14.7162 15.5878 14.5685 15.7244 14.4492 15.8347ZM17.4651 19.2317C17.6515 19.3094 19.6367 20.0724 19.8045 20.1117C19.8207 20.1156 19.8454 20.1245 19.8559 20.1367C19.457 20.126 18.6759 19.8515 18.0904 19.6188C18.0934 19.6196 19.0507 19.87 19.0538 19.8707C17.8881 19.4506 17.5977 19.366 17.3262 19.1806C17.3331 19.1749 17.3397 19.1688 17.3466 19.1623C17.3729 19.1814 17.4076 19.2078 17.4651 19.2317ZM17.1193 18.6131C17.2538 18.8231 17.2822 18.9353 17.272 18.9955C17.2688 19.0147 17.2617 19.029 17.2527 19.0389C17.2008 19.0961 17.1601 19.1005 17.1082 19.1065C17.0897 19.1085 17.0697 19.1111 17.0524 19.115C16.9436 19.1395 16.8514 19.0709 16.7992 18.9271C16.7366 18.7539 15.7838 16.8519 15.2154 15.7216C14.7465 14.7892 14.6675 14.65 15.2013 15.6365C15.8361 16.8101 16.3021 17.7057 16.9709 18.9145C16.1978 17.4214 15.5194 16.0136 14.8668 14.7567C15.3798 15.6172 16.991 18.4129 17.1193 18.6131ZM17.9704 16.6331L17.1383 15.0504C17.1686 15.051 17.1992 15.0511 17.2297 15.0511L17.9704 16.6331ZM17.5691 13.5422C17.5769 13.6114 17.6277 13.7643 17.4271 13.8865C17.2798 13.9764 15.549 15.2785 15.4124 15.3812C15.4102 15.3776 15.4082 15.3742 15.4062 15.3709C15.8013 15.0338 16.992 14.0189 17.3897 13.68C17.1797 13.8407 15.5599 15.0793 15.336 15.2506C15.3327 15.2452 15.3297 15.24 15.3267 15.2349C17.2039 13.5099 17.4376 13.2636 17.5046 13.3259C17.5482 13.3669 17.5612 13.4765 17.5691 13.5422ZM17.9353 13.4235C17.9694 13.5304 17.9699 13.5303 17.9869 13.592C17.9803 13.5857 17.9739 13.5794 17.9673 13.5734C17.9592 13.5288 17.9586 13.5289 17.9353 13.4235ZM21.4056 17.1999C21.3478 17.2778 21.2796 17.2695 21.203 17.2938C21.1439 17.3127 20.9928 17.3361 20.8582 17.1506C20.7315 16.9758 18.6901 14.7688 18.5469 14.614C19.5091 15.5941 20.1099 16.1704 21.0038 17.1232C19.9625 15.9282 19.3818 15.3577 18.0011 13.817C18.8226 14.5981 20.9873 16.6948 21.1596 16.8478C21.4437 17.0995 21.4196 17.1809 21.4056 17.1999ZM21.8317 17.6683C22.6191 17.9712 23.3209 18.235 23.88 18.3849C23.1507 18.1368 22.1827 17.6676 21.4776 17.3472C21.5875 17.3083 21.548 17.3666 21.7212 17.4391C22.0169 17.5622 24.3221 18.4436 24.5079 18.4874C24.5592 18.4994 24.5762 18.5168 24.5951 18.5465C23.9572 18.5488 22.4474 17.9413 21.8317 17.6683Z" fill="#BA0000"/>
</svg>
