<svg width="16" height="17" viewBox="0 0 16 17" fill="none" xmlns="http://www.w3.org/2000/svg">
<path d="M5.56376 16.5L4.18176 14.024L1.43628 13.4333L1.74561 10.6337L0 8.5L1.74561 6.38585L1.43628 3.58574L4.18176 2.99545L5.56376 0.5L7.99991 1.68097L10.4362 0.5L11.8362 2.99545L14.5639 3.58574L14.2546 6.38585L16 8.5L14.2546 10.6337L14.5639 13.4333L11.8362 14.024L10.4362 16.5L7.99991 15.319L5.56376 16.5ZM6.05443 14.9952L7.99991 14.1381L10 14.9952L11.2183 13.0904L13.3457 12.5189L13.1271 10.2524L14.5998 8.5L13.1271 6.70933L13.3457 4.44285L11.2183 3.9098L9.96353 2.00503L7.99991 2.86214L5.99979 2.00503L4.78172 3.9098L2.65435 4.44324L2.87274 6.70972L1.39997 8.5L2.87274 10.2524L2.65435 12.5573L4.78172 13.0904L6.05443 14.9952ZM7.21805 11.0333L11.3455 6.74756L10.5276 5.96671L7.21842 9.39534L5.49115 7.50958L4.65446 8.36669L7.21805 11.0333Z" fill="#DC0000"/>
</svg>
