<svg width="24" height="18" viewBox="0 0 24 18" fill="none" xmlns="http://www.w3.org/2000/svg">
<path d="M9.28323 6.95704C10.0374 6.95704 10.662 6.71037 11.1548 6.21728C11.6484 5.7249 11.8941 5.10178 11.8941 4.34778C11.8941 3.59424 11.6484 2.97122 11.1548 2.47884C10.662 1.98575 10.0374 1.73908 9.28323 1.73908C8.52902 1.73908 7.90501 1.98575 7.41219 2.47884C6.91866 2.97122 6.67234 3.59424 6.67234 4.34778C6.67234 5.10178 6.91866 5.7249 7.41219 6.21728C7.90501 6.71037 8.52902 6.95704 9.28323 6.95704ZM1.74078 16.2611H16.8268V15.2756C16.8268 14.966 16.739 14.6719 16.5652 14.3916C16.3913 14.1117 16.1591 13.9037 15.8687 13.7685C14.4956 13.1303 13.3356 12.71 12.3872 12.5073C11.4399 12.3044 10.4051 12.2033 9.28323 12.2033C8.16163 12.2033 7.12224 12.3044 6.16444 12.5073C5.20711 12.71 4.04176 13.1303 2.66859 13.7685C2.37889 13.9037 2.1514 14.1117 1.98759 14.3916C1.82238 14.6719 1.74078 14.966 1.74078 15.2756V16.2611ZM0 18V15.2756C0 14.5997 0.168816 13.9859 0.507895 13.435C0.84557 12.8844 1.33402 12.4735 1.97217 12.2033C3.42279 11.565 4.71412 11.1163 5.84508 10.8559C6.97675 10.5947 8.12325 10.464 9.28323 10.464C10.4434 10.464 11.5849 10.5947 12.7065 10.8559C13.8281 11.1163 15.1145 11.565 16.5652 12.2033C17.2033 12.4927 17.6968 12.9084 18.0443 13.4499C18.3927 13.9907 18.567 14.5997 18.567 15.2756V18H0ZM9.28323 8.69598C8.00718 8.69598 6.96277 8.29031 6.14959 7.47832C5.33688 6.66727 4.93098 5.62338 4.93098 4.34778C4.93098 3.07263 5.33688 2.0288 6.14959 1.21751C6.96277 0.405763 8.00718 0 9.28323 0C10.5595 0 11.6045 0.405763 12.4163 1.21751C13.2297 2.0288 13.6355 3.07263 13.6355 4.34778C13.6355 5.62338 13.2297 6.66727 12.4163 7.47832C11.6045 8.29031 10.5595 8.69598 9.28323 8.69598Z" fill="black"/>
<path d="M19.2404 9.04906L18.0092 7.81899L22.7688 3.06381L24 4.29402L19.2404 9.04906Z" fill="black"/>
<path d="M22.7668 9.04906L23.998 7.81899L19.239 3.06381L18.0078 4.29402L22.7668 9.04906Z" fill="black"/>
</svg>
