<svg width="24" height="22" viewBox="0 0 24 22" fill="none" xmlns="http://www.w3.org/2000/svg">
<path d="M11.8096 22L16.7241 8.80042H18.9507L24 22H21.638L20.5246 18.5347H15.3125L14.0362 22H11.8096ZM15.9096 16.6096H19.7646L17.8644 11.2754H17.8099L15.9096 16.6096ZM3.25797 18.7L1.76493 17.1874L7.30289 11.5775C6.6153 10.771 6.00431 9.95954 5.47028 9.14407C4.93698 8.32785 4.47024 7.48051 4.07187 6.59994H6.4339C6.742 7.20496 7.08122 7.7786 7.45261 8.31877C7.82327 8.85969 8.24433 9.41436 8.71508 9.98211C9.52925 9.12067 10.2076 8.22709 10.7507 7.30179C11.2938 6.3755 11.7557 5.40845 12.1359 4.40067H0V2.20018H7.60174V0H9.77392V2.20018H17.3751V4.40067H14.3075C13.9096 5.66488 13.3796 6.90724 12.7193 8.12648C12.0587 9.34571 11.2485 10.5048 10.2896 11.6048L12.9504 14.327L12.1359 16.5547L8.68753 13.2002L3.25797 18.7Z" fill="black"/>
</svg>
