<svg width="14" height="24" viewBox="0 0 14 24" fill="none" xmlns="http://www.w3.org/2000/svg">
<path d="M6.99979 24C4.98893 24 3.34875 23.69 2.07761 23.0701C0.806656 22.4501 0.170528 21.6603 0.170528 20.7006C0.170528 20.1603 0.402994 19.6499 0.868064 19.1699C1.33278 18.6901 1.97297 18.3001 2.78886 17.9999L3.30087 19.7402C2.99744 19.8403 2.71774 19.9805 2.46151 20.1603C2.20546 20.3404 2.0013 20.5202 1.84967 20.7006C2.17206 21.1002 2.84073 21.45 3.85616 21.75C4.87106 22.0504 5.91872 22.1999 6.99979 22.1999C8.08121 22.1999 9.1342 22.0504 10.1584 21.75C11.1828 21.45 11.8562 21.1002 12.1786 20.7006C12.0268 20.5402 11.8281 20.37 11.5813 20.1901C11.3346 20.0103 11.0503 19.8603 10.7274 19.7402L11.2111 17.9999C12.027 18.3001 12.6671 18.6901 13.1324 19.1699C13.5969 19.6499 13.8295 20.1603 13.8295 20.7006C13.8295 21.6603 13.1933 22.4501 11.9224 23.0701C10.6513 23.69 9.01064 24 6.99979 24ZM6.99979 17.5505C7.39817 16.77 7.82013 16.0552 8.26589 15.4052C8.71218 14.7554 9.15312 14.1402 9.58941 13.5602C10.4243 12.42 11.0832 11.44 11.5672 10.6203C12.0507 9.80009 12.2926 8.72023 12.2926 7.38008C12.2926 5.8203 11.7804 4.50006 10.7565 3.42025C9.73181 2.34024 8.47923 1.80013 6.99979 1.80013C5.52034 1.80013 4.26827 2.34024 3.24389 3.42025C2.21968 4.50006 1.70742 5.8203 1.70742 7.38008C1.70742 8.72023 1.94921 9.80009 2.43324 10.6203C2.91673 11.44 3.57574 12.42 4.41059 13.5602C4.84688 14.1402 5.28782 14.7554 5.73411 15.4052C6.17987 16.0552 6.60123 16.77 6.99979 17.5505ZM6.99979 20.8201C6.77234 20.8201 6.57327 20.7503 6.40251 20.6102C6.23193 20.4704 6.10831 20.2904 6.03232 20.0702C5.57708 18.61 5.00827 17.4004 4.32575 16.4401C3.64272 15.4804 2.97828 14.5605 2.33298 13.6803C1.6882 12.8003 1.13804 11.8855 0.682969 10.9352C0.227727 9.98524 0 8.80053 0 7.38008C0 5.31999 0.678166 3.57495 2.03477 2.14525C3.39102 0.714989 5.04561 0 6.99979 0C8.95378 0 10.6092 0.714989 11.9652 2.14525C13.322 3.57495 14 5.31999 14 7.38008C14 8.80053 13.7723 9.98524 13.317 10.9352C12.862 11.8855 12.3116 12.8003 11.667 13.6803C11.0217 14.5605 10.3576 15.4804 9.6751 16.4401C8.99207 17.4001 8.42292 18.61 7.96768 20.0702C7.89169 20.2898 7.76825 20.4704 7.59749 20.6102C7.42691 20.7503 7.22758 20.8201 6.99979 20.8201ZM6.99979 9.18021C7.47381 9.18021 7.87747 9.00501 8.20933 8.6553C8.5412 8.30542 8.70721 7.88002 8.70721 7.38008C8.70721 6.88032 8.5412 6.45497 8.20933 6.10508C7.87747 5.75538 7.47381 5.58018 6.99979 5.58018C6.52559 5.58018 6.12253 5.75538 5.79067 6.10508C5.4588 6.45497 5.29236 6.88032 5.29236 7.38008C5.29236 7.88002 5.4588 8.30542 5.79067 8.6553C6.12253 9.00501 6.52559 9.18021 6.99979 9.18021Z" fill="black"/>
</svg>
