<svg width="24" height="22" viewBox="0 0 24 22" fill="none" xmlns="http://www.w3.org/2000/svg">
<path d="M18.2433 21.9994H5.52689V7.92009L13.4888 0L14.606 0.853157C14.7203 0.94458 14.8068 1.07272 14.8636 1.23761C14.9214 1.4029 14.9498 1.60437 14.9498 1.84292V2.11737L13.6607 7.92009H22.224C22.6823 7.92009 23.0836 8.08506 23.4274 8.41503C23.7713 8.74521 23.9427 9.13001 23.9427 9.56998V11.8247C23.9427 11.9529 23.9572 12.0861 23.9858 12.2233C24.0144 12.3614 23.9998 12.494 23.9427 12.6222L20.334 20.5971C20.1623 20.9822 19.8807 21.3122 19.4893 21.5868C19.0979 21.8619 18.6818 21.9994 18.2433 21.9994ZM7.24551 20.3495H18.6159L22.224 12.1272V9.56998H11.5418L13.0593 2.72256L7.24551 8.60732V20.3495ZM5.52689 7.92009V9.56998H1.71811V20.3495H5.52689V21.9994H0V7.92009H5.52689Z" fill="black"/>
</svg>
